<?xml version="1.0" standalone="no"?>
<!DOCTYPE svg PUBLIC "-//W3C//DTD SVG 1.1//EN" "http://www.w3.org/Graphics/SVG/1.1/DTD/svg11.dtd" >
<svg xmlns="http://www.w3.org/2000/svg">
<metadata>
Created by FontPrep 20130207 at Sun Oct 22 21:51:19 2017
 By Nam Dang
Copyright (c) 2012 by Juri Zaech. All rights reserved.
</metadata>
<defs>
<font id="af61621a84035e3ac35ab277956086e2" horiz-adv-x='1024' >
  <font-face 
    font-family="Frontage-Bold"
    font-weight="400"
    font-stretch="normal"
    units-per-em="2048"
    panose-1="2 0 5 5 0 0 0 2 0 4"
    ascent="1536"
    descent="-512"
    x-height="1485"
    cap-height="1485"
    bbox="-51 -410 2818 1996"
    underline-thickness="102"
    underline-position="-102"
    unicode-range="U+0020-2212"
  />
<missing-glyph horiz-adv-x="1431" 
 />
    <glyph glyph-name=".notdef" horiz-adv-x="1431" 
 />
    <glyph glyph-name=".null" horiz-adv-x="0" 
 />
    <glyph glyph-name="nonmarkingreturn" horiz-adv-x="681" 
 />
    <glyph glyph-name="space" unicode=" " horiz-adv-x="1126" 
 />
    <glyph glyph-name="exclam" unicode="!" 
d="M860 256v-307h-307v307h307zM860 1485v-1127h-307v1127h307z" />
    <glyph glyph-name="quotedbl" unicode="&#x22;" horiz-adv-x="1382" 
d="M1178 1485v-512h-308v512h308zM717 1485v-512h-307v512h307z" />
    <glyph glyph-name="numbersign" unicode="#" horiz-adv-x="2048" 
d="M1169 614l50 205h-136l-49 -205h135zM1729 819h-193l-51 -205h194l-75 -307h-193l-86 -358h-315l86 358h-138l-86 -358h-315l86 358h-192l73 307h193l49 205h-193l74 307h195l86 359h315l-86 -359h135l88 359h316l-86 -359h192z" />
    <glyph glyph-name="dollar" unicode="$" horiz-adv-x="1597" 
d="M1372 410q0 -146 -86 -266t-221 -169v-180h-307v180q-111 39 -190 127t-105 203l295 105q0 -62 45 -108t108 -46t109 45q45 45 45 109t-45 108q-45 45 -109 45q-190 0 -325 135t-135 326q0 150 85 268t222 166v180h307v-180q111 -39 189 -127t106 -203l-295 -104
q0 62 -45 108q-44 46 -108 46t-109 -45t-45 -109t45 -108q45 -46 108 -46q189 0 325 -135t136 -325z" />
    <glyph glyph-name="percent" unicode="%" horiz-adv-x="2111" 
d="M1559 563q127 0 217 -90t90 -217t-90 -217t-217 -90t-218 90q-90 90 -90 217t90 217q91 90 218 90zM1661 256q0 43 -31 73q-30 29 -72 29t-72 -30t-30 -72q0 -43 30 -73q30 -29 72 -29t72 30t31 72zM1804 1380l-1122 -1480l-203 155l1123 1481zM758 1485q127 0 217 -90
t90 -217t-90 -217q-90 -91 -217 -91t-217 90t-90 218q0 127 90 217t217 90zM860 1178q0 42 -30 72t-72 30t-73 -30q-30 -30 -30 -72t30 -73q30 -30 73 -30q42 0 72 30t30 73z" />
    <glyph glyph-name="ampersand" unicode="&#x26;" horiz-adv-x="1966" 
d="M925 1484q149 0 253 -105t104 -253t-104 -254l-37 -34l217 -220l186 187l217 -217l-184 -187l184 -184l-217 -217l-186 184l-101 -100q-135 -135 -325 -135t-326 135q-135 136 -135 326t135 325l101 103l-35 34q-106 106 -106 254t104 252q106 106 255 106zM932 256
q64 0 108 45l101 100l-217 217l-101 -100q-45 -44 -45 -108t45 -109t109 -45zM975 1126q0 20 -14 36t-36 16t-37 -16q-16 -16 -16 -36t17 -36l35 -35l37 35q14 16 14 36z" />
    <glyph glyph-name="quotesingle" unicode="'" horiz-adv-x="921" 
d="M717 1485v-512h-307v512h307z" />
    <glyph glyph-name="parenleft" unicode="(" horiz-adv-x="1122" 
d="M717 717q0 -371 201 -684l-267 -154q-242 383 -241 838q0 455 241 837l267 -153q-201 -313 -201 -684z" />
    <glyph glyph-name="parenright" unicode=")" horiz-adv-x="1120" 
d="M608 717q0 373 -198 684l266 153q240 -386 240 -838t-240 -837l-266 154q198 311 198 684z" />
    <glyph glyph-name="asterisk" unicode="*" horiz-adv-x="2056" 
d="M1284 -51h-307v502l-434 -252l-154 266l434 252l-434 250l154 266l434 -250v502h307v-502l434 250l154 -266l-434 -250l434 -252l-154 -266l-434 252v-502z" />
    <glyph glyph-name="plus" unicode="+" horiz-adv-x="1740" 
d="M1536 870v-307h-410v-409h-307v409h-409v307h409v410h307v-410h410z" />
    <glyph glyph-name="comma" unicode="," horiz-adv-x="921" 
d="M410 -256v512h307v-268l-123 -244h-184z" />
    <glyph glyph-name="hyphen" unicode="-" 
d="M1065 870v-307h-717v307h717z" />
    <glyph glyph-name="period" unicode="." horiz-adv-x="921" 
d="M717 256v-307h-307v307h307z" />
    <glyph glyph-name="slash" unicode="/" horiz-adv-x="1454" 
d="M266 35l858 1515l269 -151l-861 -1516z" />
    <glyph glyph-name="zero" unicode="0" horiz-adv-x="2027" 
d="M1116 1178q-190 0 -325 -136t-135 -325t134 -325q136 -136 326 -136t326 135q135 135 135 325q1 190 -135 326t-326 136zM1884 717q0 -317 -225 -543t-543 -225q-318 0 -543 225q-225 224 -225 542t225 544t543 225q318 0 543 -225q225 -226 225 -543z" />
    <glyph glyph-name="one" unicode="1" 
d="M860 1485v-1536h-307v1536h307z" />
    <glyph glyph-name="two" unicode="2" horiz-adv-x="1718" 
d="M428 973q0 211 151 361t361 151q210 -1 362 -151q150 -150 150 -348t-119 -345l-325 -385h444v-307h-1104l750 891q47 53 47 135q1 82 -59 142q-60 61 -145 61t-145 -60t-60 -128t22 -109l22 -47l-274 -138l-23 47q-55 106 -55 230z" />
    <glyph glyph-name="three" unicode="3" horiz-adv-x="1699" 
d="M1409 461q1 -211 -149 -362t-363 -150q-154 0 -279 82t-188 217l270 155q18 -63 72 -105t132 -42q77 0 137 60q61 60 61 144t-60 145q-60 60 -145 61h-334l340 512h-387v307h959l-369 -557q135 -62 219 -188t84 -279z" />
    <glyph glyph-name="four" unicode="4" horiz-adv-x="1832" 
d="M1075 614v615h307v-615h205v-307h-205v-358h-307v358h-624l280 1204l299 -69l-192 -828h237z" />
    <glyph glyph-name="five" unicode="5" horiz-adv-x="1716" 
d="M938 973q212 0 362 -151q150 -152 150 -362t-150 -361t-362 -150q-154 0 -280 83t-187 218l268 156q17 -66 73 -108t133 -42t137 60t60 144t-60 145t-132 61q-142 1 -196 -117l-271 108l99 828h766v-307h-494l-27 -217q55 12 111 12z" />
    <glyph glyph-name="six" unicode="6" horiz-adv-x="1679" 
d="M1454 462q0 -208 -150 -359t-362 -151t-362 152q-150 150 -150 361q0 125 57 235l426 861l275 -136l-221 -448q203 -11 345 -159t142 -356zM737 465q1 -84 61 -144q60 -61 144 -61t144 60t61 145q-1 84 -61 144q-60 61 -144 61t-144 -60t-61 -145z" />
    <glyph glyph-name="seven" unicode="7" horiz-adv-x="1736" 
d="M451 1178v307h1101l-356 -819h98v-308h-233l-193 -442l-280 123l139 319h-98v308h231l223 512h-632z" />
    <glyph glyph-name="eight" unicode="8" horiz-adv-x="1638" 
d="M922 666q-84 0 -144 -60t-61 -145q0 -85 60 -145q61 -60 145 -60t144 60t60 144t-60 146q-60 60 -144 60zM922 973q42 -1 72 29t30 73t-30 73t-72 30t-73 -30q-30 -30 -30 -73t30 -73t73 -29zM1434 471q0 -221 -150 -372t-362 -151t-363 152q-149 150 -149 371t174 373
q-72 104 -72 231q0 170 120 290t289 120t289 -120t121 -290q1 -127 -71 -231q174 -152 174 -373z" />
    <glyph glyph-name="nine" unicode="9" horiz-adv-x="1597" 
d="M389 976q0 208 150 358q151 150 363 151q212 0 362 -151t149 -361q0 -125 -57 -236l-426 -860l-275 135l222 449q-205 11 -347 159t-141 356zM1106 973q0 84 -60 144q-60 61 -144 61t-145 -60t-61 -145t60 -145t145 -60q84 0 145 60q60 61 60 145z" />
    <glyph glyph-name="colon" unicode=":" horiz-adv-x="921" 
d="M717 1075v-307h-307v307h307zM717 256v-307h-307v307h307z" />
    <glyph glyph-name="semicolon" unicode=";" horiz-adv-x="921" 
d="M717 1075v-307h-307v307h307zM410 -256v512h307v-268l-123 -244h-184z" />
    <glyph glyph-name="less" unicode="&#x3c;" horiz-adv-x="1683" 
d="M451 852l809 397l137 -276l-523 -256l523 -256l-137 -277l-809 398v270z" />
    <glyph glyph-name="equal" unicode="=" horiz-adv-x="1740" 
d="M1536 666v-308h-1126v308h1126zM1536 1075v-307h-1126v307h1126z" />
    <glyph glyph-name="greater" unicode="&#x3e;" horiz-adv-x="1683" 
d="M629 1249l809 -397v-270l-809 -398l-135 277l520 256l-520 256z" />
    <glyph glyph-name="question" unicode="?" horiz-adv-x="1439" 
d="M809 1485q203 -1 345 -143t142 -345q0 -159 -93 -285t-240 -175v-179h-308v461h154q76 0 128 52t52 127t-52 127q-52 53 -124 53t-122 -45t-58 -111l-285 127q49 147 175 241t286 95zM655 -51v307h308v-307h-308z" />
    <glyph glyph-name="at" unicode="@" horiz-adv-x="2109" 
d="M1157 256q78 0 154 27q-74 25 -137 75h-17q-150 0 -254 104t-104 255q0 150 104 254t254 104t254 -104t105 -254q0 -80 -35 -154q59 8 98 51t39 103q0 190 -135 325q-135 136 -325 136t-326 -136t-136 -325q0 -190 135 -326q136 -135 326 -135zM1106 717q0 -19 14 -35
t37 -16t37 15t14 35t-14 36t-37 16t-37 -16t-14 -35zM1925 717q0 -189 -135 -325t-326 -136q-33 0 -47 2l99 -221q-170 -88 -359 -88q-317 0 -543 225q-225 224 -225 542t225 544q224 226 542 225q318 0 544 -225q225 -226 225 -543z" />
    <glyph glyph-name="A" unicode="A" horiz-adv-x="2222" 
d="M985 512h455l-228 418zM1749 -51l-141 256h-791l-139 -256h-350l884 1620l887 -1620h-350z" />
    <glyph glyph-name="B" unicode="B" horiz-adv-x="2109" 
d="M858 256h565q63 0 109 45q45 45 45 109t-45 108q-45 45 -109 45h-565v-307zM860 870h461q63 0 109 45q45 45 45 109t-45 108q-45 46 -109 46h-461v-308zM1884 410q0 -190 -135 -326t-326 -135h-870v1536h768q189 0 325 -135t136 -326q0 -137 -74 -252q176 -139 176 -362z
" />
    <glyph glyph-name="C" unicode="C" horiz-adv-x="1923" 
d="M369 717q0 317 225 543t543 225q184 0 345 -82t267 -223l31 -41l-244 -187l-31 41q-137 184 -368 185q-189 0 -325 -136t-136 -325t135 -325t326 -136q231 0 368 184l31 41l244 -186l-31 -41q-106 -141 -267 -223t-345 -82q-317 0 -543 225q-225 226 -225 543z" />
    <glyph glyph-name="D" unicode="D" horiz-adv-x="2048" 
d="M860 256h256q190 0 326 135q135 135 135 325t-135 326q-135 135 -326 136h-256v-922zM1116 -51h-563v1536h563q316 0 542 -225q226 -224 226 -542t-225 -544q-226 -225 -543 -225z" />
    <glyph glyph-name="E" unicode="E" horiz-adv-x="2007" 
d="M553 -51v1536h1126v-307h-819v-461h615v-307h-615v-154h819v-307h-1126z" />
    <glyph glyph-name="F" unicode="F" horiz-adv-x="1904" 
d="M553 -51v1536h1126v-307h-819v-461h615v-307h-615v-461h-307z" />
    <glyph glyph-name="G" unicode="G" horiz-adv-x="2025" 
d="M1772 768v-512q-106 -143 -268 -225t-347 -82q-317 0 -543 225q-225 224 -225 542t225 544t543 225q199 0 368 -93t273 -253l-244 -189q-61 104 -166 166t-231 62q-189 0 -325 -136t-136 -325t135 -325t317 -136t316 117v88h-358v307h666z" />
    <glyph glyph-name="H" unicode="H" horiz-adv-x="2232" 
d="M1577 1485h307v-1536h-307v461h-717v-461h-307v1536h307v-768h717v768z" />
    <glyph glyph-name="I" unicode="I" 
d="M860 1485v-1536h-307v1536h307z" />
    <glyph glyph-name="J" unicode="J" horiz-adv-x="1736" 
d="M836 256q116 0 191 75t75 181v973h307v-973q0 -233 -165 -398t-398 -165q-135 1 -252 59t-195 160l-30 41l243 188l31 -41q77 -100 193 -100z" />
    <glyph glyph-name="K" unicode="K" horiz-adv-x="2037" 
d="M553 -51v1536h307v-582l535 582h417l-565 -617l576 -919h-363l-428 686l-172 -186v-500h-307z" />
    <glyph glyph-name="L" unicode="L" horiz-adv-x="1884" 
d="M553 -51v1536h307v-1229h819v-307h-1126z" />
    <glyph glyph-name="M" unicode="M" horiz-adv-x="2322" 
d="M514 -51l119 1536h78l555 -600l553 600h79l117 -1536h-307l-68 889l-374 -406l-375 406l-70 -889h-307z" />
    <glyph glyph-name="N" unicode="N" horiz-adv-x="2232" 
d="M553 -51v1536h82l942 -897v897h307v-1536h-84l-940 897v-897h-307z" />
    <glyph glyph-name="O" unicode="O" horiz-adv-x="2027" 
d="M1116 1178q-190 0 -325 -136t-135 -325t134 -325q136 -136 326 -136t326 135q135 135 135 325q1 190 -135 326t-326 136zM1884 717q0 -317 -225 -543t-543 -225q-318 0 -543 225q-225 224 -225 542t225 544t543 225q318 0 543 -225q225 -226 225 -543z" />
    <glyph glyph-name="P" unicode="P" horiz-adv-x="1843" 
d="M1116 358h-256v-409h-307v1536h563q233 0 398 -165t165 -398q0 -232 -165 -398t-398 -166zM860 666h256q106 0 181 74t75 182q0 106 -75 181t-181 75h-256v-512z" />
    <glyph glyph-name="Q" unicode="Q" horiz-adv-x="2129" 
d="M1137 256q68 0 129 18l-142 215h369l23 -34q82 119 81 262q0 190 -135 325q-135 136 -325 136q-189 0 -325 -136t-136 -325q0 -190 135 -326q136 -135 326 -135zM369 716q0 318 225 544q224 226 542 225q318 1 544 -225t225 -538q0 -312 -213 -536l155 -237h-366l-41 61
q-150 -61 -303 -61q-317 0 -543 225q-225 224 -225 542z" />
    <glyph glyph-name="R" unicode="R" horiz-adv-x="1972" 
d="M860 358v-409h-307v1536h563q233 0 398 -165t165 -398q1 -150 -71 -276t-195 -204l324 -493h-367l-268 409h-242zM860 666h256q106 0 181 74t75 182q0 106 -75 181t-181 75h-256v-512z" />
    <glyph glyph-name="S" unicode="S" horiz-adv-x="1597" 
d="M911 870q189 0 325 -135t136 -325t-135 -326t-313 -135q-178 0 -302 100t-159 256l295 105q0 -62 45 -108t108 -46t109 45q45 45 45 109t-45 108q-45 45 -109 45q-190 0 -325 135q-135 136 -135 326t135 326t312 135t302 -101t160 -256l-295 -104q0 62 -45 108
q-44 46 -108 46t-109 -45t-45 -109t45 -108q45 -46 108 -46z" />
    <glyph glyph-name="T" unicode="T" horiz-adv-x="1945" 
d="M410 1178v307h1331v-307h-512v-1229h-307v1229h-512z" />
    <glyph glyph-name="U" unicode="U" horiz-adv-x="2150" 
d="M1843 1485v-871q1 -276 -195 -471t-471 -195t-470 196q-195 194 -195 470v871h307v-871q1 -150 105 -254t254 -104t254 104t104 254v871h307z" />
    <glyph glyph-name="V" unicode="V" horiz-adv-x="2017" 
d="M1997 1485l-840 -1536h-92l-840 1536h350l537 -981l535 981h350z" />
    <glyph glyph-name="W" unicode="W" horiz-adv-x="2320" 
d="M1264 717l-295 -768h-92l-590 1536h329l306 -799l307 799h69l306 -799l307 799h327l-587 -1536h-92z" />
    <glyph glyph-name="X" unicode="X" horiz-adv-x="1925" 
d="M883 737l-469 748h362l289 -459l287 459h362l-469 -748l496 -788h-363l-313 500l-313 -500h-363z" />
    <glyph glyph-name="Y" unicode="Y" horiz-adv-x="1828" 
d="M1169 -51h-307v551l-616 985h362l408 -651l409 651h363l-619 -985v-551z" />
    <glyph glyph-name="Z" unicode="Z" horiz-adv-x="1769" 
d="M455 1178v307h1130l-676 -1229h641v-307h-1161l676 1229h-610z" />
    <glyph glyph-name="bracketleft" unicode="[" horiz-adv-x="1218" 
d="M973 1382h-154v-1331h154v-307h-461v1946h461v-308z" />
    <glyph glyph-name="backslash" unicode="\" horiz-adv-x="1454" 
d="M532 1550l861 -1515l-269 -152l-858 1516z" />
    <glyph glyph-name="bracketright" unicode="]" horiz-adv-x="1218" 
d="M604 1382h-153v308h460v-1946h-460v307h153v1331z" />
    <glyph glyph-name="asciicircum" unicode="^" horiz-adv-x="1261" 
d="M1057 750l-62 -197l-262 82l-264 -82l-59 197l323 98z" />
    <glyph glyph-name="underscore" unicode="_" horiz-adv-x="1433" 
d="M1485 -102v-308h-1536v308h1536z" />
    <glyph glyph-name="grave" unicode="`" horiz-adv-x="1261" 
d="M1057 1749l-62 -197l-585 181l59 196z" />
    <glyph glyph-name="a" unicode="a" horiz-adv-x="2222" 
d="M985 512h455l-228 418zM1749 -51l-141 256h-791l-139 -256h-350l884 1620l887 -1620h-350z" />
    <glyph glyph-name="b" unicode="b" horiz-adv-x="2109" 
d="M858 256h565q63 0 109 45q45 45 45 109t-45 108q-45 45 -109 45h-565v-307zM860 870h461q63 0 109 45q45 45 45 109t-45 108q-45 46 -109 46h-461v-308zM1884 410q0 -190 -135 -326t-326 -135h-870v1536h768q189 0 325 -135t136 -326q0 -137 -74 -252q176 -139 176 -362z
" />
    <glyph glyph-name="c" unicode="c" horiz-adv-x="1923" 
d="M369 717q0 317 225 543t543 225q184 0 345 -82t267 -223l31 -41l-244 -187l-31 41q-137 184 -368 185q-189 0 -325 -136t-136 -325t135 -325t326 -136q231 0 368 184l31 41l244 -186l-31 -41q-106 -141 -267 -223t-345 -82q-317 0 -543 225q-225 226 -225 543z" />
    <glyph glyph-name="d" unicode="d" horiz-adv-x="2048" 
d="M860 256h256q190 0 326 135q135 135 135 325t-135 326q-135 135 -326 136h-256v-922zM1116 -51h-563v1536h563q316 0 542 -225q226 -224 226 -542t-225 -544q-226 -225 -543 -225z" />
    <glyph glyph-name="e" unicode="e" horiz-adv-x="2007" 
d="M553 -51v1536h1126v-307h-819v-461h615v-307h-615v-154h819v-307h-1126z" />
    <glyph glyph-name="f" unicode="f" horiz-adv-x="1904" 
d="M553 -51v1536h1126v-307h-819v-461h615v-307h-615v-461h-307z" />
    <glyph glyph-name="g" unicode="g" horiz-adv-x="2025" 
d="M1772 768v-512q-106 -143 -268 -225t-347 -82q-317 0 -543 225q-225 224 -225 542t225 544t543 225q199 0 368 -93t273 -253l-244 -189q-61 104 -166 166t-231 62q-189 0 -325 -136t-136 -325t135 -325t317 -136t316 117v88h-358v307h666z" />
    <glyph glyph-name="h" unicode="h" horiz-adv-x="2232" 
d="M1577 1485h307v-1536h-307v461h-717v-461h-307v1536h307v-768h717v768z" />
    <glyph glyph-name="i" unicode="i" 
d="M860 1485v-1536h-307v1536h307z" />
    <glyph glyph-name="j" unicode="j" horiz-adv-x="1736" 
d="M836 256q116 0 191 75t75 181v973h307v-973q0 -233 -165 -398t-398 -165q-135 1 -252 59t-195 160l-30 41l243 188l31 -41q77 -100 193 -100z" />
    <glyph glyph-name="k" unicode="k" horiz-adv-x="2037" 
d="M553 -51v1536h307v-582l535 582h417l-565 -617l576 -919h-363l-428 686l-172 -186v-500h-307z" />
    <glyph glyph-name="l" unicode="l" horiz-adv-x="1884" 
d="M553 -51v1536h307v-1229h819v-307h-1126z" />
    <glyph glyph-name="m" unicode="m" horiz-adv-x="2322" 
d="M514 -51l119 1536h78l555 -600l553 600h79l117 -1536h-307l-68 889l-374 -406l-375 406l-70 -889h-307z" />
    <glyph glyph-name="n" unicode="n" horiz-adv-x="2232" 
d="M553 -51v1536h82l942 -897v897h307v-1536h-84l-940 897v-897h-307z" />
    <glyph glyph-name="o" unicode="o" horiz-adv-x="2027" 
d="M1116 1178q-190 0 -325 -136t-135 -325t134 -325q136 -136 326 -136t326 135q135 135 135 325q1 190 -135 326t-326 136zM1884 717q0 -317 -225 -543t-543 -225q-318 0 -543 225q-225 224 -225 542t225 544t543 225q318 0 543 -225q225 -226 225 -543z" />
    <glyph glyph-name="p" unicode="p" horiz-adv-x="1843" 
d="M1116 358h-256v-409h-307v1536h563q233 0 398 -165t165 -398q0 -232 -165 -398t-398 -166zM860 666h256q106 0 181 74t75 182q0 106 -75 181t-181 75h-256v-512z" />
    <glyph glyph-name="q" unicode="q" horiz-adv-x="2129" 
d="M1137 256q68 0 129 18l-142 215h369l23 -34q82 119 81 262q0 190 -135 325q-135 136 -325 136q-189 0 -325 -136t-136 -325q0 -190 135 -326q136 -135 326 -135zM369 716q0 318 225 544q224 226 542 225q318 1 544 -225t225 -538q0 -312 -213 -536l155 -237h-366l-41 61
q-150 -61 -303 -61q-317 0 -543 225q-225 224 -225 542z" />
    <glyph glyph-name="r" unicode="r" horiz-adv-x="1972" 
d="M860 358v-409h-307v1536h563q233 0 398 -165t165 -398q1 -150 -71 -276t-195 -204l324 -493h-367l-268 409h-242zM860 666h256q106 0 181 74t75 182q0 106 -75 181t-181 75h-256v-512z" />
    <glyph glyph-name="s" unicode="s" horiz-adv-x="1597" 
d="M911 870q189 0 325 -135t136 -325t-135 -326t-313 -135q-178 0 -302 100t-159 256l295 105q0 -62 45 -108t108 -46t109 45q45 45 45 109t-45 108q-45 45 -109 45q-190 0 -325 135q-135 136 -135 326t135 326t312 135t302 -101t160 -256l-295 -104q0 62 -45 108
q-44 46 -108 46t-109 -45t-45 -109t45 -108q45 -46 108 -46z" />
    <glyph glyph-name="t" unicode="t" horiz-adv-x="1945" 
d="M410 1178v307h1331v-307h-512v-1229h-307v1229h-512z" />
    <glyph glyph-name="u" unicode="u" horiz-adv-x="2150" 
d="M1843 1485v-871q1 -276 -195 -471t-471 -195t-470 196q-195 194 -195 470v871h307v-871q1 -150 105 -254t254 -104t254 104t104 254v871h307z" />
    <glyph glyph-name="v" unicode="v" horiz-adv-x="2017" 
d="M1997 1485l-840 -1536h-92l-840 1536h350l537 -981l535 981h350z" />
    <glyph glyph-name="w" unicode="w" horiz-adv-x="2320" 
d="M1264 717l-295 -768h-92l-590 1536h329l306 -799l307 799h69l306 -799l307 799h327l-587 -1536h-92z" />
    <glyph glyph-name="x" unicode="x" horiz-adv-x="1925" 
d="M883 737l-469 748h362l289 -459l287 459h362l-469 -748l496 -788h-363l-313 500l-313 -500h-363z" />
    <glyph glyph-name="y" unicode="y" horiz-adv-x="1828" 
d="M1169 -51h-307v551l-616 985h362l408 -651l409 651h363l-619 -985v-551z" />
    <glyph glyph-name="z" unicode="z" horiz-adv-x="1769" 
d="M455 1178v307h1130l-676 -1229h641v-307h-1161l676 1229h-610z" />
    <glyph glyph-name="braceleft" unicode="{" horiz-adv-x="1323" 
d="M612 872v357q0 153 91 275t235 165l49 14l90 -292l-49 -15q-47 -16 -78 -56t-30 -91v-357q0 -84 -27 -155q27 -72 27 -156v-356q0 -51 30 -91t78 -57l49 -14l-90 -293l-49 14q-143 43 -235 165q-91 122 -91 276v356q0 70 -53 117l-47 39l47 39q53 47 53 116z" />
    <glyph glyph-name="bar" unicode="|" 
d="M860 1690v-1946h-307v1946h307z" />
    <glyph glyph-name="braceright" unicode="}" horiz-adv-x="1320" 
d="M913 205q0 -154 -91 -276t-234 -165l-49 -14l-90 293l49 14q49 17 79 57t29 91v356q0 76 27 156q-27 80 -27 155v357q0 51 -29 91q-30 40 -79 56l-49 15l90 292l49 -14q143 -43 234 -165t91 -275v-357q1 -69 54 -116l47 -39l-47 -39q-53 -47 -54 -117v-356z" />
    <glyph glyph-name="asciitilde" unicode="~" horiz-adv-x="1386" 
d="M1020 600q-143 -43 -272 27q-55 31 -117 10q-29 -8 -53 -27l-37 -32l-131 157l39 33q51 43 120 66q143 43 275 -27q55 -31 117 -10q27 6 51 26l39 33l131 -160l-41 -32q-55 -46 -121 -64z" />
    <glyph glyph-name="exclamdown" unicode="&#xa1;" 
d="M553 1178v307h307v-307h-307zM553 -51v1126h307v-1126h-307z" />
    <glyph glyph-name="cent" unicode="&#xa2;" horiz-adv-x="1611" 
d="M1126 -205h-307v174q-178 51 -294 202t-115 341q0 190 115 341q116 151 294 202v174h307v-174q207 -59 322 -242l-242 -186l-30 41q-78 100 -194 100t-190 -75q-75 -75 -75 -181t75 -181q74 -75 190 -75t194 100l30 41l242 -186q-115 -182 -322 -242v-174z" />
    <glyph glyph-name="sterling" unicode="&#xa3;" horiz-adv-x="1863" 
d="M1618 256v-307h-1126v307h153q23 0 37 15t14 36v51h-204v308h204v409q0 170 120 290t290 120q131 0 236 -76t149 -197l18 -49l-290 -102l-17 49q-25 68 -96 68q-43 0 -73 -30t-29 -73v-409h204v-308h-204v-51q-1 -18 -5 -51h619z" />
    <glyph glyph-name="currency" unicode="&#xa4;" horiz-adv-x="1699" 
d="M952 563q63 0 109 45q45 44 45 108t-45 109t-109 45t-108 -45q-45 -45 -45 -109t45 -108q45 -45 108 -45zM492 716q0 104 45 199l-127 127l217 218l127 -127q199 94 397 0l127 127l217 -218l-127 -127q94 -199 0 -397l127 -127l-217 -217l-127 127q-199 -94 -397 0
l-127 -127l-217 217l127 127q-45 94 -45 198z" />
    <glyph glyph-name="yen" unicode="&#xa5;" horiz-adv-x="2033" 
d="M1630 870v-307h-317l-41 -63v-39h358v-307h-358v-205h-307v205h-359v307h359v39l-39 63h-320v307h127l-385 615h363l407 -651l410 651h362l-385 -615h125z" />
    <glyph glyph-name="brokenbar" unicode="&#xa6;" 
d="M860 563v-819h-307v819h307zM860 1690v-820h-307v820h307z" />
    <glyph glyph-name="section" unicode="&#xa7;" horiz-adv-x="1720" 
d="M758 717q0 -85 60 -145t144 -60t145 60q60 60 60 144t-60 145t-144 61q-85 0 -145 -60t-60 -145zM1475 717q0 -170 -101 -305q49 -98 49 -207q0 -189 -135 -325t-312 -136t-302 100t-160 256l295 105q0 -63 45 -109q44 -46 108 -45q64 0 109 45t45 109q0 14 -2 22
q-74 -23 -151 -22q-213 -1 -363 149t-149 363q0 170 100 305q-49 98 -49 207q0 190 135 325q135 136 313 136t302 -100t159 -257l-295 -104q0 63 -45 108t-108 45t-109 -45t-45 -108q0 -16 2 -23q74 23 152 23q213 1 363 -149t149 -363z" />
    <glyph glyph-name="dieresis" unicode="&#xa8;" horiz-adv-x="1536" 
d="M1331 1741q0 -63 -46 -109t-109 -45q-63 0 -109 45q-45 44 -45 108t45 109t109 45t109 -45q46 -45 46 -108zM717 1741q0 -63 -46 -109q-45 -46 -109 -45q-64 0 -109 45q-45 44 -45 108t45 109t109 45t109 -45q46 -45 46 -108z" />
    <glyph glyph-name="copyright" unicode="&#xa9;" 
d="M715 999q59 0 100 62l68 -51l-9 -11q-63 -84 -157 -84q-95 -1 -155 61t-60 148t60 146t155 61q95 0 166 -94l-68 -49l-8 10q-37 49 -93 49t-93 -36t-37 -87t36 -88t95 -37zM1014 1126q0 127 -90 217q-90 91 -217 91t-217 -90t-91 -218q0 -127 90 -217q89 -90 217 -90
t218 90t90 217zM706 768q-148 0 -254 105t-106 253t106 252q106 106 254 106t253 -105t105 -253t-104 -252q-106 -106 -254 -106z" />
    <glyph glyph-name="ordfeminine" unicode="&#xaa;" horiz-adv-x="1253" 
d="M348 870l381 699l381 -699h-233l-37 68h-222l-36 -68h-234z" />
    <glyph glyph-name="guillemotleft" unicode="&#xab;" horiz-adv-x="1511" 
d="M793 717l344 491l252 -176l-222 -315l222 -316l-252 -176zM328 717l344 491l252 -176l-219 -315l219 -316l-252 -176z" />
    <glyph glyph-name="logicalnot" unicode="&#xac;" horiz-adv-x="1863" 
d="M430 870h1126v-614h-307v307h-819v307z" />
    <glyph glyph-name="registered" unicode="&#xae;" 
d="M647 1028v-110h-82v413h152q63 0 107 -44q44 -43 44 -117t-71 -119l86 -133h-99l-71 110h-66zM647 1110h70q29 0 49 20t20 50t-20 49q-20 20 -49 20h-70v-139zM1014 1126q0 127 -90 217q-90 91 -217 91t-217 -90t-91 -218q0 -127 90 -217q89 -90 217 -90t218 90t90 217z
M1065 1126q0 -148 -104 -254q-105 -104 -253 -104t-255 104q-105 106 -105 254t105 254q106 104 254 104t254 -104q104 -106 104 -254z" />
    <glyph glyph-name="degree" unicode="&#xb0;" horiz-adv-x="1003" 
d="M604 1485q106 0 181 -75t75 -181t-75 -181t-181 -75t-181 75t-75 181t75 181t181 75zM655 1229q0 19 -14 35t-37 16t-37 -15t-14 -35t14 -36t37 -16t37 16t14 35z" />
    <glyph glyph-name="plusminus" unicode="&#xb1;" horiz-adv-x="1740" 
d="M1536 51h-1126v307h1126v-307zM1536 1126v-307h-410v-409h-307v409h-409v307h409v410h307v-410h410z" />
    <glyph glyph-name="twosuperior" unicode="&#xb2;" horiz-adv-x="962" 
d="M614 1264q0 16 -17 16t-17 -16q0 -7 2 -9l10 -24l18 20q4 4 4 13zM596 1485q92 0 163 -71t58 -165q-4 -74 -51 -129l-37 -45h90v-205h-471v70q104 125 176 211l-96 -49l-31 61q-23 49 -22 101q1 90 65 156t156 65z" />
    <glyph glyph-name="threesuperior" unicode="&#xb3;" horiz-adv-x="956" 
d="M569 1110h-26l10 -25l8 -8q15 -8 24 7q9 14 -1 20t-15 6zM391 1485h422v-68l-102 -153q80 -66 80 -164t-65 -164t-144 -66q-80 0 -134 36t-81 93l-19 43l115 68h-101l113 170h-84v205z" />
    <glyph glyph-name="acute" unicode="&#xb4;" horiz-adv-x="1261" 
d="M469 1552l-59 197l585 180l62 -196z" />
    <glyph glyph-name="mu" unicode="&#xb5;" horiz-adv-x="2232" 
d="M1884 -51h-307v1022l-358 -522l-359 522v-1022h-307v1536h326l340 -494l337 494h328v-1536z" />
    <glyph glyph-name="mu" unicode="&#x3bc;" horiz-adv-x="2232" 
d="M1884 -51h-307v1022l-358 -522l-359 522v-1022h-307v1536h326l340 -494l337 494h328v-1536z" />
    <glyph glyph-name="paragraph" unicode="&#xb6;" horiz-adv-x="1761" 
d="M1495 1485v-307h-102v-1229h-615v616q-174 21 -292 151t-118 314t136 320q135 136 325 135h666z" />
    <glyph glyph-name="periodcentered" unicode="&#xb7;" horiz-adv-x="798" 
d="M655 717q0 -63 -45 -109t-108 -45q-63 0 -109 45q-45 44 -45 108t45 109t109 45t108 -45q45 -45 45 -108z" />
    <glyph glyph-name="cedilla" unicode="&#xb8;" horiz-adv-x="870" 
d="M461 51h205v-307h-256v154h51v153z" />
    <glyph glyph-name="onesuperior" unicode="&#xb9;" horiz-adv-x="696" 
d="M553 1485v-615h-205v615h205z" />
    <glyph glyph-name="ordmasculine" unicode="&#xba;" horiz-adv-x="1228" 
d="M717 1485q127 0 217 -90t90 -217t-90 -217q-90 -91 -217 -91t-217 90t-90 218q0 127 90 217t217 90zM819 1178q0 42 -31 72q-30 30 -72 30t-72 -30t-30 -72t30 -73q30 -30 72 -30t72 30t31 73z" />
    <glyph glyph-name="guillemotright" unicode="&#xbb;" horiz-adv-x="1511" 
d="M582 1208l342 -491l-342 -492l-252 176l219 316l-219 315zM1047 1208l342 -491l-342 -492l-252 176l219 316l-219 315z" />
    <glyph glyph-name="onequarter" unicode="&#xbc;" horiz-adv-x="2062" 
d="M1747 477v-205h70v-204h-70v-119h-205v119h-221l121 514l198 -45l-12 -60h119zM1776 1380l-1121 -1480l-204 155l1122 1481zM735 1485v-615h-205v615h205z" />
    <glyph glyph-name="onehalf" unicode="&#xbd;" horiz-adv-x="2058" 
d="M1608 342q0 16 -18 16t-17 -16v-6l2 -2l12 -25l17 21q4 4 4 12zM1368 342q0 90 66 156t156 66t157 -66q66 -66 65 -156v-14q-6 -76 -53 -129l-37 -45h90v-205h-471v69q105 125 177 211l-97 -49l-28 62q-25 45 -25 100zM1776 1380l-1123 -1480l-202 155l1120 1481z
M735 1485v-615h-205v615h205z" />
    <glyph glyph-name="threequarters" unicode="&#xbe;" horiz-adv-x="2093" 
d="M1780 477v-205h67v-204h-67v-119h-205v119h-221l119 514l200 -45l-14 -60h121zM1808 1380l-1122 -1480l-205 155l1123 1481zM674 1110h-27l10 -25l9 -8q14 -8 22 8t-8 23q-2 2 -6 2zM496 1485h422v-68l-103 -153q80 -66 80 -164t-65 -164q-66 -66 -144 -66t-133 36
t-82 93l-18 43l114 68h-100l113 170h-84v205z" />
    <glyph glyph-name="questiondown" unicode="&#xbf;" horiz-adv-x="1439" 
d="M834 -51q-201 0 -344 142q-142 142 -142 343q0 160 92 287t240 176v178h307v-461h-153q-74 0 -126 -52t-52 -127t52 -127t123 -52t121 44t60 112l284 -127q-50 -147 -176 -241t-286 -95zM987 1485v-307h-307v307h307z" />
    <glyph glyph-name="Agrave" unicode="&#xc0;" horiz-adv-x="2222" 
d="M985 512h457l-228 418zM1749 -51l-139 256h-793l-139 -256h-350l886 1620l885 -1620h-350zM1534 1749l-61 -197l-588 181l61 196z" />
    <glyph glyph-name="Aacute" unicode="&#xc1;" horiz-adv-x="2222" 
d="M985 512h457l-228 418zM1749 -51l-139 256h-793l-139 -256h-350l886 1620l885 -1620h-350zM946 1552l-59 197l586 180l61 -196z" />
    <glyph glyph-name="Acircumflex" unicode="&#xc2;" horiz-adv-x="2222" 
d="M987 512h455l-228 418zM1751 -51l-141 256h-791l-139 -256h-350l884 1620l885 -1620h-348zM1538 1749l-59 -197l-265 82l-264 -82l-59 197l323 98z" />
    <glyph glyph-name="Atilde" unicode="&#xc3;" horiz-adv-x="2222" 
d="M987 512h455l-228 418zM1751 -51l-141 256h-791l-139 -256h-350l884 1620l885 -1620h-348zM1440 1602q-143 -43 -273 26q-57 31 -118 10q-23 -4 -52 -26l-39 -33l-129 160l39 30q51 43 121 66q143 43 273 -27q57 -31 118 -10q23 4 52 27l38 33l129 -160l-38 -31
q-51 -42 -121 -65z" />
    <glyph glyph-name="Adieresis" unicode="&#xc4;" horiz-adv-x="2222" 
d="M985 512h455l-228 418zM1749 -51l-141 256h-791l-139 -256h-350l884 1620l887 -1620h-350zM1675 1741q0 -63 -46 -109t-109 -45q-63 0 -109 45q-45 44 -45 108t45 109t109 45t109 -45q46 -45 46 -108zM1061 1741q0 -63 -46 -109q-45 -46 -109 -45q-64 0 -109 45
q-45 44 -45 108t45 109t109 45t109 -45q46 -45 46 -108z" />
    <glyph glyph-name="Aring" unicode="&#xc5;" horiz-adv-x="2222" 
d="M983 512h457l-230 418zM1747 -51l-139 256h-793l-139 -256h-350l884 1622l887 -1622h-350zM1415 1792q0 -86 -59 -145q-58 -59 -144 -59t-145 58q-59 60 -59 146t59 145t145 59t144 -59q59 -59 59 -145z" />
    <glyph glyph-name="AE" unicode="&#xc6;" horiz-adv-x="2760" 
d="M1307 461v641l-351 -641h351zM2433 1178h-819v-461h614v-307h-614v-154h819v-307h-1126v205h-519l-110 -205h-350l837 1536h1268v-307z" />
    <glyph glyph-name="Ccedilla" unicode="&#xc7;" horiz-adv-x="1923" 
d="M1239 -256h-256v154h51v57q-283 39 -474 255t-191 520t225 530t543 225q184 0 345 -82t267 -223l31 -41l-244 -187l-31 41q-137 184 -368 185q-189 0 -325 -136t-136 -325t135 -325t326 -136q231 0 368 184l31 41l244 -186l-31 -41q-193 -256 -510 -299v-211z" />
    <glyph glyph-name="Egrave" unicode="&#xc8;" horiz-adv-x="2007" 
d="M553 -51v1536h1126v-307h-819v-461h615v-307h-615v-154h819v-307h-1126zM1440 1749l-60 -197l-587 181l59 196z" />
    <glyph glyph-name="Eacute" unicode="&#xc9;" horiz-adv-x="2007" 
d="M553 1485h1126v-307h-819v-461h615v-307h-615v-154h819v-307h-1126v1536zM852 1552l-59 197l587 180l60 -196z" />
    <glyph glyph-name="Ecircumflex" unicode="&#xca;" horiz-adv-x="2007" 
d="M553 1485h1126v-307h-819v-461h615v-307h-615v-154h819v-307h-1126v1536zM1440 1749l-60 -197l-264 82l-264 -82l-59 197l323 98z" />
    <glyph glyph-name="Edieresis" unicode="&#xcb;" horiz-adv-x="2007" 
d="M553 -51v1536h1126v-307h-819v-461h615v-307h-615v-154h819v-307h-1126zM1577 1741q0 -63 -45 -109q-44 -46 -108 -45q-64 0 -109 45q-45 44 -45 108t45 109t109 45t108 -45q45 -45 45 -108zM963 1741q0 -63 -45 -109q-44 -46 -108 -45q-64 0 -110 45q-45 44 -45 108
t45 109t109 45t109 -45t45 -108z" />
    <glyph glyph-name="Igrave" unicode="&#xcc;" 
d="M860 1485v-1536h-307v1536h307zM1030 1749l-59 -197l-588 181l59 196z" />
    <glyph glyph-name="Iacute" unicode="&#xcd;" 
d="M860 -51h-307v1536h307v-1536zM442 1552l-59 197l588 180l59 -196z" />
    <glyph glyph-name="Icircumflex" unicode="&#xce;" 
d="M860 -51h-307v1536h307v-1536zM1030 1749l-61 -197l-262 82l-265 -82l-61 197l326 98z" />
    <glyph glyph-name="Idieresis" unicode="&#xcf;" 
d="M860 1485v-1536h-307v1536h307zM1167 1741q0 -63 -45 -109t-108 -45q-63 0 -109 45q-45 44 -45 108t45 109t109 45t108 -45q45 -45 45 -108zM553 1741q0 -63 -45 -109q-44 -46 -108 -45q-64 0 -109 45q-45 44 -45 108t45 109t109 45t108 -45q45 -45 45 -108z" />
    <glyph glyph-name="Eth" unicode="&#xd0;" horiz-adv-x="2150" 
d="M1219 256q190 0 325 135t135 325t-135 326q-135 135 -325 136h-256v-512h204v-308h-204v-102h256zM1219 1485q317 0 542 -225q225 -224 225 -542t-224 -544q-226 -226 -543 -225h-564v409h-204v308h204v819h564z" />
    <glyph glyph-name="Ntilde" unicode="&#xd1;" horiz-adv-x="2232" 
d="M553 1485h82l942 -897v897h307v-1536h-84l-940 897v-897h-307v1536zM1444 1602q-143 -43 -273 26q-57 31 -118 10q-23 -4 -52 -26l-38 -33l-129 160l38 33q59 45 121 63q143 43 273 -27q85 -46 170 17l39 33l129 -160l-39 -31q-51 -42 -121 -65z" />
    <glyph glyph-name="Ograve" unicode="&#xd2;" horiz-adv-x="2027" 
d="M1116 1178q-190 0 -325 -136t-135 -325t134 -325q136 -136 326 -136t326 135q135 135 135 325q1 190 -135 326t-326 136zM1884 717q0 -317 -225 -543t-543 -225q-318 0 -543 225q-225 224 -225 542t225 544t543 225q318 0 543 -225q225 -226 225 -543zM1440 1749
l-60 -197l-587 181l59 196z" />
    <glyph glyph-name="Oacute" unicode="&#xd3;" horiz-adv-x="2027" 
d="M1577 716q0 190 -134 326q-133 136 -325 136t-327 -136t-135 -325t134 -325q136 -136 328 -136t325 135q134 135 134 325zM1884 717q0 -317 -225 -543t-543 -225q-318 0 -543 225q-225 224 -225 542t225 544t543 225q318 0 543 -225q225 -226 225 -543zM854 1552l-61 197
l587 180l60 -196z" />
    <glyph glyph-name="Ocircumflex" unicode="&#xd4;" horiz-adv-x="2027" 
d="M1116 1178q-190 0 -325 -136t-135 -325t134 -325q136 -136 326 -136t326 135q135 135 135 325q1 190 -135 326t-326 136zM1884 717q0 -317 -225 -543t-543 -225q-318 0 -543 225q-225 224 -225 542t225 544t543 225q318 0 543 -225q225 -226 225 -543zM1440 1749
l-60 -197l-264 82l-264 -82l-59 197l323 98z" />
    <glyph glyph-name="Otilde" unicode="&#xd5;" horiz-adv-x="2027" 
d="M1577 716q1 190 -135 326t-328 136t-324 -136q-134 -136 -134 -325t134 -325t325 -136t327 135q135 135 135 325zM1884 717q0 -317 -225 -543t-543 -225q-318 0 -544 225q-224 224 -224 542t224 544t542 225q318 0 545 -225q225 -226 225 -543zM1339 1602
q-141 -43 -272 26q-55 31 -117 10q-27 -6 -51 -26l-39 -33l-131 160l39 33q59 47 123 63q141 43 272 -27q55 -31 117 -10q33 10 53 27l37 33l131 -160l-39 -31q-51 -42 -123 -65z" />
    <glyph glyph-name="Odieresis" unicode="&#xd6;" horiz-adv-x="2027" 
d="M1577 716q1 190 -135 326t-328 136t-324 -136q-134 -136 -134 -325t134 -325t325 -136t327 135q135 135 135 325zM1884 717q0 -317 -225 -543t-543 -225q-318 0 -543 225q-225 224 -225 542t225 544t543 225q318 0 543 -225q225 -226 225 -543zM1577 1741q0 -63 -45 -109
q-44 -46 -108 -45q-64 0 -109 45q-45 44 -45 108t45 109t107 45t109 -45q46 -45 46 -108zM963 1741q0 -63 -45 -109q-44 -46 -108 -45q-64 0 -110 45q-45 44 -45 108t45 109t108 45t109 -45t46 -108z" />
    <glyph glyph-name="multiply" unicode="&#xd7;" horiz-adv-x="1673" 
d="M1249 1223l219 -217l-290 -289l290 -289l-219 -217l-288 289l-289 -289l-217 217l288 289l-288 289l217 217l289 -289z" />
    <glyph glyph-name="Oslash" unicode="&#xd8;" horiz-adv-x="2125" 
d="M1626 717q0 104 -45 198l-614 -614q94 -45 198 -45q190 0 326 135q135 136 135 326zM705 717q0 -104 45 -199l614 615q-94 45 -199 45q-190 0 -325 -136t-135 -325zM1933 717q0 -317 -225 -543t-543 -225q-231 0 -424 127l-155 -156l-217 217l155 156q-127 193 -127 424
q-1 317 225 543t543 225q231 0 424 -127l156 155l217 -217l-156 -155q127 -193 127 -424z" />
    <glyph glyph-name="Ugrave" unicode="&#xd9;" horiz-adv-x="2150" 
d="M1843 1485v-871q1 -274 -195 -470t-470 -196t-470 196t-196 470v871h307v-871q1 -150 105 -254t254 -104t254 104t104 254v871h307zM1501 1749l-59 -197l-588 181l59 196z" />
    <glyph glyph-name="Uacute" unicode="&#xda;" horiz-adv-x="2150" 
d="M1843 614q1 -274 -195 -470t-470 -196t-470 196t-196 470v871h307v-871q1 -150 105 -254t254 -104t254 104t104 254v871h307v-871zM913 1552l-59 197l588 180l59 -196z" />
    <glyph glyph-name="Ucircumflex" unicode="&#xdb;" horiz-adv-x="2150" 
d="M1843 614q1 -274 -195 -470t-471 -196t-470 196t-195 470v871h307v-871q1 -150 105 -254t252 -104t255 104q105 104 105 254v871h307v-871zM1501 1749l-61 -197l-262 82l-265 -82l-59 197l324 98z" />
    <glyph glyph-name="Udieresis" unicode="&#xdc;" horiz-adv-x="2150" 
d="M1843 1485v-871q-1 -274 -195 -470t-469 -196t-471 196t-196 470v871h307v-871q-1 -150 105 -254t255 -104t253 104t104 254v871h307zM1638 1741q0 -63 -45 -109t-108 -45q-63 0 -109 45q-45 44 -45 108t45 109q44 45 108 45t109 -45t45 -108zM1024 1741q0 -63 -45 -109
t-109 -45q-64 0 -108 45q-45 44 -45 108t45 109q44 45 108 45t109 -45t45 -108z" />
    <glyph glyph-name="Yacute" unicode="&#xdd;" horiz-adv-x="1828" 
d="M1169 -51h-307v551l-616 985h362l408 -651l409 651h363l-619 -985v-551zM754 1552l-62 197l588 180l59 -196z" />
    <glyph glyph-name="Thorn" unicode="&#xde;" horiz-adv-x="1904" 
d="M1116 461q106 0 181 75t75 181t-75 181t-181 75h-256v-512h256zM1116 1280q233 0 398 -165t165 -398t-165 -399t-398 -164h-256v-205h-307v1536h307v-205h256z" />
    <glyph glyph-name="germandbls" unicode="&#xdf;" horiz-adv-x="1822" 
d="M553 -51v1075q0 190 135 326q136 136 326 135q190 0 325 -135q135 -136 135 -326t-135 -326q-45 -45 -45 -108t45 -109q135 -135 136 -325v-207h-308v207q0 63 -45 108q-135 136 -135 326t135 325q45 45 45 109t-45 108q-45 46 -108 46q-62 0 -108 -45t-46 -109v-1075
h-307z" />
    <glyph glyph-name="agrave" unicode="&#xe0;" horiz-adv-x="2222" 
d="M985 512h457l-228 418zM1749 -51l-139 256h-793l-139 -256h-350l886 1620l885 -1620h-350zM1534 1749l-61 -197l-588 181l61 196z" />
    <glyph glyph-name="aacute" unicode="&#xe1;" horiz-adv-x="2222" 
d="M985 512h457l-228 418zM1749 -51l-139 256h-793l-139 -256h-350l886 1620l885 -1620h-350zM946 1552l-59 197l586 180l61 -196z" />
    <glyph glyph-name="acircumflex" unicode="&#xe2;" horiz-adv-x="2222" 
d="M987 512h455l-228 418zM1751 -51l-141 256h-791l-139 -256h-350l884 1620l885 -1620h-348zM1538 1749l-59 -197l-265 82l-264 -82l-59 197l323 98z" />
    <glyph glyph-name="atilde" unicode="&#xe3;" horiz-adv-x="2222" 
d="M987 512h455l-228 418zM1751 -51l-141 256h-791l-139 -256h-350l884 1620l885 -1620h-348zM1440 1602q-143 -43 -273 26q-57 31 -118 10q-23 -4 -52 -26l-39 -33l-129 160l39 30q51 43 121 66q143 43 273 -27q57 -31 118 -10q23 4 52 27l38 33l129 -160l-38 -31
q-51 -42 -121 -65z" />
    <glyph glyph-name="adieresis" unicode="&#xe4;" horiz-adv-x="2222" 
d="M985 512h455l-228 418zM1749 -51l-141 256h-791l-139 -256h-350l884 1620l887 -1620h-350zM1675 1741q0 -63 -46 -109t-109 -45q-63 0 -109 45q-45 44 -45 108t45 109t109 45t109 -45q46 -45 46 -108zM1061 1741q0 -63 -46 -109q-45 -46 -109 -45q-64 0 -109 45
q-45 44 -45 108t45 109t109 45t109 -45q46 -45 46 -108z" />
    <glyph glyph-name="aring" unicode="&#xe5;" horiz-adv-x="2222" 
d="M983 512h457l-230 418zM1747 -51l-139 256h-793l-139 -256h-350l884 1622l887 -1622h-350zM1415 1792q0 -86 -59 -145q-58 -59 -144 -59t-145 58q-59 60 -59 146t59 145t145 59t144 -59q59 -59 59 -145z" />
    <glyph glyph-name="ae" unicode="&#xe6;" horiz-adv-x="2760" 
d="M1307 461v641l-351 -641h351zM2433 1178h-819v-461h614v-307h-614v-154h819v-307h-1126v205h-519l-110 -205h-350l837 1536h1268v-307z" />
    <glyph glyph-name="ccedilla" unicode="&#xe7;" horiz-adv-x="1923" 
d="M1239 -256h-256v154h51v57q-283 39 -474 255t-191 520t225 530t543 225q184 0 345 -82t267 -223l31 -41l-244 -187l-31 41q-137 184 -368 185q-189 0 -325 -136t-136 -325t135 -325t326 -136q231 0 368 184l31 41l244 -186l-31 -41q-193 -256 -510 -299v-211z" />
    <glyph glyph-name="egrave" unicode="&#xe8;" horiz-adv-x="2007" 
d="M553 -51v1536h1126v-307h-819v-461h615v-307h-615v-154h819v-307h-1126zM1440 1749l-60 -197l-587 181l59 196z" />
    <glyph glyph-name="eacute" unicode="&#xe9;" horiz-adv-x="2007" 
d="M553 1485h1126v-307h-819v-461h615v-307h-615v-154h819v-307h-1126v1536zM852 1552l-59 197l587 180l60 -196z" />
    <glyph glyph-name="ecircumflex" unicode="&#xea;" horiz-adv-x="2007" 
d="M553 1485h1126v-307h-819v-461h615v-307h-615v-154h819v-307h-1126v1536zM1440 1749l-60 -197l-264 82l-264 -82l-59 197l323 98z" />
    <glyph glyph-name="edieresis" unicode="&#xeb;" horiz-adv-x="2007" 
d="M553 -51v1536h1126v-307h-819v-461h615v-307h-615v-154h819v-307h-1126zM1577 1741q0 -63 -45 -109q-44 -46 -108 -45q-64 0 -109 45q-45 44 -45 108t45 109t109 45t108 -45q45 -45 45 -108zM963 1741q0 -63 -45 -109q-44 -46 -108 -45q-64 0 -110 45q-45 44 -45 108
t45 109t109 45t109 -45t45 -108z" />
    <glyph glyph-name="igrave" unicode="&#xec;" horiz-adv-x="1157" 
d="M860 1485v-1536h-307v1536h307zM1030 1749l-59 -197l-588 181l59 196z" />
    <glyph glyph-name="iacute" unicode="&#xed;" 
d="M860 -51h-307v1536h307v-1536zM442 1552l-59 197l588 180l59 -196z" />
    <glyph glyph-name="icircumflex" unicode="&#xee;" 
d="M860 -51h-307v1536h307v-1536zM1030 1749l-61 -197l-262 82l-265 -82l-61 197l326 98z" />
    <glyph glyph-name="idieresis" unicode="&#xef;" 
d="M860 1485v-1536h-307v1536h307zM1167 1741q0 -63 -45 -109t-108 -45q-63 0 -109 45q-45 44 -45 108t45 109t109 45t108 -45q45 -45 45 -108zM553 1741q0 -63 -45 -109q-44 -46 -108 -45q-64 0 -109 45q-45 44 -45 108t45 109t109 45t108 -45q45 -45 45 -108z" />
    <glyph glyph-name="eth" unicode="&#xf0;" horiz-adv-x="2150" 
d="M1219 256q190 0 325 135t135 325t-135 326q-135 135 -325 136h-256v-512h204v-308h-204v-102h256zM1219 1485q317 0 542 -225q225 -224 225 -542t-224 -544q-226 -226 -543 -225h-564v409h-204v308h204v819h564z" />
    <glyph glyph-name="ntilde" unicode="&#xf1;" horiz-adv-x="2232" 
d="M553 1485h82l942 -897v897h307v-1536h-84l-940 897v-897h-307v1536zM1444 1602q-143 -43 -273 26q-57 31 -118 10q-23 -4 -52 -26l-38 -33l-129 160l38 33q59 45 121 63q143 43 273 -27q85 -46 170 17l39 33l129 -160l-39 -31q-51 -42 -121 -65z" />
    <glyph glyph-name="ograve" unicode="&#xf2;" horiz-adv-x="2027" 
d="M1116 1178q-190 0 -325 -136t-135 -325t134 -325q136 -136 326 -136t326 135q135 135 135 325q1 190 -135 326t-326 136zM1884 717q0 -317 -225 -543t-543 -225q-318 0 -543 225q-225 224 -225 542t225 544t543 225q318 0 543 -225q225 -226 225 -543zM1440 1749
l-60 -197l-587 181l59 196z" />
    <glyph glyph-name="oacute" unicode="&#xf3;" horiz-adv-x="2027" 
d="M1577 716q0 190 -134 326q-133 136 -325 136t-327 -136t-135 -325t134 -325q136 -136 328 -136t325 135q134 135 134 325zM1884 717q0 -317 -225 -543t-543 -225q-318 0 -543 225q-225 224 -225 542t225 544t543 225q318 0 543 -225q225 -226 225 -543zM854 1552l-61 197
l587 180l60 -196z" />
    <glyph glyph-name="ocircumflex" unicode="&#xf4;" horiz-adv-x="2027" 
d="M1116 1178q-190 0 -325 -136t-135 -325t134 -325q136 -136 326 -136t326 135q135 135 135 325q1 190 -135 326t-326 136zM1884 717q0 -317 -225 -543t-543 -225q-318 0 -543 225q-225 224 -225 542t225 544t543 225q318 0 543 -225q225 -226 225 -543zM1440 1749
l-60 -197l-264 82l-264 -82l-59 197l323 98z" />
    <glyph glyph-name="otilde" unicode="&#xf5;" horiz-adv-x="2027" 
d="M1577 716q1 190 -135 326t-328 136t-324 -136q-134 -136 -134 -325t134 -325t325 -136t327 135q135 135 135 325zM1884 717q0 -317 -225 -543t-543 -225q-318 0 -544 225q-224 224 -224 542t224 544t542 225q318 0 545 -225q225 -226 225 -543zM1339 1602
q-141 -43 -272 26q-55 31 -117 10q-27 -6 -51 -26l-39 -33l-131 160l39 33q59 47 123 63q141 43 272 -27q55 -31 117 -10q33 10 53 27l37 33l131 -160l-39 -31q-51 -42 -123 -65z" />
    <glyph glyph-name="odieresis" unicode="&#xf6;" horiz-adv-x="2027" 
d="M1577 716q1 190 -135 326t-328 136t-324 -136q-134 -136 -134 -325t134 -325t325 -136t327 135q135 135 135 325zM1884 717q0 -317 -225 -543t-543 -225q-318 0 -543 225q-225 224 -225 542t225 544t543 225q318 0 543 -225q225 -226 225 -543zM1577 1741q0 -63 -45 -109
q-44 -46 -108 -45q-64 0 -109 45q-45 44 -45 108t45 109t107 45t109 -45q46 -45 46 -108zM963 1741q0 -63 -45 -109q-44 -46 -108 -45q-64 0 -110 45q-45 44 -45 108t45 109t108 45t109 -45t46 -108z" />
    <glyph glyph-name="divide" unicode="&#xf7;" horiz-adv-x="1740" 
d="M768 307q0 85 59 145t145 60t146 -59t60 -145t-60 -146t-145 -60t-145 60t-60 145zM1536 870v-307h-1126v307h1126zM973 922q-86 0 -146 59q-59 59 -59 145t59 146t145 59q86 0 146 -59q60 -60 60 -146t-60 -145t-145 -59z" />
    <glyph glyph-name="oslash" unicode="&#xf8;" horiz-adv-x="2125" 
d="M1626 717q0 104 -45 198l-614 -614q94 -45 198 -45q190 0 326 135q135 136 135 326zM705 717q0 -104 45 -199l614 615q-94 45 -199 45q-190 0 -325 -136t-135 -325zM1933 717q0 -317 -225 -543t-543 -225q-231 0 -424 127l-155 -156l-217 217l155 156q-127 193 -127 424
q-1 317 225 543t543 225q231 0 424 -127l156 155l217 -217l-156 -155q127 -193 127 -424z" />
    <glyph glyph-name="ugrave" unicode="&#xf9;" horiz-adv-x="2150" 
d="M1843 1485v-871q1 -274 -195 -470t-470 -196t-470 196t-196 470v871h307v-871q1 -150 105 -254t254 -104t254 104t104 254v871h307zM1501 1749l-59 -197l-588 181l59 196z" />
    <glyph glyph-name="uacute" unicode="&#xfa;" horiz-adv-x="2150" 
d="M1843 614q1 -274 -195 -470t-470 -196t-470 196t-196 470v871h307v-871q1 -150 105 -254t254 -104t254 104t104 254v871h307v-871zM913 1552l-59 197l588 180l59 -196z" />
    <glyph glyph-name="ucircumflex" unicode="&#xfb;" horiz-adv-x="2150" 
d="M1843 614q1 -274 -195 -470t-471 -196t-470 196t-195 470v871h307v-871q1 -150 105 -254t252 -104t255 104q105 104 105 254v871h307v-871zM1501 1749l-61 -197l-262 82l-265 -82l-59 197l324 98z" />
    <glyph glyph-name="udieresis" unicode="&#xfc;" horiz-adv-x="2150" 
d="M1843 1485v-871q-1 -274 -195 -470t-469 -196t-471 196t-196 470v871h307v-871q-1 -150 105 -254t255 -104t253 104t104 254v871h307zM1638 1741q0 -63 -45 -109t-108 -45q-63 0 -109 45q-45 44 -45 108t45 109q44 45 108 45t109 -45t45 -108zM1024 1741q0 -63 -45 -109
t-109 -45q-64 0 -108 45q-45 44 -45 108t45 109q44 45 108 45t109 -45t45 -108z" />
    <glyph glyph-name="yacute" unicode="&#xfd;" horiz-adv-x="1828" 
d="M1169 -51h-307v551l-616 985h362l408 -651l409 651h363l-619 -985v-551zM754 1552l-62 197l588 180l59 -196z" />
    <glyph glyph-name="thorn" unicode="&#xfe;" horiz-adv-x="1904" 
d="M1116 461q106 0 181 75t75 181t-75 181t-181 75h-256v-512h256zM1116 1280q233 0 398 -165t165 -398t-165 -399t-398 -164h-256v-205h-307v1536h307v-205h256z" />
    <glyph glyph-name="ydieresis" unicode="&#xff;" horiz-adv-x="1828" 
d="M1169 -51h-307v551l-616 985h362l408 -651l409 651h363l-619 -985v-551zM1479 1741q0 -63 -46 -109q-45 -46 -109 -45q-64 0 -110 45q-45 44 -45 108t45 109t109 45t110 -45t46 -108zM864 1741q0 -63 -46 -109t-109 -45q-63 0 -109 45q-45 44 -45 108t45 109
q44 45 108 45t110 -45t46 -108z" />
    <glyph glyph-name="dotlessi" unicode="&#x131;" 
d="M860 1485v-1536h-307v1536h307z" />
    <glyph glyph-name="Lslash" unicode="&#x141;" horiz-adv-x="2048" 
d="M1024 256h819v-307h-1126v563l-205 -61v319l205 61v654h307v-563l205 61v-319l-205 -62v-346z" />
    <glyph glyph-name="lslash" unicode="&#x142;" horiz-adv-x="2048" 
d="M1024 256h819v-307h-1126v563l-205 -61v319l205 61v654h307v-563l205 61v-319l-205 -62v-346z" />
    <glyph glyph-name="OE" unicode="&#x152;" horiz-adv-x="2672" 
d="M1116 256h103v922h-103q-190 0 -325 -136t-135 -325t134 -325q136 -136 326 -136zM2345 1178h-819v-461h614v-307h-614v-154h819v-307h-1229q-317 0 -543 225q-225 224 -225 542t225 544t543 225h1229v-307z" />
    <glyph glyph-name="oe" unicode="&#x153;" horiz-adv-x="2672" 
d="M1116 256h103v922h-103q-190 0 -325 -136t-135 -325t134 -325q136 -136 326 -136zM2345 1178h-819v-461h614v-307h-614v-154h819v-307h-1229q-317 0 -543 225q-225 224 -225 542t225 544t543 225h1229v-307z" />
    <glyph glyph-name="Scaron" unicode="&#x160;" horiz-adv-x="1597" 
d="M911 870q189 0 325 -135t136 -325t-135 -326t-313 -135q-178 0 -302 100t-159 256l295 105q0 -62 45 -108t108 -46t109 45q45 45 45 109t-45 108q-45 45 -109 45q-190 0 -325 135q-135 136 -135 326t135 326t312 135t302 -101t160 -256l-295 -104q0 62 -45 108
q-44 46 -108 46t-109 -45t-45 -109t45 -108q45 -46 108 -46zM1176 1847l59 -194l-324 -101l-323 101l59 194l264 -80z" />
    <glyph glyph-name="scaron" unicode="&#x161;" horiz-adv-x="1597" 
d="M911 870q189 0 325 -135t136 -325t-135 -326t-313 -135q-178 0 -302 100t-159 256l295 105q0 -62 45 -108t108 -46t109 45q45 45 45 109t-45 108q-45 45 -109 45q-190 0 -325 135q-135 136 -135 326t135 326t312 135t302 -101t160 -256l-295 -104q0 62 -45 108
q-44 46 -108 46t-109 -45t-45 -109t45 -108q45 -46 108 -46zM1176 1847l59 -194l-324 -101l-323 101l59 194l264 -80z" />
    <glyph glyph-name="Ydieresis" unicode="&#x178;" horiz-adv-x="1828" 
d="M1169 -51h-307v551l-616 985h362l408 -651l409 651h363l-619 -985v-551zM1479 1741q0 -63 -46 -109q-45 -46 -109 -45q-64 0 -110 45q-45 44 -45 108t45 109t109 45t110 -45t46 -108zM864 1741q0 -63 -46 -109t-109 -45q-63 0 -109 45q-45 44 -45 108t45 109
q44 45 108 45t110 -45t46 -108z" />
    <glyph glyph-name="Zcaron" unicode="&#x17d;" horiz-adv-x="1769" 
d="M455 1178v307h1130l-676 -1229h641v-307h-1161l676 1229h-610zM1266 1847l61 -194l-323 -101l-324 101l59 194l265 -80z" />
    <glyph glyph-name="zcaron" unicode="&#x17e;" horiz-adv-x="1769" 
d="M455 1178v307h1130l-676 -1229h641v-307h-1161l676 1229h-610zM1266 1847l61 -194l-323 -101l-324 101l59 194l265 -80z" />
    <glyph glyph-name="florin" unicode="&#x192;" horiz-adv-x="1585" 
d="M1112 1180l-29 -207h267l-41 -307h-267l-63 -457q-20 -147 -138 -237q-119 -90 -257 -70q-138 18 -225 114t-93 224l299 61l13 -53q4 -33 43 -41q20 -2 36 10t21 33l57 416h-205l43 307h203l35 250q20 145 139 235t256 71q136 -19 224 -115t94 -222l-299 -62l-11 52
q-6 37 -43 41q-23 5 -40 -9t-19 -34z" />
    <glyph glyph-name="circumflex" unicode="&#x2c6;" horiz-adv-x="1261" 
d="M1057 1749l-60 -197l-264 82l-264 -82l-59 197l323 98z" />
    <glyph glyph-name="caron" unicode="&#x2c7;" horiz-adv-x="1261" 
d="M995 1847l62 -194l-324 -101l-323 101l59 194l264 -80z" />
    <glyph glyph-name="dotaccent" unicode="&#x2d9;" horiz-adv-x="921" 
d="M717 1741q0 -63 -45 -109q-44 -46 -108 -45q-64 0 -109 45q-45 44 -45 108t45 109t109 45t108 -45q45 -45 45 -108z" />
    <glyph glyph-name="ring" unicode="&#x2da;" horiz-adv-x="1028" 
d="M821 1792q0 -86 -59 -145q-60 -59 -146 -59t-145 58q-59 60 -59 146t59 145t145 59t146 -59q59 -59 59 -145z" />
    <glyph glyph-name="tilde" unicode="&#x2dc;" horiz-adv-x="1384" 
d="M1020 1602q-143 -43 -275 26q-53 31 -116 10q-23 -4 -51 -26l-39 -33l-129 160l39 30q51 43 120 66q143 43 273 -27q57 -31 119 -10q23 4 51 27l39 33l129 -160l-39 -31q-51 -42 -121 -65z" />
    <glyph glyph-name="endash" unicode="&#x2013;" horiz-adv-x="1740" 
d="M1536 870v-307h-1126v307h1126z" />
    <glyph glyph-name="emdash" unicode="&#x2014;" horiz-adv-x="2764" 
d="M2560 870v-307h-2150v307h2150z" />
    <glyph glyph-name="quoteleft" unicode="&#x2018;" horiz-adv-x="921" 
d="M717 1485v-512h-307v268l120 244h187z" />
    <glyph glyph-name="quoteright" unicode="&#x2019;" horiz-adv-x="921" 
d="M410 973v512h307v-268l-123 -244h-184z" />
    <glyph glyph-name="quotesinglbase" unicode="&#x201a;" horiz-adv-x="921" 
d="M410 -256v512h307v-268l-123 -244h-184z" />
    <glyph glyph-name="quotedblleft" unicode="&#x201c;" horiz-adv-x="1331" 
d="M717 1485v-512h-307v268l120 244h187zM1126 1485v-512h-307v268l121 244h186z" />
    <glyph glyph-name="quotedblright" unicode="&#x201d;" horiz-adv-x="1331" 
d="M410 973v512h307v-268l-121 -244h-186zM819 973v512h307v-268l-120 -244h-187z" />
    <glyph glyph-name="quotedblbase" unicode="&#x201e;" horiz-adv-x="1331" 
d="M410 -256v512h307v-268l-121 -244h-186zM819 -256v512h307v-268l-120 -244h-187z" />
    <glyph glyph-name="dagger" unicode="&#x2020;" horiz-adv-x="1536" 
d="M1331 1178v-308h-307v-921h-307v921h-307v308h307v307h307v-307h307z" />
    <glyph glyph-name="daggerdbl" unicode="&#x2021;" horiz-adv-x="1536" 
d="M1331 870h-307v-307h307v-307h-307v-307h-307v307h-307v307h307v307h-307v308h307v307h307v-307h307v-308z" />
    <glyph glyph-name="bullet" unicode="&#x2022;" horiz-adv-x="1126" 
d="M666 973q106 0 181 -75t75 -181t-75 -181t-181 -75t-182 75q-75 75 -74 181q0 106 74 181q76 75 182 75z" />
    <glyph glyph-name="ellipsis" unicode="&#x2026;" horiz-adv-x="2048" 
d="M1843 256v-307h-307v307h307zM1280 256v-307h-307v307h307zM717 256v-307h-307v307h307z" />
    <glyph glyph-name="perthousand" unicode="&#x2030;" horiz-adv-x="2844" 
d="M1559 563q127 0 217 -90t90 -217t-90 -217t-217 -90t-218 90q-90 90 -90 217t90 217q91 90 218 90zM1661 256q0 43 -30 73q-29 29 -71 29t-73 -30t-31 -72q0 -43 31 -73q31 -29 73 -29t72 30t29 72zM2292 563q127 0 217 -90t90 -217t-90 -217t-217 -90t-217 90t-90 217
t90 217t217 90zM2394 256q0 43 -30 73q-30 29 -72 29t-72 -30q-31 -30 -31 -72q0 -43 31 -73q31 -29 73 -29q41 0 71 30t30 72zM1806 1380l-1122 -1480l-205 155l1123 1481zM760 1485q127 0 217 -90t90 -217t-90 -217q-90 -91 -217 -91t-217 90t-90 218q0 127 90 217t217 90
zM862 1178q0 42 -31 72t-73 30t-71 -30q-30 -30 -30 -72t30 -73q30 -30 72 -30q43 0 73 30t30 73z" />
    <glyph glyph-name="guilsinglleft" unicode="&#x2039;" horiz-adv-x="1046" 
d="M328 717l344 491l252 -176l-222 -315l222 -316l-252 -176z" />
    <glyph glyph-name="guilsinglright" unicode="&#x203a;" horiz-adv-x="1046" 
d="M582 1208l342 -491l-342 -492l-252 176l219 316l-219 315z" />
    <glyph glyph-name="fraction" unicode="&#x2044;" horiz-adv-x="1652" 
d="M1591 1380l-1122 -1480l-203 155l1123 1481z" />
    <glyph glyph-name="Euro" unicode="&#x20ac;" horiz-adv-x="2127" 
d="M1325 -51q-201 -1 -383 111t-280 298h-293l75 308h131q-2 16 -2 51t2 51h-169l75 307h181q98 186 280 298t382 112t362 -82t268 -223l31 -41l-244 -187l-31 41q-137 184 -369 185q-164 0 -288 -103h252l-78 -307h-344q-2 -16 -2 -51t2 -51h385l-78 -308h-137
q125 -102 288 -102q232 0 369 184l31 41l244 -186l-31 -41q-106 -141 -267 -223t-362 -82z" />
    <glyph glyph-name="afii61352" unicode="&#x2116;" horiz-adv-x="3063" 
d="M2396 971q-47 0 -81 -34t-34 -81t34 -81t81 -34t81 34t34 81t-34 81t-81 34zM2818 856q0 -176 -123 -299t-299 -123t-299 123t-123 299t123 299t299 123t299 -123t123 -299zM2695 389v-307h-629v307h629zM389 168l76 -4q48 0 106 20t116 94q58 75 92 176q78 233 101 495
q22 262 20 353q-3 91 -2 111t1 23l281 53l356 -868q117 825 250 1036l262 -154q-92 -195 -167 -633t-109 -915l-277 -41l-334 811q-139 -868 -706 -868l-66 2v309z" />
    <glyph glyph-name="trademark" unicode="&#x2122;" horiz-adv-x="1384" 
d="M348 1300v185h600l64 -92l63 92h166v-514h-184v159l-45 -65l-45 65v-159h-185v329h-112v-329h-185v329h-137z" />
    <glyph glyph-name="minus" unicode="&#x2212;" horiz-adv-x="1740" 
d="M1536 870v-307h-1126v307h1126z" />
    </font>
</defs>
</svg>
