<?xml version="1.0" standalone="no"?>
<!DOCTYPE svg PUBLIC "-//W3C//DTD SVG 1.1//EN" "http://www.w3.org/Graphics/SVG/1.1/DTD/svg11.dtd" >
<svg xmlns="http://www.w3.org/2000/svg">
<metadata>
Created by FontPrep 20130207 at Sun Oct 22 21:51:18 2017
 By Nam Dang
Copyright (c) 2012 by Juri Zaech. All rights reserved.
</metadata>
<defs>
<font id="16f3f3645add2ecc0fd2acec1d6d6e34" horiz-adv-x='1024' >
  <font-face 
    font-family="Frontage-3D"
    font-weight="400"
    font-stretch="normal"
    units-per-em="2048"
    panose-1="2 0 5 5 0 0 0 2 0 4"
    ascent="1536"
    descent="-512"
    x-height="1485"
    cap-height="1485"
    bbox="-256 -614 2818 1996"
    underline-thickness="102"
    underline-position="-102"
    unicode-range="U+0020-2212"
  />
<missing-glyph horiz-adv-x="1431" 
 />
    <glyph glyph-name=".notdef" horiz-adv-x="1431" 
 />
    <glyph glyph-name=".null" horiz-adv-x="0" 
 />
    <glyph glyph-name="nonmarkingreturn" horiz-adv-x="681" 
 />
    <glyph glyph-name="space" unicode=" " horiz-adv-x="1126" 
 />
    <glyph glyph-name="exclam" unicode="!" 
d="M809 0v205h-205v-205h205zM809 406v1028h-205v-1028h205zM860 1485v-1127l-102 -102h102v-307l-205 -205h-307v307l103 103h-103v1126l205 205h307z" />
    <glyph glyph-name="quotedbl" unicode="&#x22;" horiz-adv-x="1382" 
d="M1126 1024v410h-204v-410h204zM666 1024v410h-205v-410h205zM1178 1485v-512l-205 -205h-307v154l-154 -154h-307v512l205 205h307v-154l153 154h308z" />
    <glyph glyph-name="numbersign" unicode="#" horiz-adv-x="2048" 
d="M1210 563h-241l73 307h242zM1690 870l49 205h-195l86 359h-211l-86 -359h-241l86 359h-211l-86 -359h-195l-49 -205h194l-73 -307h-195l-49 -205h195l-86 -358h211l86 358h241l-88 -358h211l86 358h195l51 205h-195l74 307h195zM1729 819l-205 -205h155l-75 -307
l-205 -205h-37l-37 -153l-205 -205h-315l43 180l-180 -180h-316l86 358h-192l73 308l205 204h-155l73 308l205 204h39l37 154l205 205h315l-43 -180l180 180h316l-86 -359h192z" />
    <glyph glyph-name="dollar" unicode="$" horiz-adv-x="1597" 
d="M1321 424q0 154 -120 274t-290 121q-84 1 -144 61t-60 144t60 144t135 60t127 -37q52 -38 75 -99l192 69q-35 96 -109 165q-75 69 -173 95v164h-205v-164q-133 -35 -220 -145t-87 -266t120 -276t289 -120q85 0 145 -60t60 -144t-60 -144t-136 -61q-76 0 -128 38t-73 99
l-195 -70q35 -96 110 -164t175 -96v-174h205v174q133 35 220 146q87 112 87 266zM846 885q-25 49 -74 73q25 -48 74 -73zM772 344q25 -49 74 -74q-25 49 -74 74zM553 -410v181q-111 39 -189 127t-106 202l205 205l168 60q-166 29 -276 157q-109 128 -109 307q0 180 135 316
l172 172v117l205 204h307v-180q111 -39 189 -127t106 -203l-205 -204l-168 -60q166 -28 276 -156q109 -128 109 -308t-135 -316l-172 -172v-117l-205 -205h-307z" />
    <glyph glyph-name="percent" unicode="%" horiz-adv-x="2111" 
d="M1559 410q63 0 108 -45t45 -109t-45 -108q-45 -46 -108 -46t-109 45q-45 45 -45 109t45 109q46 45 109 45zM1815 256q0 106 -75 181t-181 75q-105 0 -181 -75t-76 -181t76 -181q74 -75 180 -75t182 75q75 75 75 181zM1354 -256q-127 0 -217 90t-90 217t90 217l204 205
q89 90 217 90t218 -90t90 -217t-90 -217l-205 -205q-90 -90 -217 -90zM674 -29l1059 1399l-123 94l-1059 -1401zM1804 1380l-1122 -1480l-205 -205l-203 155l1123 1481l205 205zM758 1331q63 0 108 -45t45 -108q0 -62 -45 -108t-108 -46t-109 45q-45 45 -45 109t45 108
q46 45 109 45zM1014 1178q0 106 -75 181t-181 75t-181 -75t-75 -181t75 -182t181 -74q106 0 181 75t75 181zM553 666q-127 0 -217 90t-90 217t90 217l205 205q90 90 217 90t217 -90t90 -217t-90 -217l-205 -205q-90 -90 -217 -90z" />
    <glyph glyph-name="ampersand" unicode="&#x26;" horiz-adv-x="1966" 
d="M821 1126q0 42 30 73q30 30 73 30q42 0 72 -30t30 -73t-29 -71l-73 -74l-72 74q-31 29 -31 71zM1231 1126q0 127 -90 217q-90 91 -217 91t-216 -90q-90 -90 -90 -218q0 -127 89 -217l73 -71l-139 -140q-121 -120 -121 -288t121 -289t291 -121t289 121l137 137l186 -186
l146 145l-187 184l187 187l-146 145l-186 -186l-289 291l72 71q90 90 90 217zM932 205q-86 0 -146 59q-59 60 -59 146t59 145l138 137l290 -291l-137 -137q-59 -59 -145 -59zM728 -256q-190 0 -327 135q-135 135 -135 325t135 326l101 103l-35 35q-107 106 -107 254t105 254
h2l205 204q104 104 252 104t254 -104q104 -106 104 -254t-104 -254l-37 -34l217 -220l186 187l217 -217l-184 -187l184 -184l-422 -422l-186 185l-100 -101q-135 -135 -325 -135z" />
    <glyph glyph-name="quotesingle" unicode="'" horiz-adv-x="921" 
d="M666 1024v410h-205v-410h205zM717 1485v-512l-205 -205h-307v512l205 205h307z" />
    <glyph glyph-name="parenleft" unicode="(" horiz-adv-x="1122" 
d="M463 717q0 -410 205 -768l178 102q-178 311 -178 665t178 666l-178 103q-205 -358 -205 -768zM717 717q0 -371 201 -684l-205 -205l-267 -154q-242 383 -241 838q0 455 241 838l205 204l267 -153q-201 -313 -201 -684z" />
    <glyph glyph-name="parenright" unicode=")" horiz-adv-x="1120" 
d="M657 717q0 -360 -178 -666l178 -102q205 352 205 768t-205 768l-178 -103q178 -305 178 -665zM915 717q0 -453 -239 -838l-205 -205l-266 154q199 315 198 684q0 369 -198 684l205 205l266 153q239 -384 239 -837z" />
    <glyph glyph-name="asterisk" unicode="*" horiz-adv-x="2056" 
d="M1233 1434h-205v-539l-467 268l-102 -176l467 -270l-467 -271l102 -176l467 269v-539h205v539l467 -269l102 176l-467 271l467 270l-102 176l-467 -268v539zM772 -256v502l-434 -252l-154 266l205 205l154 90l-359 207l154 266l205 205l229 -131v178l205 205h307v-502
l434 250l154 -266l-205 -205l-156 -88l361 -209l-154 -266l-205 -205l-229 133v-178l-205 -205h-307z" />
    <glyph glyph-name="plus" unicode="+" horiz-adv-x="1740" 
d="M1485 819h-410v410h-205v-410h-409v-205h409v-409h205v409h410v205zM1536 870v-307l-205 -205h-205v-204l-204 -205h-308v409h-409v308l205 204h204v205l205 205h307v-410h410z" />
    <glyph glyph-name="comma" unicode="," horiz-adv-x="921" 
d="M666 205h-205v-410h102l103 205v205zM717 256v-268l-123 -244l-205 -205h-184v512l205 205h307z" />
    <glyph glyph-name="hyphen" unicode="-" 
d="M1014 614v205h-615v-205h615zM1065 870v-307l-205 -205h-717v308l205 204h717z" />
    <glyph glyph-name="period" unicode="." horiz-adv-x="921" 
d="M666 0v205h-205v-205h205zM717 256v-307l-205 -205h-307v307l205 205h307z" />
    <glyph glyph-name="slash" unicode="/" horiz-adv-x="1454" 
d="M514 -47l809 1425l-178 103l-809 -1426zM1393 1399l-861 -1516l-204 -205l-267 152l859 1516l204 204z" />
    <glyph glyph-name="zero" unicode="0" horiz-adv-x="2027" 
d="M1116 1229q211 0 362 -150q150 -151 150 -363t-150 -362t-362 -150t-362 150t-150 363t150 363t362 149zM1833 717q0 297 -210 507t-507 210t-507 -210t-210 -507t210 -507t507 -210t507 210t210 507zM1116 256q109 0 207 49q49 98 49 207q0 190 -135 326t-326 135
q-109 0 -206 -49q-49 -98 -50 -207q-1 -189 135 -325t326 -136zM912 -256q-318 0 -543 225t-225 545t227 543l204 205q223 223 541 223t542 -225q226 -225 226 -543t-225 -543l-205 -205q-224 -225 -542 -225z" />
    <glyph glyph-name="one" unicode="1" 
d="M809 0v1434h-205v-1434h205zM860 1485v-1536l-205 -205h-307v1536l205 205h307z" />
    <glyph glyph-name="two" unicode="2" horiz-adv-x="1718" 
d="M479 971q0 -106 49 -205l185 90q-29 53 -29 115q0 106 75 181t181 75t181 -75t75 -174t-59 -171l-678 -807h942v205h-502l395 471q106 124 106 306t-133 316t-325 134t-328 -134t-135 -327zM1452 256v-307l-205 -205h-1104l750 891q47 53 47 135t-59 142t-146 61
q0 -51 23 -92l22 -47l-205 -205l-274 -137l-22 47q-55 106 -56 229q0 211 150 360l205 205q152 152 362 152t362 -151q150 -152 150 -350t-119 -343l-325 -385h444z" />
    <glyph glyph-name="three" unicode="3" horiz-adv-x="1699" 
d="M567 1434v-205h430l-338 -512h238q106 0 181 -75t75 -181t-75 -181t-181 -75q-70 0 -129 35t-92 92l-178 -103q62 -105 168 -167t231 -62q190 0 326 135q135 135 135 326q0 155 -92 277t-238 165l350 531h-811zM1409 461q0 -207 -147 -359q-16 -18 -102 -103t-103 -103
q-147 -152 -365 -152q-154 0 -278 82t-189 217l205 205l270 155q18 -63 72 -105t125 -42q0 84 -60 144t-145 61h-334l340 512h-387v307l205 205h959l-369 -557q135 -62 219 -188t84 -279z" />
    <glyph glyph-name="four" unicode="4" horiz-adv-x="1832" 
d="M870 614v142l-32 -142h32zM1536 563h-205v615h-205v-615h-354l197 840l-199 47l-256 -1092h612v-358h205v358h205v205zM1587 614v-307l-205 -205v-153l-204 -205h-308v358h-624l280 1205l205 204l299 -69l-98 -422l143 209h307v-615h205z" />
    <glyph glyph-name="five" unicode="5" horiz-adv-x="1716" 
d="M938 922q-84 0 -170 -33l41 340h487v205h-669l-88 -744l192 -78q77 104 195 104t193 -74q75 -75 75 -181t-75 -181t-181 -75q-70 0 -129 35t-92 92l-178 -103q61 -105 167 -167t232 -62q190 0 326 135q135 135 135 325q1 190 -135 326t-326 136zM938 973h-109l-2 -12
q56 12 111 12zM938 973q212 0 362 -151q150 -150 150 -362t-152 -364q-18 -16 -103 -102t-103 -103q-147 -147 -359 -147q-153 0 -279 83t-188 218l205 205l268 156q17 -66 73 -108t126 -42q0 84 -60 144t-145 61q-43 0 -90 -21l-94 -96l-270 109l98 827l205 205h766v-307
l-205 -205h-205z" />
    <glyph glyph-name="six" unicode="6" horiz-adv-x="1679" 
d="M958 717q90 0 165 -75t75 -181t-75 -181t-181 -75t-181 75t-75 181q0 59 27 112q76 144 245 144zM481 461q0 -189 135 -325q136 -136 326 -136t326 135q135 135 135 325t-135 326q-135 135 -326 136q-23 0 -59 -4l237 481l-184 90l-404 -817q-51 -98 -51 -211zM737 465
q1 -84 61 -144t144 -61q0 84 -60 144t-145 61zM737 -252q-213 0 -363 151t-149 361q0 125 58 236l426 860l204 205l275 -136l-221 -448q203 -11 345 -159t142 -357t-149 -359l-205 -204q-150 -150 -363 -150z" />
    <glyph glyph-name="seven" unicode="7" horiz-adv-x="1736" 
d="M502 1434v-205h659l-266 -615h-215v-204h125l-150 -344l187 -82l186 426h215v204h-125l357 820h-973zM1294 666v-308l-204 -204h-117l-105 -238l-204 -205l-281 123l139 320h-98v307l205 205h116l134 307h-633v307l205 205h1101l-356 -819h98z" />
    <glyph glyph-name="eight" unicode="8" horiz-adv-x="1638" 
d="M922 205q-106 0 -182 75q-75 75 -74 181q0 106 74 181q76 75 182 75t181 -75t75 -181t-75 -181t-181 -75zM768 1075q0 63 45 109t109 45q64 0 108 -45q45 -44 45 -108t-45 -109t-108 -45t-109 45q-45 45 -45 108zM1280 1082q0 144 -104 247q-104 105 -254 105t-254 -104
t-104 -248q0 -142 89 -246q-88 -64 -140 -162t-52 -213q0 -189 135 -325q136 -136 326 -136t325 135t135 326q0 115 -52 215t-142 160q92 102 92 246zM717 461q0 -85 60 -145t145 -60q0 84 -60 144t-145 61zM714 -256q-210 0 -360 151t-150 371t175 373q-72 104 -72 231
q0 170 121 291l205 205q119 119 288 119t289 -120t121 -290q0 -127 -71 -231q174 -152 174 -372t-150 -374l-205 -204q-155 -150 -365 -150z" />
    <glyph glyph-name="nine" unicode="9" horiz-adv-x="1597" 
d="M885 717q-90 0 -165 75t-75 181t75 181t181 75t181 -75t75 -181q0 -59 -27 -113q-71 -143 -245 -143zM1362 973q0 190 -135 325q-135 136 -325 136t-326 -136t-136 -325t135 -325t326 -136q18 0 60 4l-238 -481l184 -90l404 817q51 98 51 211zM696 973q0 -85 60 -145
t145 -60q-1 84 -61 144t-144 61zM901 1485q213 0 363 -151t149 -361q0 -125 -57 -236l-426 -860l-205 -205l-274 135l221 449q-205 10 -346 158q-142 148 -142 356q0 207 150 360l205 205q149 150 362 150z" />
    <glyph glyph-name="colon" unicode=":" horiz-adv-x="921" 
d="M666 819v205h-205v-205h205zM717 1075v-307l-205 -205h-307v307l205 205h307zM666 0v205h-205v-205h205zM717 256v-307l-205 -205h-307v307l205 205h307z" />
    <glyph glyph-name="semicolon" unicode=";" horiz-adv-x="921" 
d="M666 819v205h-205v-205h205zM717 1075v-307l-205 -205h-307v307l205 205h307zM666 205h-205v-410h102l103 205v205zM717 256v-268l-123 -244l-205 -205h-184v512l205 205h307z" />
    <glyph glyph-name="less" unicode="&#x3c;" horiz-adv-x="1683" 
d="M502 819v-205l735 -360l90 184l-569 279l569 278l-90 185zM1192 768l-209 -104l414 -203l-137 -277l-205 -204l-809 397v270l205 205l809 397l137 -276z" />
    <glyph glyph-name="equal" unicode="=" horiz-adv-x="1740" 
d="M1485 410v204h-1024v-204h1024zM1485 819v205h-1024v-205h1024zM1536 666v-308l-205 -204h-1126v307l102 102h-102v307l205 205h1126v-307l-102 -102h102z" />
    <glyph glyph-name="greater" unicode="&#x3e;" horiz-adv-x="1683" 
d="M1386 819l-735 361l-90 -185l569 -278l-569 -279l90 -184l735 360v205zM1438 852v-270l-205 -205l-809 -397l-137 276l207 205l208 102l-415 205l137 276l205 205z" />
    <glyph glyph-name="question" unicode="?" horiz-adv-x="1439" 
d="M809 1434q-131 0 -239 -71t-158 -187l188 -82q27 61 84 98t139 37t150 -67q67 -67 67 -163q0 -95 -68 -163t-163 -68h-102v-358h204v165q145 35 240 154q94 119 94 285t-128 292q-128 128 -308 128zM707 0h204v205h-204v-205zM812 1485q200 -1 342 -143t142 -342
t-141 -345l-192 -190v-107l-103 -102h103v-307l-205 -205h-307v307l102 103h-102v460l204 205h127q-10 66 -60 110t-118 44q-14 0 -22 -2l-154 -154l-285 127q33 109 117 193l207 206q145 142 345 142z" />
    <glyph glyph-name="at" unicode="@" horiz-adv-x="2109" 
d="M1055 717q0 43 29 73q30 30 73 30t73 -30t30 -73t-30 -73t-73 -30t-73 30q-29 30 -29 73zM1157 1434q-297 0 -507 -210t-210 -507t210 -507t507 -210q152 0 291 61l-82 187q-106 -43 -209 -43q-211 -1 -361 149t-151 363q0 213 151 363q152 150 362 149q210 0 361 -150
t150 -362q0 -85 -60 -145t-145 -60q-37 0 -67 12q67 84 67 202t-90 208t-217 90t-217 -90t-90 -217t90 -217t217 -90q23 0 35 2q114 -104 278 -104t284 119q120 120 120 290q0 297 -210 507t-507 210zM903 971q-82 -8 -158 -47q-39 -76 -47 -158zM952 -256q-317 0 -542 225
q-226 225 -226 543t226 543q14 16 97 97t107 108q224 225 542 225t544 -225t225 -543q0 -191 -135 -326l-205 -205q-51 -51 -102 -77l33 -72l-205 -205q-170 -88 -359 -88z" />
    <glyph glyph-name="A" unicode="A" horiz-adv-x="2222" 
d="M1124 512l-69 127l-70 -127h139zM1528 461h-629l313 575zM1638 256l142 -256h233l-801 1462l-798 -1462h233l139 256h852zM2099 -51l-205 -205h-350l-141 256h-698l-27 -51l-205 -205h-350l885 1622l204 203z" />
    <glyph glyph-name="B" unicode="B" horiz-adv-x="2109" 
d="M1423 205h-614v409h614q85 0 145 -60t60 -144t-60 -145q-61 -60 -145 -60zM1321 1229q84 -1 144 -61q61 -60 61 -144t-60 -144t-145 -61h-512v410h512zM1321 1434h-717v-1434h819q170 0 290 120t120 290q-1 111 -55 203t-144 147q96 116 96 274t-119 279
q-120 121 -290 121zM858 256h506q-16 45 -56 74t-89 28l-179 -2q-180 0 -182 2v-102zM1116 973h-256v-103h402q-16 45 -56 74t-90 29zM1219 -256h-871v1536l205 205h768q189 0 325 -135t136 -326q0 -137 -74 -252q176 -139 176 -362q0 -191 -135 -326q-16 -16 -101 -103
t-104 -104q-137 -133 -325 -133z" />
    <glyph glyph-name="C" unicode="C" horiz-adv-x="1923" 
d="M1137 205q-211 -1 -362 149t-150 363t151 363t361 149q123 0 231 -54t178 -151l162 125q-100 131 -250 208t-321 77q-297 0 -507 -210t-210 -507t210 -507t507 -210q171 0 321 77t250 208l-162 125q-72 -96 -179 -150t-230 -55zM932 -256q-318 0 -543 225t-225 543
t225 543q14 16 101 101t104 104q225 225 543 225q184 0 345 -82t267 -223l31 -41l-205 -205l-244 -186l-31 40q-137 184 -368 185q-109 0 -207 -49q-49 -98 -49 -207q0 -189 135 -325t326 -136q231 0 368 184l31 41l244 -186l-31 -41q-25 -35 -70 -80l-204 -205
q-225 -225 -543 -225z" />
    <glyph glyph-name="D" unicode="D" horiz-adv-x="2048" 
d="M1116 205h-307v1024h307q211 0 362 -150q150 -151 150 -363t-150 -362q-151 -149 -362 -149zM1116 0q297 0 507 210t210 507t-210 507t-507 210h-512v-1434h512zM1116 256q109 0 207 49q49 98 49 207q0 190 -135 326t-326 135h-51v-717h256zM911 -256h-563v1536l205 205
h563q316 0 542 -225t226 -543t-225 -543l-205 -205q-225 -225 -543 -225z" />
    <glyph glyph-name="E" unicode="E" horiz-adv-x="2007" 
d="M809 1229h819v205h-1024v-1434h1024v205h-819v256h614v205h-614v563zM860 973v-256h615v-307l-154 -154h358v-307l-204 -205h-1127v1536l205 205h1126v-307l-204 -205h-615z" />
    <glyph glyph-name="F" unicode="F" horiz-adv-x="1904" 
d="M809 1229h819v205h-1024v-1434h205v461h614v205h-614v563zM1679 1485v-307l-204 -205h-615v-256h615v-307l-205 -205h-410v-256l-205 -205h-307v1536l205 205h1126z" />
    <glyph glyph-name="G" unicode="G" horiz-adv-x="2025" 
d="M1516 512v-162q-150 -145 -360 -145q-210 -1 -360 149t-151 363q0 213 151 363t361 149q123 0 231 -54t179 -151l162 125q-100 131 -250 208t-322 77q-297 0 -507 -210t-210 -507t210 -507t507 -210q167 0 315 73t248 199v445h-563v-205h359zM956 973q-113 0 -211 -49
q-49 -98 -49 -211t56 -214t149 -165v229l205 205h229q-63 94 -165 150t-214 55zM1772 768v-512q-26 -36 -138 -148t-137 -139q-225 -225 -543 -225t-544 225t-226 543t226 543l204 205q225 225 543 225q199 0 368 -93t273 -253l-203 -205l-215 -166h392z" />
    <glyph glyph-name="H" unicode="H" horiz-adv-x="2232" 
d="M1833 1434h-205v-768h-819v768h-205v-1434h205v461h819v-461h205v1434zM1884 1485v-1536l-205 -205h-307v461h-512v-256l-205 -205h-307v1536l205 205h307v-768h512v563l205 205h307z" />
    <glyph glyph-name="I" unicode="I" 
d="M809 0v1434h-205v-1434h205zM860 1485v-1536l-205 -205h-307v1536l205 205h307z" />
    <glyph glyph-name="J" unicode="J" horiz-adv-x="1736" 
d="M1153 1434v-922q0 -127 -90 -217q-89 -90 -229 -90t-232 119l-162 -123q154 -201 406 -201q212 0 362 150t150 362v922h-205zM641 -256q-135 0 -252 58t-194 161l-31 41l205 205l243 188l31 -41q78 -100 203 -100q14 0 47 4q4 29 4 47v973l205 205h307v-973
q0 -229 -164 -397l-205 -205q-166 -166 -399 -166z" />
    <glyph glyph-name="K" unicode="K" horiz-adv-x="2037" 
d="M809 1434h-205v-1434h205v469l229 250l451 -719h242l-547 874l512 560h-279l-608 -664v664zM348 -256v1536l205 205h307v-565l330 360l205 205h417l-565 -617l576 -919l-205 -205h-363l-395 633v-428l-205 -205h-307z" />
    <glyph glyph-name="L" unicode="L" horiz-adv-x="1884" 
d="M809 205v1229h-205v-1434h1024v205h-819zM1679 256v-307l-204 -205h-1127v1536l205 205h307v-1229h819z" />
    <glyph glyph-name="M" unicode="M" horiz-adv-x="2322" 
d="M1681 958l74 -958h207l-111 1434h-10l-575 -623l-578 623h-8l-111 -1434h205l74 958l418 -450zM2015 -51l-203 -205h-309l-65 874l-172 -186l-205 -205l-201 217l-39 -495l-205 -205h-307l119 1536l205 205h78l546 -592l357 387l205 205h79z" />
    <glyph glyph-name="N" unicode="N" horiz-adv-x="2232" 
d="M1833 1434h-205v-967l-1014 967h-10v-1434h205v967l1012 -967h12v1434zM1884 1485v-1536l-205 -205h-84l-735 702v-497l-205 -205h-307v1536l205 205h82l737 -703v498l205 205h307z" />
    <glyph glyph-name="O" unicode="O" horiz-adv-x="2027" 
d="M1116 1229q211 0 362 -150q150 -151 150 -363t-150 -362t-362 -150t-362 150t-150 363t150 363t362 149zM1833 717q0 297 -210 507t-507 210t-507 -210t-210 -507t210 -507t507 -210t507 210t210 507zM1116 256q109 0 207 49q49 98 49 207q0 190 -135 326t-326 135
q-109 0 -206 -49q-49 -98 -50 -207q-1 -189 135 -325t326 -136zM912 -256q-318 0 -543 225t-225 545t227 543l204 205q223 223 541 223t542 -225q226 -225 226 -543t-225 -543l-205 -205q-224 -225 -542 -225z" />
    <glyph glyph-name="P" unicode="P" horiz-adv-x="1843" 
d="M1116 614h-307v615h307q127 0 217 -90t90 -217q0 -128 -90 -218t-217 -90zM1116 1434h-512v-1434h205v410h307q211 0 362 150t150 362q0 212 -150 362t-362 150zM1116 666q14 0 47 4q4 29 4 47q0 106 -74 181q-75 75 -182 75h-51v-307h256zM860 154v-205l-205 -205h-307
v1536l205 205h563q233 0 398 -165q165 -164 165 -398t-166 -400l-204 -205q-168 -164 -398 -163h-51z" />
    <glyph glyph-name="Q" unicode="Q" horiz-adv-x="2129" 
d="M1393 489v23q1 190 -135 326t-326 135q-109 0 -207 -49q-49 -98 -49 -221t72 -233t190 -169l186 188h269zM625 717q1 213 151 363t361 149q211 0 361 -150q150 -151 151 -357q0 -206 -138 -353l-47 69h-243l122 -190q-102 -43 -206 -43q-211 0 -362 149
q-150 150 -150 363zM1137 1434q-297 0 -507 -210t-210 -507t210 -507t507 -210q174 0 321 76l49 -76h246l-127 193q227 213 227 517t-209 514q-210 210 -507 210zM932 -256q-317 0 -543 225q-225 225 -225 543t225 543q14 16 101 101t104 104q224 225 542 225t543 -225
t225 -538t-212 -536l155 -237l-205 -205h-366l-41 61q-150 -61 -303 -61z" />
    <glyph glyph-name="R" unicode="R" horiz-adv-x="1972" 
d="M809 614v615h307q127 0 217 -90t90 -217t-90 -217t-217 -91h-307zM1628 922q0 212 -150 362t-362 150h-512v-1434h205v410h319l269 -410h245l-303 461q131 63 210 187t79 274zM1116 666q14 0 47 4q4 29 4 47q0 106 -74 181q-75 75 -182 75h-51v-307h256zM860 154v-205
l-205 -205h-307v1536l205 205h563q233 0 398 -165t165 -398q1 -150 -71 -276t-195 -204l324 -493l-205 -205h-367l-268 410h-37z" />
    <glyph glyph-name="S" unicode="S" horiz-adv-x="1597" 
d="M707 1024q0 84 60 144t135 61q75 0 128 -39t74 -98l194 69q-43 121 -149 197t-238 76q-169 0 -289 -120t-120 -290t120 -290t289 -120q85 0 145 -60t60 -144t-60 -144t-136 -61q-76 0 -128 38t-73 99l-195 -70q44 -120 150 -196t237 -76q170 0 290 120t120 289t-120 289
t-290 121q-84 1 -144 61t-60 144zM846 885q-25 49 -74 73q25 -48 74 -73zM772 344q25 -49 74 -74q-25 49 -74 74zM720 -256q-177 0 -302 100t-160 256l205 205l168 60q-166 29 -276 157q-109 128 -109 307q0 180 135 316l205 205q135 135 312 135q177 -1 302 -101t160 -256
l-205 -204l-168 -60q166 -28 276 -156q109 -128 109 -308t-135 -316l-205 -205q-135 -135 -312 -135z" />
    <glyph glyph-name="T" unicode="T" horiz-adv-x="1945" 
d="M1690 1434h-1229v-205h512v-1229h205v1229h512v205zM1741 1485v-307l-205 -205h-307v-1024l-205 -205h-307v1229h-512v307l205 205h1331z" />
    <glyph glyph-name="U" unicode="U" horiz-adv-x="2150" 
d="M1792 614v820h-205v-820q0 -170 -120 -290q-119 -120 -289 -119q-170 0 -290 120t-120 289v820h-205v-820q0 -254 179 -434q180 -180 436 -180t435 180t179 434zM1843 1485v-871q0 -276 -194 -471l-205 -204q-195 -195 -471 -195t-471 195t-195 471v870l205 205h307v-871
q1 -150 105 -254t254 -104q70 0 129 25q25 59 24 129v870l205 205h307z" />
    <glyph glyph-name="V" unicode="V" horiz-adv-x="2017" 
d="M1911 1434h-234l-565 -1037l-567 1037h-234l785 -1434h30zM1997 1485l-840 -1536l-205 -205h-92l-840 1536l205 205h350l490 -895l377 690l205 205h350z" />
    <glyph glyph-name="W" unicode="W" horiz-adv-x="2320" 
d="M934 0l330 860l329 -860h23l549 1434h-219l-342 -891l-340 891l-342 -891l-340 891h-220l549 -1434h23zM1911 1485h327l-587 -1536l-205 -205h-92l-232 604l-153 -399l-205 -205h-92l-590 1536l205 205h329l242 -633l166 428l205 205h69l242 -633l166 428z" />
    <glyph glyph-name="X" unicode="X" horiz-adv-x="1925" 
d="M1649 0l-463 737l436 697h-242l-315 -504l-315 504h-244l438 -697l-463 -737h242l342 545l342 -545h242zM1741 -51l-205 -205h-362l-277 436l-145 -231l-205 -205h-363l494 788l-469 748l205 205h362l250 -398l121 193l205 205h362l-469 -748z" />
    <glyph glyph-name="Y" unicode="Y" horiz-adv-x="1828" 
d="M913 0h205v514l578 920h-242l-438 -697l-436 697h-242l575 -920v-514zM657 -256v551l-616 985l205 205h362l371 -592l242 387l204 205h363l-619 -985v-551l-204 -205h-308z" />
    <glyph glyph-name="Z" unicode="Z" horiz-adv-x="1769" 
d="M506 1434v-205h647l-678 -1229h1024v205h-678l678 1229h-993zM1550 256v-307l-204 -205h-1162l676 1229h-610v307l205 205h1130l-676 -1229h641z" />
    <glyph glyph-name="bracketleft" unicode="[" horiz-adv-x="1218" 
d="M922 1434v204h-359v-1843h359v205h-154v1434h154zM819 51h154v-307l-205 -205h-461v1946l205 205h461v-308l-154 -153v-1178z" />
    <glyph glyph-name="backslash" unicode="\" horiz-adv-x="1454" 
d="M1145 -47l178 102l-809 1426l-178 -103zM1393 35l-205 -205l-268 -152l-859 1516l205 205l266 151z" />
    <glyph glyph-name="bracketright" unicode="]" horiz-adv-x="1218" 
d="M502 1434h153v-1434h-153v-205h358v1843h-358v-204zM911 1690v-1946l-204 -205h-461v307l153 154v1178h-153v307l205 205h460z" />
    <glyph glyph-name="asciicircum" unicode="^" horiz-adv-x="1261" 
d="M993 715l-260 80l-260 -80l31 -99l229 72l230 -72zM995 553l-204 -205l-263 82l-264 -82l-59 197l205 205l323 98l324 -98z" />
    <glyph glyph-name="underscore" unicode="_" horiz-adv-x="1433" 
d="M1434 -358v204h-1434v-204h1434zM1485 -102v-308l-205 -204h-1536v307l205 205h1536z" />
    <glyph glyph-name="grave" unicode="`" horiz-adv-x="1261" 
d="M963 1616l30 98l-489 152l-31 -99zM995 1552l-204 -204l-586 180l59 196l205 205l588 -180z" />
    <glyph glyph-name="a" unicode="a" horiz-adv-x="2222" 
d="M1124 512l-69 127l-70 -127h139zM1528 461h-629l313 575zM1638 256l142 -256h233l-801 1462l-798 -1462h233l139 256h852zM2099 -51l-205 -205h-350l-141 256h-698l-27 -51l-205 -205h-350l885 1622l204 203z" />
    <glyph glyph-name="b" unicode="b" horiz-adv-x="2109" 
d="M1423 205h-614v409h614q85 0 145 -60t60 -144t-60 -145q-61 -60 -145 -60zM1321 1229q84 -1 144 -61q61 -60 61 -144t-60 -144t-145 -61h-512v410h512zM1321 1434h-717v-1434h819q170 0 290 120t120 290q-1 111 -55 203t-144 147q96 116 96 274t-119 279
q-120 121 -290 121zM858 256h506q-16 45 -56 74t-89 28l-179 -2q-180 0 -182 2v-102zM1116 973h-256v-103h402q-16 45 -56 74t-90 29zM1219 -256h-871v1536l205 205h768q189 0 325 -135t136 -326q0 -137 -74 -252q176 -139 176 -362q0 -191 -135 -326q-16 -16 -101 -103
t-104 -104q-137 -133 -325 -133z" />
    <glyph glyph-name="c" unicode="c" horiz-adv-x="1923" 
d="M1137 205q-211 -1 -362 149t-150 363t151 363t361 149q123 0 231 -54t178 -151l162 125q-100 131 -250 208t-321 77q-297 0 -507 -210t-210 -507t210 -507t507 -210q171 0 321 77t250 208l-162 125q-72 -96 -179 -150t-230 -55zM932 -256q-318 0 -543 225t-225 543
t225 543q14 16 101 101t104 104q225 225 543 225q184 0 345 -82t267 -223l31 -41l-205 -205l-244 -186l-31 40q-137 184 -368 185q-109 0 -207 -49q-49 -98 -49 -207q0 -189 135 -325t326 -136q231 0 368 184l31 41l244 -186l-31 -41q-25 -35 -70 -80l-204 -205
q-225 -225 -543 -225z" />
    <glyph glyph-name="d" unicode="d" horiz-adv-x="2048" 
d="M1116 205h-307v1024h307q211 0 362 -150q150 -151 150 -363t-150 -362q-151 -149 -362 -149zM1116 0q297 0 507 210t210 507t-210 507t-507 210h-512v-1434h512zM1116 256q109 0 207 49q49 98 49 207q0 190 -135 326t-326 135h-51v-717h256zM911 -256h-563v1536l205 205
h563q316 0 542 -225t226 -543t-225 -543l-205 -205q-225 -225 -543 -225z" />
    <glyph glyph-name="e" unicode="e" horiz-adv-x="2007" 
d="M809 1229h819v205h-1024v-1434h1024v205h-819v256h614v205h-614v563zM860 973v-256h615v-307l-154 -154h358v-307l-204 -205h-1127v1536l205 205h1126v-307l-204 -205h-615z" />
    <glyph glyph-name="f" unicode="f" horiz-adv-x="1904" 
d="M809 1229h819v205h-1024v-1434h205v461h614v205h-614v563zM1679 1485v-307l-204 -205h-615v-256h615v-307l-205 -205h-410v-256l-205 -205h-307v1536l205 205h1126z" />
    <glyph glyph-name="g" unicode="g" horiz-adv-x="2025" 
d="M1516 512v-162q-150 -145 -360 -145q-210 -1 -360 149t-151 363q0 213 151 363t361 149q123 0 231 -54t179 -151l162 125q-100 131 -250 208t-322 77q-297 0 -507 -210t-210 -507t210 -507t507 -210q167 0 315 73t248 199v445h-563v-205h359zM956 973q-113 0 -211 -49
q-49 -98 -49 -211t56 -214t149 -165v229l205 205h229q-63 94 -165 150t-214 55zM1772 768v-512q-26 -36 -138 -148t-137 -139q-225 -225 -543 -225t-544 225t-226 543t226 543l204 205q225 225 543 225q199 0 368 -93t273 -253l-203 -205l-215 -166h392z" />
    <glyph glyph-name="h" unicode="h" horiz-adv-x="2232" 
d="M1833 1434h-205v-768h-819v768h-205v-1434h205v461h819v-461h205v1434zM1884 1485v-1536l-205 -205h-307v461h-512v-256l-205 -205h-307v1536l205 205h307v-768h512v563l205 205h307z" />
    <glyph glyph-name="i" unicode="i" 
d="M809 0v1434h-205v-1434h205zM860 1485v-1536l-205 -205h-307v1536l205 205h307z" />
    <glyph glyph-name="j" unicode="j" horiz-adv-x="1736" 
d="M1153 1434v-922q0 -127 -90 -217q-89 -90 -229 -90t-232 119l-162 -123q154 -201 406 -201q212 0 362 150t150 362v922h-205zM641 -256q-135 0 -252 58t-194 161l-31 41l205 205l243 188l31 -41q78 -100 203 -100q14 0 47 4q4 29 4 47v973l205 205h307v-973
q0 -229 -164 -397l-205 -205q-166 -166 -399 -166z" />
    <glyph glyph-name="k" unicode="k" horiz-adv-x="2037" 
d="M809 1434h-205v-1434h205v469l229 250l451 -719h242l-547 874l512 560h-279l-608 -664v664zM348 -256v1536l205 205h307v-565l330 360l205 205h417l-565 -617l576 -919l-205 -205h-363l-395 633v-428l-205 -205h-307z" />
    <glyph glyph-name="l" unicode="l" horiz-adv-x="1884" 
d="M809 205v1229h-205v-1434h1024v205h-819zM1679 256v-307l-204 -205h-1127v1536l205 205h307v-1229h819z" />
    <glyph glyph-name="m" unicode="m" horiz-adv-x="2322" 
d="M1681 958l74 -958h207l-111 1434h-10l-575 -623l-578 623h-8l-111 -1434h205l74 958l418 -450zM2015 -51l-203 -205h-309l-65 874l-172 -186l-205 -205l-201 217l-39 -495l-205 -205h-307l119 1536l205 205h78l546 -592l357 387l205 205h79z" />
    <glyph glyph-name="n" unicode="n" horiz-adv-x="2232" 
d="M1833 1434h-205v-967l-1014 967h-10v-1434h205v967l1012 -967h12v1434zM1884 1485v-1536l-205 -205h-84l-735 702v-497l-205 -205h-307v1536l205 205h82l737 -703v498l205 205h307z" />
    <glyph glyph-name="o" unicode="o" horiz-adv-x="2027" 
d="M1116 1229q211 0 362 -150q150 -151 150 -363t-150 -362t-362 -150t-362 150t-150 363t150 363t362 149zM1833 717q0 297 -210 507t-507 210t-507 -210t-210 -507t210 -507t507 -210t507 210t210 507zM1116 256q109 0 207 49q49 98 49 207q0 190 -135 326t-326 135
q-109 0 -206 -49q-49 -98 -50 -207q-1 -189 135 -325t326 -136zM912 -256q-318 0 -543 225t-225 545t227 543l204 205q223 223 541 223t542 -225q226 -225 226 -543t-225 -543l-205 -205q-224 -225 -542 -225z" />
    <glyph glyph-name="p" unicode="p" horiz-adv-x="1843" 
d="M1116 614h-307v615h307q127 0 217 -90t90 -217q0 -128 -90 -218t-217 -90zM1116 1434h-512v-1434h205v410h307q211 0 362 150t150 362q0 212 -150 362t-362 150zM1116 666q14 0 47 4q4 29 4 47q0 106 -74 181q-75 75 -182 75h-51v-307h256zM860 154v-205l-205 -205h-307
v1536l205 205h563q233 0 398 -165q165 -164 165 -398t-166 -400l-204 -205q-168 -164 -398 -163h-51z" />
    <glyph glyph-name="q" unicode="q" horiz-adv-x="2129" 
d="M1393 489v23q1 190 -135 326t-326 135q-109 0 -207 -49q-49 -98 -49 -221t72 -233t190 -169l186 188h269zM625 717q1 213 151 363t361 149q211 0 361 -150q150 -151 151 -357q0 -206 -138 -353l-47 69h-243l122 -190q-102 -43 -206 -43q-211 0 -362 149
q-150 150 -150 363zM1137 1434q-297 0 -507 -210t-210 -507t210 -507t507 -210q174 0 321 76l49 -76h246l-127 193q227 213 227 517t-209 514q-210 210 -507 210zM932 -256q-317 0 -543 225q-225 225 -225 543t225 543q14 16 101 101t104 104q224 225 542 225t543 -225
t225 -538t-212 -536l155 -237l-205 -205h-366l-41 61q-150 -61 -303 -61z" />
    <glyph glyph-name="r" unicode="r" horiz-adv-x="1972" 
d="M809 614v615h307q127 0 217 -90t90 -217t-90 -217t-217 -91h-307zM1628 922q0 212 -150 362t-362 150h-512v-1434h205v410h319l269 -410h245l-303 461q131 63 210 187t79 274zM1116 666q14 0 47 4q4 29 4 47q0 106 -74 181q-75 75 -182 75h-51v-307h256zM860 154v-205
l-205 -205h-307v1536l205 205h563q233 0 398 -165t165 -398q1 -150 -71 -276t-195 -204l324 -493l-205 -205h-367l-268 410h-37z" />
    <glyph glyph-name="s" unicode="s" horiz-adv-x="1597" 
d="M707 1024q0 84 60 144t135 61q75 0 128 -39t74 -98l194 69q-43 121 -149 197t-238 76q-169 0 -289 -120t-120 -290t120 -290t289 -120q85 0 145 -60t60 -144t-60 -144t-136 -61q-76 0 -128 38t-73 99l-195 -70q44 -120 150 -196t237 -76q170 0 290 120t120 289t-120 289
t-290 121q-84 1 -144 61t-60 144zM846 885q-25 49 -74 73q25 -48 74 -73zM772 344q25 -49 74 -74q-25 49 -74 74zM720 -256q-177 0 -302 100t-160 256l205 205l168 60q-166 29 -276 157q-109 128 -109 307q0 180 135 316l205 205q135 135 312 135q177 -1 302 -101t160 -256
l-205 -204l-168 -60q166 -28 276 -156q109 -128 109 -308t-135 -316l-205 -205q-135 -135 -312 -135z" />
    <glyph glyph-name="t" unicode="t" horiz-adv-x="1945" 
d="M1690 1434h-1229v-205h512v-1229h205v1229h512v205zM1741 1485v-307l-205 -205h-307v-1024l-205 -205h-307v1229h-512v307l205 205h1331z" />
    <glyph glyph-name="u" unicode="u" horiz-adv-x="2150" 
d="M1792 614v820h-205v-820q0 -170 -120 -290q-119 -120 -289 -119q-170 0 -290 120t-120 289v820h-205v-820q0 -254 179 -434q180 -180 436 -180t435 180t179 434zM1843 1485v-871q0 -276 -194 -471l-205 -204q-195 -195 -471 -195t-471 195t-195 471v870l205 205h307v-871
q1 -150 105 -254t254 -104q70 0 129 25q25 59 24 129v870l205 205h307z" />
    <glyph glyph-name="v" unicode="v" horiz-adv-x="2017" 
d="M1911 1434h-234l-565 -1037l-567 1037h-234l785 -1434h30zM1997 1485l-840 -1536l-205 -205h-92l-840 1536l205 205h350l490 -895l377 690l205 205h350z" />
    <glyph glyph-name="w" unicode="w" horiz-adv-x="2320" 
d="M934 0l330 860l329 -860h23l549 1434h-219l-342 -891l-340 891l-342 -891l-340 891h-220l549 -1434h23zM1911 1485h327l-587 -1536l-205 -205h-92l-232 604l-153 -399l-205 -205h-92l-590 1536l205 205h329l242 -633l166 428l205 205h69l242 -633l166 428z" />
    <glyph glyph-name="x" unicode="x" horiz-adv-x="1925" 
d="M1649 0l-463 737l436 697h-242l-315 -504l-315 504h-244l438 -697l-463 -737h242l342 545l342 -545h242zM1741 -51l-205 -205h-362l-277 436l-145 -231l-205 -205h-363l494 788l-469 748l205 205h362l250 -398l121 193l205 205h362l-469 -748z" />
    <glyph glyph-name="y" unicode="y" horiz-adv-x="1828" 
d="M913 0h205v514l578 920h-242l-438 -697l-436 697h-242l575 -920v-514zM657 -256v551l-616 985l205 205h362l371 -592l242 387l204 205h363l-619 -985v-551l-204 -205h-308z" />
    <glyph glyph-name="z" unicode="z" horiz-adv-x="1769" 
d="M506 1434v-205h647l-678 -1229h1024v205h-678l678 1229h-993zM1550 256v-307l-204 -205h-1162l676 1229h-610v307l205 205h1130l-676 -1229h641z" />
    <glyph glyph-name="braceleft" unicode="{" horiz-adv-x="1323" 
d="M664 872q0 -96 -72 -155q72 -59 72 -156v-356q0 -137 82 -245t208 -146l60 194q-62 20 -104 74t-42 123v356q0 82 -30 156q31 70 30 155v357q0 68 41 122t105 74l-60 195q-127 -38 -209 -146t-81 -245v-357zM920 205q0 -51 30 -91t78 -57l49 -14l-90 -293l-205 -205
l-49 15q-143 43 -234 165t-91 275v356q0 70 -54 117l-47 39l82 80q18 35 19 76v356q0 190 135 326l205 204q80 80 190 115l49 14l90 -292l-157 -158v-361q0 -84 -27 -155q27 -72 27 -156v-356z" />
    <glyph glyph-name="bar" unicode="|" 
d="M809 -205v1843h-205v-1843h205zM860 1690v-1946l-205 -205h-307v1946l205 205h307z" />
    <glyph glyph-name="braceright" unicode="}" horiz-adv-x="1320" 
d="M862 872v357q0 137 -81 245t-208 146l-59 -195q63 -20 103 -74t40 -122v-357q0 -78 31 -155q-31 -82 -31 -156v-356q0 -68 -40 -122t-103 -75l59 -194q127 38 208 146t81 245v356q0 96 74 156q-74 59 -74 155zM913 205q0 -186 -135 -326l-205 -205q-76 -80 -188 -114
l-49 -15l-90 293l155 158v360q0 80 29 156q-29 76 -29 156v356q0 51 -29 91q-30 40 -79 56l-47 15l90 293l203 204l49 -14q143 -43 234 -165t91 -275v-357q0 -70 54 -116l47 -39l-80 -80q-20 -37 -21 -76v-356z" />
    <glyph glyph-name="asciitilde" unicode="~" horiz-adv-x="1386" 
d="M1006 649q49 14 104 56l-66 79q-31 -27 -69 -36q-80 -27 -156 14q-115 59 -233 22q-57 -18 -105 -55l64 -80q115 82 225 22q111 -59 236 -22zM1051 856l131 -160l-205 -204l-41 -33q-55 -45 -121 -64q-143 -43 -272 27q-57 31 -117 10q-29 -8 -53 -26l-39 -33l-129 157
l205 205l39 33q51 43 120 66q143 43 275 -27q55 -31 117 -10q27 6 51 26z" />
    <glyph glyph-name="exclamdown" unicode="&#xa1;" 
d="M604 1434v-205h205v205h-205zM604 1028v-1028h205v1028h-205zM860 1075v-1126l-205 -205h-307v1126l103 103h-103v307l205 205h307v-307l-102 -103h102z" />
    <glyph glyph-name="cent" unicode="&#xa2;" horiz-adv-x="1611" 
d="M984 205q-138 0 -228 90t-90 217t90 217t228 90t233 -121l161 125q-117 154 -303 191v164h-205v-164q-176 -35 -292 -176q-116 -142 -117 -326q0 -184 117 -326t292 -176v-164h205v164q186 37 303 191l-161 123q-95 -119 -233 -119zM614 -410v174q-178 51 -294 202
t-115 341q0 229 164 398q172 172 206 204q20 23 39 37v78l205 205h307v-174q207 -59 322 -242l-205 -205l-242 -186l-30 41q-78 100 -203 100q-18 0 -47 -4q-4 -33 -4 -47q0 -106 75 -181q74 -75 190 -75t194 100l30 41l242 -186q-29 -49 -76 -96l-207 -207q-25 -25 -39 -35
v-78l-204 -205h-308z" />
    <glyph glyph-name="sterling" unicode="&#xa3;" horiz-adv-x="1863" 
d="M952 307v103h205v204h-205v461q0 63 45 109t101 45q56 0 97 -29q40 -29 56 -74l193 68q-37 106 -130 173t-208 67q-150 0 -254 -104t-104 -255v-461h-205v-204h205v-103q0 -43 -30 -73t-73 -29h-102v-205h1024v205h-633q18 49 18 102zM1618 256v-307l-205 -205h-1126v307
l102 103h-102v307l205 205v204q0 170 118 289l205 205q121 121 291 121q131 0 236 -76t149 -197l18 -49l-204 -205l-291 -102l-10 33v-223h204v-308l-102 -102h512z" />
    <glyph glyph-name="currency" unicode="&#xa4;" horiz-adv-x="1699" 
d="M748 716q0 86 59 146t144 60t145 -60t61 -145q0 -85 -60 -145q-59 -60 -145 -60t-145 59t-59 145zM1362 717q0 113 -57 209l118 116l-145 146l-119 -119q-96 57 -208 57t-208 -57l-116 119l-146 -146l117 -116q-55 -96 -55 -209t55 -209l-117 -117l146 -145l116 119
q96 -57 209 -57t207 57l119 -119l145 145l-118 117q57 96 57 209zM813 651q24 -46 72 -73q-16 46 -72 73zM287 512q0 104 45 199l-127 127l422 422l127 -127q199 94 397 0l127 127l217 -218l-127 -127q94 -199 0 -397l127 -127l-422 -422l-127 127q-199 -94 -397 0
l-127 -127l-217 217l127 127q-45 95 -45 199z" />
    <glyph glyph-name="yen" unicode="&#xa5;" horiz-adv-x="2033" 
d="M657 819v-205h297l62 -100v-104h-359v-205h359v-205h205v205h358v205h-358v104l63 100h295v205h-166l385 615h-242l-438 -697l-436 697h-242l385 -615h-168zM1630 870v-307l-102 -102h102v-307l-205 -205h-153l-205 -205h-307v205h-359v307l103 102h-103v308l78 77
l-336 537l205 205h363l370 -590l242 385l205 205h362l-385 -615h125z" />
    <glyph glyph-name="brokenbar" unicode="&#xa6;" 
d="M809 -205v717h-205v-717h205zM809 922v716h-205v-716h205zM860 563v-819l-205 -205h-307v819l205 205h307zM860 1690v-820l-205 -204h-307v819l205 205h307z" />
    <glyph glyph-name="section" unicode="&#xa7;" horiz-adv-x="1720" 
d="M707 717q0 106 74 181q75 75 181 75t182 -75q75 -75 75 -181t-75 -181t-181 -75t-182 75q-74 75 -74 181zM1423 726q0 181 -135 316t-325 136q-94 0 -185 -39q-20 45 -20 90q0 84 60 144q60 61 136 61t128 -39t73 -99l195 70q-44 121 -150 197t-237 75q-170 0 -290 -120
t-120 -289q0 -115 59 -213q-110 -127 -110 -308q0 -180 135 -316t326 -136q94 0 184 39q20 -47 20 -90q0 -85 -60 -145t-136 -60t-128 38t-73 99l-195 -69q43 -121 149 -197t239 -76q169 0 289 120t120 290q0 111 -59 213q110 127 110 308zM758 717q0 -85 60 -145t145 -60
q-1 84 -61 144t-144 61zM1475 700q0 -152 -101 -288q49 -98 49 -207q0 -190 -135 -326l-205 -205q-135 -135 -312 -135q-177 1 -302 101t-160 256l180 180q-113 68 -179 184t-64 268q0 154 100 289q-49 98 -49 207q0 190 135 326l205 204q135 136 313 136t302 -100t159 -257
l-180 -180q111 -69 177 -185t67 -268z" />
    <glyph glyph-name="dieresis" unicode="&#xa8;" horiz-adv-x="1536" 
d="M1280 1741q0 43 -30 73t-72 30t-73 -30q-30 -30 -30 -73t30 -73t73 -30q42 0 72 30t30 73zM973 1382q-63 0 -109 45q-45 45 -45 109t45 109l205 204q45 45 109 45t108 -45q45 -45 45 -109t-45 -108l-205 -205q-45 -45 -108 -45zM666 1741q0 43 -30 73t-73 30t-73 -30
t-30 -73t30 -73t73 -30t73 30t30 73zM358 1382q-64 0 -108 45q-45 45 -45 109t45 109l205 204q45 45 108 45t109 -45t45 -109q0 -64 -45 -108l-205 -205q-45 -45 -109 -45z" />
    <glyph glyph-name="copyright" unicode="&#xa9;" 
d="M716 999q58 0 99 62l68 -51l-9 -11q-61 -84 -156 -84q-96 -1 -156 61t-60 148t60 146t156 61q96 0 156 -82l9 -12l-68 -49l-8 10q-37 49 -93 49t-93 -36t-37 -87t37 -88t95 -37zM1014 1126q0 127 -90 217q-90 91 -217 91t-217 -90t-91 -218q0 -127 90 -217
q89 -90 217 -90t218 90t90 217zM1065 1126q0 -148 -104 -254l-205 -204q-106 -104 -254 -104t-254 104q-104 106 -104 254t104 254l135 135q61 61 70 69q106 104 254 104t254 -104q104 -106 104 -254z" />
    <glyph glyph-name="ordfeminine" unicode="&#xaa;" horiz-adv-x="1253" 
d="M643 1092l86 157l86 -157h-172zM729 1462l-295 -540h117l37 67h282l37 -67h117zM1110 870l-205 -204h-233l-37 67h-191l-67 -67h-234l381 698l205 205z" />
    <glyph glyph-name="guillemotleft" unicode="&#xab;" horiz-adv-x="1511" 
d="M1149 1137l-293 -420l293 -420l168 119l-211 301l211 301zM684 1137l-293 -420l293 -420l168 119l-211 301l211 301zM1389 1032l-222 -315l222 -316l-205 -204l-252 -177l-160 230l-53 -53l-252 -177l-344 492l344 492l205 204l252 -176l-219 -315l14 -21l213 308
l205 204z" />
    <glyph glyph-name="logicalnot" unicode="&#xac;" horiz-adv-x="1863" 
d="M481 819v-205h819v-307h205v512h-1024zM1556 870v-614l-204 -205h-308v307h-819v308l205 204h1126z" />
    <glyph glyph-name="registered" unicode="&#xae;" 
d="M647 1028v-110h-82v413h152q63 0 107 -44q44 -43 44 -117t-71 -119l86 -133h-99l-71 110h-66zM647 1110h70q29 0 49 20t20 50t-20 49q-20 20 -49 20h-70v-139zM1014 1126q0 127 -90 217q-90 91 -217 91t-217 -90t-91 -218q0 -127 90 -217q89 -90 217 -90t218 90t90 217z
M1065 1126q0 -148 -104 -254l-205 -204q-106 -104 -254 -104t-254 104q-104 106 -104 254t104 254l135 135q61 61 70 69q106 104 254 104t254 -104q104 -106 104 -254z" />
    <glyph glyph-name="degree" unicode="&#xb0;" horiz-adv-x="1003" 
d="M604 1331q43 1 73 -29t30 -73t-30 -73t-73 -30t-73 30t-29 73q0 43 29 73q30 29 73 29zM809 1229q0 84 -60 144q-61 61 -145 61t-144 -60t-60 -145t60 -145t144 -60t145 60q60 61 60 145zM398 768q-104 0 -180 75q-75 75 -75 181t74 180l207 207q74 74 180 74t181 -75
t75 -181t-74 -180l-206 -207q-78 -74 -182 -74z" />
    <glyph glyph-name="plusminus" unicode="&#xb1;" horiz-adv-x="1740" 
d="M1485 1075h-410v410h-205v-410h-409v-205h409v-409h205v409h410v205zM1485 102v205h-1024v-205h1024zM1536 358v-307l-205 -205h-1126v308l205 204h204v256h-409v308l205 204h204v205l205 205h307v-410h410v-307l-205 -205h-205v-204l-51 -52h461z" />
    <glyph glyph-name="twosuperior" unicode="&#xb2;" horiz-adv-x="962" 
d="M597 1331q28 0 48 -19q21 -19 21 -46t-17 -47l-250 -297h369v102h-150l109 129q41 49 41 115t-50 116t-122 50t-121 -50t-49 -104q0 -55 25 -109l92 46q-31 60 5 94q20 20 49 20zM819 1075v-205l-205 -204h-471v69q104 125 176 211l-96 -49l-30 61q-23 49 -23 101
q0 94 66 155q100 104 204 205q60 66 154 66t165 -71t58 -165q-4 -74 -51 -129l-37 -45h90z" />
    <glyph glyph-name="threesuperior" unicode="&#xb3;" horiz-adv-x="956" 
d="M442 1434v-103h129l-112 -170h110q29 0 48 -20t19 -48q0 -29 -18 -49q-20 -20 -49 -20q-51 0 -65 49l-90 -51q45 -100 155 -100q70 0 120 49t50 121q0 110 -100 155l123 187h-320zM813 1485v-68l-102 -153q80 -66 80 -166t-66 -162l-205 -205q-61 -65 -141 -65t-135 36
t-82 93l-19 43l66 67h-51l112 170h-84v205l205 205h422z" />
    <glyph glyph-name="acute" unicode="&#xb4;" horiz-adv-x="1261" 
d="M504 1616l489 151l-30 99l-490 -152zM1057 1733l-205 -205l-588 -180l-59 196l205 205l585 180z" />
    <glyph glyph-name="mu" unicode="&#xb5;" horiz-adv-x="2232" 
d="M604 1434v-1434h205v1135l410 -596l409 596v-1135h205v1434h-248l-366 -533l-367 533h-248zM1884 1485v-1536l-205 -205h-307v928l-153 -223l-205 -205l-154 223v-518l-205 -205h-307v1536l205 205h326l307 -447l166 242l204 205h328z" />
    <glyph glyph-name="mu" unicode="&#x3bc;" horiz-adv-x="2232" 
d="M604 1434v-1434h205v1135l410 -596l409 596v-1135h205v1434h-248l-366 -533l-367 533h-248zM1884 1485v-1536l-205 -205h-307v928l-153 -223l-205 -205l-154 223v-518l-205 -205h-307v1536l205 205h326l307 -447l166 242l204 205h328z" />
    <glyph glyph-name="paragraph" unicode="&#xb6;" horiz-adv-x="1761" 
d="M1444 1434h-615q-169 0 -289 -120t-120 -290t120 -290t289 -120v-614h205v1229h103v-1229h204v1229h103v205zM829 1485h666v-307l-102 -103v-1126l-205 -205h-615v616q-173 20 -291 150t-118 315q0 184 135 320l205 205q135 135 325 135z" />
    <glyph glyph-name="periodcentered" unicode="&#xb7;" horiz-adv-x="798" 
d="M604 717q0 43 -30 73t-72 30t-73 -30q-30 -30 -30 -73t30 -73t73 -30q42 0 72 30t30 73zM298 358q-64 0 -110 45q-45 45 -45 109t45 109l205 204q45 45 109 45t108 -45q45 -45 45 -109t-45 -108l-204 -205q-44 -45 -108 -45z" />
    <glyph glyph-name="cedilla" unicode="&#xb8;" horiz-adv-x="870" 
d="M512 0v-154h-51v-51h153v205h-102zM666 51v-307l-205 -205h-256v154l51 51v102l205 205h205z" />
    <glyph glyph-name="onesuperior" unicode="&#xb9;" horiz-adv-x="696" 
d="M502 922v512h-103v-512h103zM143 666v614l205 205h205v-615l-205 -204h-205z" />
    <glyph glyph-name="ordmasculine" unicode="&#xba;" horiz-adv-x="1228" 
d="M717 1331q63 0 108 -45t45 -108q0 -62 -45 -108t-108 -46t-109 45q-45 45 -45 109t45 108q46 45 109 45zM973 1178q0 106 -75 181t-181 75t-181 -75t-75 -181t75 -182t181 -74q106 0 181 75t75 181zM512 666q-127 0 -217 90t-90 217t90 217l205 205q90 90 217 90t217 -90
t90 -217t-90 -217l-205 -205q-90 -90 -217 -90z" />
    <glyph glyph-name="guillemotright" unicode="&#xbb;" horiz-adv-x="1511" 
d="M1034 1137l-168 -119l211 -301l-211 -301l168 -119l293 420zM569 1137l-168 -119l211 -301l-211 -301l168 -119l293 420zM1047 1208l342 -491l-342 -492l-205 -205l-252 177l221 315l-14 23l-215 -310l-205 -205l-252 177l221 315l-221 315l205 205l252 176l159 -229
l54 53z" />
    <glyph glyph-name="onequarter" unicode="&#xbc;" horiz-adv-x="2062" 
d="M1593 119v-119h103v119h69v102h-69v205h-103v-205h-77l63 277l-100 22l-93 -401h207zM1747 272h70v-204l-70 -68v-51l-205 -205h-205v119h-221l121 514l205 205l198 -45l-12 -60h119v-205zM645 -29l1059 1399l-121 94l-1061 -1401zM1776 1380l-1121 -1480l-204 -205
l-205 155l1122 1481l205 205zM684 922v512h-102v-512h102zM326 666v614l204 205h205v-615l-205 -204h-204z" />
    <glyph glyph-name="onehalf" unicode="&#xbd;" horiz-adv-x="2058" 
d="M1522 348q0 21 19 41q19 21 48 21t49 -20t20 -46q0 -27 -16 -47l-249 -297h368v102h-149l108 129q41 49 41 115t-50 116t-121 50t-121 -49t-50 -107t27 -106l90 45q-14 32 -14 53zM1812 154v-205l-204 -205h-471v70q104 125 176 211l-96 -50l-29 62q-25 47 -25 100
q0 90 66 156l205 205q66 66 156 66t157 -66q66 -66 65 -156v-14q-6 -76 -53 -129l-37 -45h90zM643 -29l1061 1399l-123 94l-1059 -1401zM1776 1380l-1123 -1480l-204 -205l-203 155l1120 1481l205 205zM684 922v512h-102v-512h102zM326 666v614l204 205h205v-615l-205 -204
h-204z" />
    <glyph glyph-name="threequarters" unicode="&#xbe;" horiz-adv-x="2093" 
d="M1624 119v-119h102v119h70v102h-70v205h-102v-205h-78l64 277l-101 22l-92 -401h207zM1780 272h67v-204l-67 -68v-51l-207 -205h-205v119h-221l121 514l205 205l200 -45l-14 -60h121v-205zM676 -29l1059 1399l-121 94l-1061 -1401zM1808 1380l-1122 -1480l-205 -205
l-205 155l1123 1481l205 205zM545 1434v-103h129l-113 -170h111q29 0 49 -20t20 -49q0 -28 -20 -48t-49 -20q-51 0 -66 49l-90 -51q49 -100 156 -100q72 0 122 50t50 110t-29 103q-29 42 -74 62l123 187h-319zM918 1485v-68l-103 -153q80 -66 80 -164t-66 -164l-204 -205
q-66 -65 -145 -65q-154 1 -214 129l-20 43l67 67h-51l113 170h-86v205l205 205h424z" />
    <glyph glyph-name="questiondown" unicode="&#xbf;" horiz-adv-x="1439" 
d="M834 -2q132 0 240 72t159 188l-189 82q-28 -61 -84 -99t-138 -38q-82 -1 -150 67t-68 163t67 163t163 68h102v360h-205v-166q-143 -36 -237 -154t-94 -284t126 -294q128 -128 308 -128zM936 1434h-205v-205h205v205zM628 -256q-200 0 -342 142t-142 345t143 342l188 191
v106l103 103h-103v307l205 205h307v-307l-102 -103h102v-461l-205 -204h-125q9 -66 59 -110t118 -44q16 0 24 2l154 154l284 -127q-35 -111 -118 -193q-33 -35 -205 -207q-145 -141 -345 -141z" />
    <glyph glyph-name="Agrave" unicode="&#xc0;" horiz-adv-x="2222" 
d="M899 461l315 575l314 -575h-629zM1640 256l140 -256h233l-799 1462l-800 -1462h233l141 256h852zM1440 1616l28 98l-489 152l-29 -99zM1124 512l-69 127l-70 -127h139zM1311 1391l788 -1442l-205 -205h-350l-139 256h-698l-29 -51l-205 -205h-350l887 1622l47 47
l-377 115l61 196l205 205l588 -180l-61 -197z" />
    <glyph glyph-name="Aacute" unicode="&#xc1;" horiz-adv-x="2222" 
d="M1528 461h-629l315 575zM1640 256l140 -256h233l-799 1462l-800 -1462h233l141 256h852zM950 1714l31 -98l489 151l-30 99zM985 512h139l-69 127zM1249 1503l850 -1554l-205 -205h-350l-139 256h-698l-29 -51l-205 -205h-350l887 1622l94 92l-363 -110l-59 196l205 205
l586 180l61 -196l-205 -205z" />
    <glyph glyph-name="Acircumflex" unicode="&#xc2;" horiz-adv-x="2222" 
d="M899 461l313 575l316 -575h-629zM1640 256l140 -256h233l-801 1462l-798 -1462h233l139 256h854zM1444 1616l29 98l-261 80l-258 -80l29 -98l229 72zM1126 512l-69 127l-70 -127h139zM1313 1389l786 -1440l-205 -205h-350l-139 256h-698l-29 -51l-205 -205h-350l885 1622
l49 47l-49 17l-263 -82l-61 196l205 205l323 98l326 -98l-61 -197z" />
    <glyph glyph-name="Atilde" unicode="&#xc3;" horiz-adv-x="2222" 
d="M899 461l315 575l314 -575h-629zM1640 256l140 -256h233l-799 1462l-800 -1462h233l141 256h852zM1423 1651q53 14 105 55l-66 80q-31 -29 -67 -37q-80 -27 -158 14q-111 59 -233 23q-55 -18 -105 -55l66 -80q29 23 69 37q80 27 156 -15q110 -59 233 -22zM1126 512
l-69 127l-70 -127h139zM1294 1421l805 -1472l-205 -205h-350l-139 256h-698l-29 -51l-205 -205h-350l887 1620l26 29q-53 18 -75 30q-55 31 -117 11q-33 -10 -51 -27l-39 -33l-131 160l204 205l41 30q47 43 121 66q143 43 273 -27q82 -46 170 17l36 33l131 -160l-204 -205
l-39 -33q-23 -19 -62 -39z" />
    <glyph glyph-name="Adieresis" unicode="&#xc4;" horiz-adv-x="2222" 
d="M899 461l313 575l316 -575h-629zM1638 256l142 -256h233l-801 1462l-798 -1462h233l139 256h852zM1521 1638q41 0 71 30t30 72t-30 72t-72 31q-42 0 -72 -31q-31 -30 -31 -72t31 -72t73 -30zM1008 1740q0 42 -30 72t-72 31q-42 0 -72 -31q-30 -30 -31 -72q0 -42 31 -72
q30 -30 72 -30t72 30t30 72zM1124 512l-69 127l-70 -127h139zM1520 1894q62 0 109 -45q46 -45 46 -108t-47 -109l-205 -205q-42 -45 -108 -45l784 -1433l-205 -205h-350l-139 256h-698l-29 -51l-205 -205h-350l885 1620l155 156q-10 70 43 125l205 204q47 45 109 45z
M702 1382q-62 0 -110 45q-45 45 -45 109t45 109l205 204q45 45 108 45t109 -45t47 -108q0 -63 -47 -109l-205 -205q-45 -45 -107 -45z" />
    <glyph glyph-name="Aring" unicode="&#xc5;" horiz-adv-x="2222" 
d="M899 461l313 575l314 -575h-627zM1638 256l140 -256h233l-799 1462l-798 -1462h233l139 256h852zM1212 1843q20 0 36 -14t16 -37t-16 -37t-36 -14t-35 14t-16 37t15 37t36 14zM1366 1792q0 62 -45 108t-109 46t-108 -45q-45 -45 -45 -109t45 -108q45 -46 108 -46t109 45
q45 46 45 109zM1122 512l-69 127l-70 -127h139zM803 1587q0 86 59 146q104 100 205 204q59 59 145 59t146 -58q60 -60 59 -146q0 -86 -59 -145q-43 -39 -121 -121l860 -1577l-205 -205h-350l-139 256h-698l-29 -51l-205 -205h-348l885 1620l18 18q-98 -6 -160 56t-63 149z
" />
    <glyph glyph-name="AE" unicode="&#xc6;" horiz-adv-x="2760" 
d="M1358 1229v-819h-488l449 819h39zM1563 1229h819v205h-1186l-782 -1434h233l113 205h598v-205h1024v205h-819v256h614v205h-614v563zM1102 461v266l-146 -266h146zM1614 973v-256h614v-307l-153 -154h358v-307l-205 -205h-1126v205h-424l-205 -205h-350l838 1536l204 205
h1268v-307l-205 -205h-614z" />
    <glyph glyph-name="Ccedilla" unicode="&#xc7;" horiz-adv-x="1923" 
d="M1137 205q-211 -1 -362 149t-150 363t151 363t361 149q123 0 231 -54t178 -151l162 125q-100 131 -250 208t-321 77q-297 0 -507 -210t-210 -500t192 -496t473 -226v-156h-51v-51h154v207q158 10 293 85t227 198l-162 125q-72 -96 -179 -150t-230 -55zM778 -461v154
l51 51v6q-285 39 -475 255t-190 519t223 531q16 16 102 101t105 104q225 225 543 225q184 0 345 -82t267 -223l31 -41l-205 -205l-244 -186l-31 40q-137 184 -368 185q-109 0 -207 -49q-49 -98 -49 -207q0 -189 135 -325t326 -136q231 0 368 184l31 41l244 -186l-31 -41
q-45 -58 -152 -163t-120 -120q-102 -104 -238 -164v-63l-205 -205h-256z" />
    <glyph glyph-name="Egrave" unicode="&#xc8;" horiz-adv-x="2007" 
d="M809 1229h819v205h-1024v-1434h1024v205h-819v256h614v205h-614v563zM1346 1616l30 98l-489 152l-31 -99zM860 973v-256h615v-307l-154 -154h358v-307l-204 -205h-1127v1536l205 205h176l-141 43l59 196l205 205l588 -180l-60 -197l-69 -67h368v-307l-204 -205h-615z" />
    <glyph glyph-name="Eacute" unicode="&#xc9;" horiz-adv-x="2007" 
d="M809 1229h819v205h-1024v-1434h1024v205h-819v256h614v205h-614v563zM856 1714l31 -98l489 151l-30 99zM860 973v-256h615v-307l-154 -154h358v-307l-204 -205h-1127v1536l205 205h53l-18 59l205 205l587 180l60 -196l-205 -205l-141 -43h585v-307l-204 -205h-615z" />
    <glyph glyph-name="Ecircumflex" unicode="&#xca;" horiz-adv-x="2007" 
d="M809 1229h819v205h-1024v-1434h1024v205h-819v256h614v205h-614v563zM1346 1616l30 98l-260 80l-260 -80l31 -98l229 72zM860 973v-256h615v-307l-154 -154h358v-307l-204 -205h-1127v1536l205 205h53l-18 59l205 205l323 98l324 -98l-60 -197l-69 -67h368v-307
l-204 -205h-615z" />
    <glyph glyph-name="Edieresis" unicode="&#xcb;" horiz-adv-x="2007" 
d="M809 1229h819v205h-1024v-1434h1024v205h-819v256h614v205h-614v563zM1526 1741q0 43 -30 73t-72 30t-72 -30t-31 -73q0 -43 31 -73q30 -30 72 -30t72 30t30 73zM911 1741q0 43 -29 73q-30 30 -72 30t-73 -30t-31 -73t32 -73q30 -30 72 -30t72 30q29 30 29 73zM860 973
v-256h615v-307l-154 -154h358v-307l-204 -205h-1127v1536l148 147q-45 45 -45 109t45 109l204 204q44 45 108 45t110 -45t45 -108q0 -63 -45 -109l-148 -147h305q-35 90 35 160l205 204q45 45 108 45t109 -45t45 -108q0 -63 -45 -109l-148 -147h295v-307l-204 -205h-615z
" />
    <glyph glyph-name="Igrave" unicode="&#xcc;" 
d="M809 0v1434h-205v-1434h205zM936 1616l31 98l-490 152l-31 -99zM348 -256v1536l150 150l-320 98l60 196l204 205l588 -180l-59 -197l-111 -110v-1493l-205 -205h-307z" />
    <glyph glyph-name="Iacute" unicode="&#xcd;" 
d="M809 0v1434h-205v-1434h205zM477 1616l490 151l-31 99l-490 -152zM860 1485v-1536l-205 -205h-307v1536l148 147l-258 -79l-60 196l205 205l588 180l59 -196l-205 -205l-141 -43h176z" />
    <glyph glyph-name="Icircumflex" unicode="&#xce;" 
d="M809 0v1434h-205v-1434h205zM967 1714l-260 80l-261 -80l31 -98l230 72l229 -72zM348 -256v1536l148 147l-258 -79l-60 196l203 205l326 98l323 -98l-61 -197l-109 -110v-1493l-205 -205h-307z" />
    <glyph glyph-name="Idieresis" unicode="&#xcf;" 
d="M809 0v1434h-205v-1434h205zM1116 1741q0 43 -30 73t-72 30t-73 -30q-30 -30 -30 -73t30 -73t73 -30q42 0 72 30t30 73zM502 1741q0 43 -30 73t-73 30t-73 -30t-29 -73q0 -43 30 -73q31 -30 73 -30t72 30t30 73zM1167 1741q0 -63 -45 -109l-204 -205q-23 -23 -58 -36
v-1442l-205 -205h-307v1536l205 205h111q-31 92 36 160l205 204q45 45 109 45t108 -45q45 -45 45 -108zM553 1741q0 -63 -45 -109l-205 -205q-45 -45 -108 -45t-109 45q-45 45 -45 109t45 109l205 204q45 45 109 45t108 -45q45 -45 45 -108z" />
    <glyph glyph-name="Eth" unicode="&#xd0;" horiz-adv-x="2150" 
d="M1219 205h-308v205h205v204h-205v615h308q211 0 361 -150q150 -151 151 -363q-1 -212 -151 -362t-361 -149zM1219 1434h-512v-820h-205v-204h205v-410h512q297 0 507 210t209 507q1 297 -209 507t-507 210zM1219 256q109 0 206 49q49 98 50 207q1 190 -135 326t-326 135
h-51v-307h204v-308l-102 -102h154zM1014 -256h-563v410h-205v307l205 205v614l204 205h564q317 0 542 -225t225 -543t-225 -543l-205 -205q-225 -225 -542 -225z" />
    <glyph glyph-name="Ntilde" unicode="&#xd1;" horiz-adv-x="2232" 
d="M1833 1434h-205v-967l-1014 967h-10v-1434h205v967l1012 -967h12v1434zM1884 1485v-1536l-205 -205h-84l-735 702v-497l-205 -205h-307v1536l205 205h82l737 -703v498l205 205h307zM1430 1651q57 18 102 55l-64 80q-29 -23 -69 -37q-82 -27 -156 14q-111 59 -235 23
q-51 -14 -103 -55l64 -80q31 27 69 37q82 26 176 -24t216 -13zM1475 1858l129 -160l-205 -205l-39 -31q-51 -43 -121 -65q-143 -43 -272 26q-57 31 -119 11q-23 -4 -51 -27l-39 -33l-129 160l205 205l38 33q59 45 121 63q143 43 273 -27q85 -46 170 17z" />
    <glyph glyph-name="Ograve" unicode="&#xd2;" horiz-adv-x="2027" 
d="M1116 1229q211 0 362 -150q150 -151 150 -363t-150 -362t-362 -150t-362 150t-150 363t150 363t362 149zM1833 717q0 297 -210 507t-507 210t-507 -210t-210 -507t210 -507t507 -210t507 210t210 507zM1346 1616l30 98l-489 152l-31 -99zM1372 512q0 190 -135 326
t-326 135q-109 0 -206 -49q-49 -98 -50 -207q-1 -189 135 -325t326 -136q109 0 207 49q49 98 49 207zM1884 717q0 -317 -225 -543l-205 -205q-224 -225 -542 -225t-543 225t-225 545t227 543l204 205q123 123 291 182l-278 84l59 196l205 205l588 -180l-60 -197l-88 -88
q256 -61 424 -269t168 -478z" />
    <glyph glyph-name="Oacute" unicode="&#xd3;" horiz-adv-x="2027" 
d="M1116 1229q211 0 362 -150q150 -151 150 -363t-150 -362t-362 -150t-362 150t-150 363t150 363t362 149zM1833 717q0 297 -210 507t-507 210t-507 -210t-210 -507t210 -507t507 -210t507 210t210 507zM887 1616l489 151l-30 99l-490 -152zM1372 512q0 190 -135 326
t-326 135q-109 0 -206 -49q-49 -98 -50 -207q-1 -189 135 -325t326 -136q109 0 207 49q49 98 49 207zM1116 1485q316 0 542 -225q226 -224 226 -542t-225 -544l-205 -205q-224 -225 -542 -225t-543 225t-225 545t227 543l204 205q59 57 130 104l-58 -18l-59 196l205 205
l587 180l60 -196l-205 -205l-143 -43h24z" />
    <glyph glyph-name="Ocircumflex" unicode="&#xd4;" horiz-adv-x="2027" 
d="M1116 1229q211 0 362 -150q150 -151 150 -363t-150 -362t-362 -150t-362 150t-150 363t150 363t362 149zM1833 717q0 297 -210 507t-507 210t-507 -210t-210 -507t210 -507t507 -210t507 210t210 507zM1376 1714l-260 80l-260 -80l31 -98l229 72l230 -72zM1372 512
q0 190 -135 326t-326 135q-109 0 -206 -49q-49 -98 -50 -207q-1 -189 135 -325t326 -136q109 0 207 49q49 98 49 207zM1884 717q0 -317 -225 -543l-205 -205q-224 -225 -542 -225t-543 225t-225 545t227 543l204 205q59 57 130 104l-58 -18l-59 196l205 205l323 98l324 -98
l-60 -197l-88 -88q256 -61 424 -269t168 -478z" />
    <glyph glyph-name="Otilde" unicode="&#xd5;" horiz-adv-x="2027" 
d="M1430 1706l-64 80q-35 -29 -70 -37q-82 -27 -155 14q-111 59 -236 23q-57 -18 -102 -55l63 -80q35 29 70 37q82 26 174 -24t215 -13q60 18 105 55zM1372 512q0 190 -135 326t-326 135q-109 0 -206 -49q-49 -98 -50 -207q-1 -189 135 -325t326 -136q109 0 207 49
q49 98 49 207zM1628 717q0 -213 -150 -363t-362 -150t-362 150t-150 363t151 363t361 149q210 1 362 -149q150 -150 150 -363zM1116 1434q-297 0 -507 -210t-210 -507t210 -507t507 -210t507 210t210 507t-210 507t-507 210zM1884 717q0 -317 -225 -543l-205 -205
q-224 -225 -542 -225t-543 225t-225 545t227 543l204 205q113 115 265 172q-47 16 -95 0q-23 -4 -51 -27l-39 -33l-129 160l203 205l37 30q47 39 125 66q143 43 272 -27q55 -29 115 -10q29 6 55 27l37 33l131 -160l-205 -205l-28 -23q266 -53 441 -265t175 -488z" />
    <glyph glyph-name="Odieresis" unicode="&#xd6;" horiz-adv-x="2027" 
d="M1116 1229q211 0 362 -150q150 -151 150 -363t-150 -362t-362 -150t-362 150t-150 363t150 363t362 149zM1833 717q0 297 -210 507t-507 210t-507 -210t-210 -507t210 -507t507 -210t507 210t210 507zM1526 1741q0 43 -30 73t-73 30t-73 -30t-29 -73q0 -43 30 -73
q31 -30 73 -30t72 30t30 73zM911 1741q0 43 -29 73q-30 30 -73 30t-73 -30t-30 -73t30 -73t73 -30t73 30q29 30 29 73zM1372 512q0 190 -135 326t-326 135q-109 0 -206 -49q-49 -98 -50 -207q-1 -189 135 -325t326 -136q109 0 207 49q49 98 49 207zM912 -256
q-318 0 -543 225t-225 545t227 543l204 205q205 205 498 221q-31 94 37 162l205 204q45 45 108 45t109 -45t45 -108q0 -63 -45 -109l-182 -184q236 -74 386 -276t148 -455q0 -317 -225 -543l-205 -205q-224 -225 -542 -225zM604 1382q-64 0 -108 45q-45 45 -45 109t45 109
l204 204q44 45 108 45t110 -45t45 -108q0 -63 -45 -109l-205 -205q-45 -45 -109 -45z" />
    <glyph glyph-name="multiply" unicode="&#xd7;" horiz-adv-x="1673" 
d="M1251 1151l-288 -289l-289 289l-146 -145l289 -289l-289 -289l146 -145l289 288l288 -288l146 145l-289 289l289 289zM1468 1006l-288 -289l288 -289l-467 -469l-290 289l-289 -289l-217 217l289 289l-289 291l469 467l289 -289l288 289z" />
    <glyph glyph-name="Oslash" unicode="&#xd8;" horiz-adv-x="2125" 
d="M1677 717q-1 -213 -151 -363t-361 -149q-154 0 -282 84l710 710q84 -128 84 -282zM653 717q0 213 151 363t361 149q154 0 283 -84l-711 -711q-84 129 -84 283zM1165 0q297 0 507 210t210 507q0 238 -143 430l151 149l-145 146l-150 -152q-193 143 -430 144
q-297 0 -507 -210t-209 -507q0 -238 143 -430l-152 -150l146 -145l149 151q193 -143 430 -143zM1168 256q106 0 204 49q49 99 49 205t-45 201l-409 -410q95 -45 201 -45zM958 973q-106 0 -204 -49q-49 -98 -49 -204t45 -202l409 410q-95 45 -201 45zM1933 717
q0 -317 -225 -543l-57 -57q-49 -49 -90 -91t-58 -57q-225 -225 -542 -225q-231 0 -424 127l-156 -156l-217 217l155 156q-127 193 -126 424q0 317 225 543q14 16 56 57t91 90l58 58q225 225 542 225q229 0 424 -127l156 155l217 -217l-156 -155q127 -195 127 -424z" />
    <glyph glyph-name="Ugrave" unicode="&#xd9;" horiz-adv-x="2150" 
d="M1792 614v820h-205v-820q0 -170 -120 -290q-119 -120 -289 -119q-170 0 -290 120t-120 289v820h-205v-820q0 -254 179 -434q180 -180 436 -180t435 180t179 434zM1407 1616l31 98l-490 152l-30 -99zM1843 1485v-871q0 -276 -194 -471l-205 -204q-195 -195 -471 -195
t-471 195t-195 471v870l205 205h279l-142 43l60 196l204 205l588 -180l-59 -197l-205 -204l-418 129v-863q1 -150 105 -254t254 -104q70 0 129 25q25 59 24 129v870l205 205h307z" />
    <glyph glyph-name="Uacute" unicode="&#xda;" horiz-adv-x="2150" 
d="M1792 614v820h-205v-820q0 -170 -120 -290q-119 -120 -289 -119q-170 0 -290 120t-120 289v820h-205v-820q0 -254 179 -434q180 -180 436 -180t435 180t179 434zM948 1616l490 151l-31 99l-489 -152zM1843 1485v-871q0 -276 -194 -471l-205 -204q-195 -195 -471 -195
t-471 195t-195 471v870l205 205h156l-19 59l205 205l588 180l59 -196l-205 -205l-477 -146v-768q1 -150 105 -254t254 -104q70 0 129 25q25 59 24 129v870l205 205h307z" />
    <glyph glyph-name="Ucircumflex" unicode="&#xdb;" horiz-adv-x="2150" 
d="M1792 614v820h-205v-820q0 -170 -120 -290q-119 -120 -289 -119q-170 0 -290 120t-120 289v820h-205v-820q0 -254 179 -434q180 -180 436 -180t435 180t179 434zM1438 1714l-260 80l-260 -80l30 -98l230 72l229 -72zM1843 1485v-871q0 -276 -194 -471l-205 -204
q-195 -195 -471 -195t-471 195t-195 471v870l205 205h156l-19 59l205 205l324 98l323 -98l-61 -197l-203 -204l-264 82l-154 -48v-768q1 -150 105 -254t254 -104q70 0 129 25q25 59 24 129v870l205 205h307z" />
    <glyph glyph-name="Udieresis" unicode="&#xdc;" horiz-adv-x="2150" 
d="M1792 614v820h-205v-820q0 -170 -120 -290q-119 -120 -289 -119q-170 0 -290 120t-120 289v820h-205v-820q0 -254 179 -434q180 -180 436 -180t435 180t179 434zM1587 1741q0 43 -29 73q-30 30 -73 30t-73 -30t-30 -73t30 -73t73 -30t73 30q29 30 29 73zM973 1741
q0 43 -30 73t-73 30q-42 0 -72 -30t-30 -73t30 -73t72 -30t73 30q30 30 30 73zM1843 1485v-871q0 -276 -194 -471l-205 -204q-195 -195 -471 -195t-471 195t-195 471v870l205 205h8q-31 92 37 160l205 204q45 45 108 45q62 0 108 -45t46 -108t-45 -109l-160 -159v-859
q1 -150 105 -254t254 -104q70 0 129 25q25 59 24 129v870l205 205h307zM1280 1382q-64 0 -109 45t-45 109t45 109l205 204q44 45 108 45t109 -45t45 -108t-45 -109l-204 -205q-45 -45 -109 -45z" />
    <glyph glyph-name="Yacute" unicode="&#xdd;" horiz-adv-x="1828" 
d="M913 0h205v514l578 920h-242l-438 -697l-436 697h-242l575 -920v-514zM786 1616l490 151l-31 99l-489 -152zM657 -256v551l-616 985l205 205h260l-19 59l205 205l588 180l59 -196l-204 -205l-465 -144l309 -489l242 385l204 205h363l-619 -985v-551l-204 -205h-308z" />
    <glyph glyph-name="Thorn" unicode="&#xde;" horiz-adv-x="1904" 
d="M1116 410h-307v614h307q127 0 217 -90t90 -217t-90 -217t-217 -90zM1116 1229h-307v205h-205v-1434h205v205h307q211 -1 362 149t150 363q0 213 -150 363t-362 149zM1116 461q14 0 47 4q4 29 4 47q0 106 -74 181q-75 75 -182 75h-51v-307h256zM911 -51h-51l-205 -205
h-307v1536l205 205h307v-205h256q233 0 398 -165t165 -399t-166 -397q-33 -35 -201 -203t-401 -167z" />
    <glyph glyph-name="germandbls" unicode="&#xdf;" horiz-adv-x="1822" 
d="M1014 1434q-170 0 -290 -120t-120 -290v-1024h205v1024q0 84 60 144q61 60 145 60t144 -60t60 -145t-59 -144q-119 -121 -119 -290t119 -290q59 -59 60 -143v-156h204v156q1 167 -120 288q-59 58 -59 144t59 147q121 117 121 287t-120 291t-290 121zM963 810q0 58 -29 98
t-74 57v-324q25 37 64 74t39 95zM1475 156v-207l-205 -205h-307v207q0 63 -45 108q-29 25 -58 70v-180l-205 -205h-307v1075q0 190 135 326l205 205q136 135 326 135t325 -135q135 -136 135 -326t-135 -326q-45 -45 -45 -108t45 -109q136 -135 136 -325z" />
    <glyph glyph-name="agrave" unicode="&#xe0;" horiz-adv-x="2222" 
d="M899 461l315 575l314 -575h-629zM1640 256l140 -256h233l-799 1462l-800 -1462h233l141 256h852zM1440 1616l28 98l-489 152l-29 -99zM1124 512l-69 127l-70 -127h139zM1311 1391l788 -1442l-205 -205h-350l-139 256h-698l-29 -51l-205 -205h-350l887 1622l47 47
l-377 115l61 196l205 205l588 -180l-61 -197z" />
    <glyph glyph-name="aacute" unicode="&#xe1;" horiz-adv-x="2222" 
d="M1528 461h-629l315 575zM1640 256l140 -256h233l-799 1462l-800 -1462h233l141 256h852zM950 1714l31 -98l489 151l-30 99zM985 512h139l-69 127zM1249 1503l850 -1554l-205 -205h-350l-139 256h-698l-29 -51l-205 -205h-350l887 1622l94 92l-363 -110l-59 196l205 205
l586 180l61 -196l-205 -205z" />
    <glyph glyph-name="acircumflex" unicode="&#xe2;" horiz-adv-x="2222" 
d="M899 461l313 575l316 -575h-629zM1640 256l140 -256h233l-801 1462l-798 -1462h233l139 256h854zM1444 1616l29 98l-261 80l-258 -80l29 -98l229 72zM1124 512l-69 127l-70 -127h139zM1313 1389l786 -1440l-205 -205h-350l-139 256h-698l-29 -51l-205 -205h-350l885 1622
l49 47l-49 17l-263 -82l-61 196l205 205l323 98l326 -98l-61 -197z" />
    <glyph glyph-name="atilde" unicode="&#xe3;" horiz-adv-x="2222" 
d="M899 461l315 575l314 -575h-629zM1640 256l140 -256h233l-799 1462l-800 -1462h233l141 256h852zM1423 1651q53 14 105 55l-66 80q-31 -29 -67 -37q-80 -27 -158 14q-111 59 -233 23q-55 -18 -105 -55l66 -80q29 23 69 37q80 27 156 -15q110 -59 233 -22zM1124 512
l-69 127l-70 -127h139zM1294 1421l805 -1472l-205 -205h-350l-139 256h-698l-29 -51l-205 -205h-350l887 1620l26 29q-53 18 -75 30q-55 31 -117 11q-33 -10 -51 -27l-39 -33l-131 160l204 205l41 30q47 43 121 66q143 43 273 -27q82 -46 170 17l36 33l131 -160l-204 -205
l-39 -33q-23 -19 -62 -39z" />
    <glyph glyph-name="adieresis" unicode="&#xe4;" horiz-adv-x="2222" 
d="M899 461l313 575l316 -575h-629zM1638 256l142 -256h233l-801 1462l-798 -1462h233l139 256h852zM1521 1638q41 0 71 30t30 72t-30 72t-72 31q-42 0 -72 -31q-31 -30 -31 -72t31 -72t73 -30zM1008 1740q0 42 -30 72t-72 31q-42 0 -72 -31q-30 -30 -31 -72q0 -42 31 -72
q30 -30 72 -30t72 30t30 72zM1124 512l-69 127l-70 -127h139zM1520 1894q62 0 109 -45q46 -45 46 -108t-47 -109l-205 -205q-42 -45 -108 -45l784 -1433l-205 -205h-350l-139 256h-698l-29 -51l-205 -205h-350l885 1620l155 156q-10 70 43 125l205 204q47 45 109 45z
M702 1382q-62 0 -110 45q-45 45 -45 109t45 109l205 204q45 45 108 45t109 -45t47 -108q0 -63 -47 -109l-205 -205q-45 -45 -107 -45z" />
    <glyph glyph-name="aring" unicode="&#xe5;" horiz-adv-x="2222" 
d="M899 461l313 575l314 -575h-627zM1638 256l140 -256h233l-799 1462l-798 -1462h233l139 256h852zM1212 1843q20 0 36 -14t16 -37t-16 -37t-36 -14t-35 14t-16 37t15 37t36 14zM1366 1792q0 62 -45 108t-109 46t-108 -45q-45 -45 -45 -109t45 -108q45 -46 108 -46t109 45
q45 46 45 109zM1124 512l-69 127l-70 -127h139zM803 1587q0 86 59 146q104 100 205 204q59 59 145 59t146 -58q60 -60 59 -146q0 -86 -59 -145q-43 -39 -121 -121l860 -1577l-205 -205h-350l-139 256h-698l-29 -51l-205 -205h-348l885 1620l18 18q-98 -6 -160 56t-63 149z
" />
    <glyph glyph-name="ae" unicode="&#xe6;" horiz-adv-x="2760" 
d="M1358 1229v-819h-488l449 819h39zM1563 1229h819v205h-1186l-782 -1434h233l113 205h598v-205h1024v205h-819v256h614v205h-614v563zM1102 461v266l-146 -266h146zM1614 973v-256h614v-307l-153 -154h358v-307l-205 -205h-1126v205h-424l-205 -205h-350l838 1536l204 205
h1268v-307l-205 -205h-614z" />
    <glyph glyph-name="ccedilla" unicode="&#xe7;" horiz-adv-x="1923" 
d="M1137 205q-211 -1 -362 149t-150 363t151 363t361 149q123 0 231 -54t178 -151l162 125q-100 131 -250 208t-321 77q-297 0 -507 -210t-210 -500t192 -496t473 -226v-156h-51v-51h154v207q158 10 293 85t227 198l-162 125q-72 -96 -179 -150t-230 -55zM778 -461v154
l51 51v6q-285 39 -475 255t-190 519t223 531q16 16 102 101t105 104q225 225 543 225q184 0 345 -82t267 -223l31 -41l-205 -205l-244 -186l-31 40q-137 184 -368 185q-109 0 -207 -49q-49 -98 -49 -207q0 -189 135 -325t326 -136q231 0 368 184l31 41l244 -186l-31 -41
q-45 -58 -152 -163t-120 -120q-102 -104 -238 -164v-63l-205 -205h-256z" />
    <glyph glyph-name="egrave" unicode="&#xe8;" horiz-adv-x="2007" 
d="M809 1229h819v205h-1024v-1434h1024v205h-819v256h614v205h-614v563zM1346 1616l30 98l-489 152l-31 -99zM860 973v-256h615v-307l-154 -154h358v-307l-204 -205h-1127v1536l205 205h176l-141 43l59 196l205 205l588 -180l-60 -197l-69 -67h368v-307l-204 -205h-615z" />
    <glyph glyph-name="eacute" unicode="&#xe9;" horiz-adv-x="2007" 
d="M809 1229h819v205h-1024v-1434h1024v205h-819v256h614v205h-614v563zM856 1714l31 -98l489 151l-30 99zM860 973v-256h615v-307l-154 -154h358v-307l-204 -205h-1127v1536l205 205h53l-18 59l205 205l587 180l60 -196l-205 -205l-141 -43h585v-307l-204 -205h-615z" />
    <glyph glyph-name="ecircumflex" unicode="&#xea;" horiz-adv-x="2007" 
d="M809 1229h819v205h-1024v-1434h1024v205h-819v256h614v205h-614v563zM1346 1616l30 98l-260 80l-260 -80l31 -98l229 72zM860 973v-256h615v-307l-154 -154h358v-307l-204 -205h-1127v1536l205 205h53l-18 59l205 205l323 98l324 -98l-60 -197l-69 -67h368v-307
l-204 -205h-615z" />
    <glyph glyph-name="edieresis" unicode="&#xeb;" horiz-adv-x="2007" 
d="M809 1229h819v205h-1024v-1434h1024v205h-819v256h614v205h-614v563zM1526 1741q0 43 -30 73t-72 30t-72 -30t-31 -73q0 -43 31 -73q30 -30 72 -30t72 30t30 73zM911 1741q0 43 -29 73q-30 30 -72 30t-73 -30t-31 -73t32 -73q30 -30 72 -30t72 30q29 30 29 73zM860 973
v-256h615v-307l-154 -154h358v-307l-204 -205h-1127v1536l148 147q-45 45 -45 109t45 109l204 204q44 45 108 45t110 -45t45 -108q0 -63 -45 -109l-148 -147h305q-35 90 35 160l205 204q45 45 108 45t109 -45t45 -108q0 -63 -45 -109l-148 -147h295v-307l-204 -205h-615z
" />
    <glyph glyph-name="igrave" unicode="&#xec;" horiz-adv-x="1157" 
d="M809 0v1434h-205v-1434h205zM936 1616l31 98l-490 152l-31 -99zM348 -256v1536l150 150l-320 98l60 196l204 205l588 -180l-59 -197l-111 -110v-1493l-205 -205h-307z" />
    <glyph glyph-name="iacute" unicode="&#xed;" 
d="M809 0v1434h-205v-1434h205zM477 1616l490 151l-31 99l-490 -152zM860 1485v-1536l-205 -205h-307v1536l148 147l-258 -79l-60 196l205 205l588 180l59 -196l-205 -205l-141 -43h176z" />
    <glyph glyph-name="icircumflex" unicode="&#xee;" 
d="M809 0v1434h-205v-1434h205zM967 1714l-260 80l-261 -80l31 -98l230 72l229 -72zM348 -256v1536l148 147l-258 -79l-60 196l203 205l326 98l323 -98l-61 -197l-109 -110v-1493l-205 -205h-307z" />
    <glyph glyph-name="idieresis" unicode="&#xef;" 
d="M809 0v1434h-205v-1434h205zM1116 1741q0 43 -30 73t-72 30t-73 -30q-30 -30 -30 -73t30 -73t73 -30q42 0 72 30t30 73zM502 1741q0 43 -30 73t-73 30t-73 -30t-29 -73q0 -43 30 -73q31 -30 73 -30t72 30t30 73zM1167 1741q0 -63 -45 -109l-204 -205q-23 -23 -58 -36
v-1442l-205 -205h-307v1536l205 205h111q-31 92 36 160l205 204q45 45 109 45t108 -45q45 -45 45 -108zM553 1741q0 -63 -45 -109l-205 -205q-45 -45 -108 -45t-109 45q-45 45 -45 109t45 109l205 204q45 45 109 45t108 -45q45 -45 45 -108z" />
    <glyph glyph-name="eth" unicode="&#xf0;" horiz-adv-x="2150" 
d="M1219 205h-308v205h205v204h-205v615h308q211 0 361 -150q150 -151 151 -363q-1 -212 -151 -362t-361 -149zM1219 1434h-512v-820h-205v-204h205v-410h512q297 0 507 210t209 507q1 297 -209 507t-507 210zM1219 256q109 0 206 49q49 98 50 207q1 190 -135 326t-326 135
h-51v-307h204v-308l-102 -102h154zM1014 -256h-563v410h-205v307l205 205v614l204 205h564q317 0 542 -225t225 -543t-225 -543l-205 -205q-225 -225 -542 -225z" />
    <glyph glyph-name="ntilde" unicode="&#xf1;" horiz-adv-x="2232" 
d="M1833 1434h-205v-967l-1014 967h-10v-1434h205v967l1012 -967h12v1434zM1884 1485v-1536l-205 -205h-84l-735 702v-497l-205 -205h-307v1536l205 205h82l737 -703v498l205 205h307zM1430 1651q57 18 102 55l-64 80q-29 -23 -69 -37q-82 -27 -156 14q-111 59 -235 23
q-51 -14 -103 -55l64 -80q31 27 69 37q82 26 176 -24t216 -13zM1475 1858l129 -160l-205 -205l-39 -31q-51 -43 -121 -65q-143 -43 -272 26q-57 31 -119 11q-23 -4 -51 -27l-39 -33l-129 160l205 205l38 33q59 45 121 63q143 43 273 -27q85 -46 170 17z" />
    <glyph glyph-name="ograve" unicode="&#xf2;" horiz-adv-x="2027" 
d="M1116 1229q211 0 362 -150q150 -151 150 -363t-150 -362t-362 -150t-362 150t-150 363t150 363t362 149zM1833 717q0 297 -210 507t-507 210t-507 -210t-210 -507t210 -507t507 -210t507 210t210 507zM1346 1616l30 98l-489 152l-31 -99zM1372 512q0 190 -135 326
t-326 135q-109 0 -206 -49q-49 -98 -50 -207q-1 -189 135 -325t326 -136q109 0 207 49q49 98 49 207zM1884 717q0 -317 -225 -543l-205 -205q-224 -225 -542 -225t-543 225t-225 545t227 543l204 205q123 123 291 182l-278 84l59 196l205 205l588 -180l-60 -197l-88 -88
q256 -61 424 -269t168 -478z" />
    <glyph glyph-name="oacute" unicode="&#xf3;" horiz-adv-x="2027" 
d="M1116 1229q211 0 362 -150q150 -151 150 -363t-150 -362t-362 -150t-362 150t-150 363t150 363t362 149zM1833 717q0 297 -210 507t-507 210t-507 -210t-210 -507t210 -507t507 -210t507 210t210 507zM887 1616l489 151l-30 99l-490 -152zM1372 512q0 190 -135 326
t-326 135q-109 0 -206 -49q-49 -98 -50 -207q-1 -189 135 -325t326 -136q109 0 207 49q49 98 49 207zM1116 1485q316 0 542 -225q226 -224 226 -542t-225 -544l-205 -205q-224 -225 -542 -225t-543 225t-225 545t227 543l204 205q59 57 130 104l-58 -18l-59 196l205 205
l587 180l60 -196l-205 -205l-143 -43h24z" />
    <glyph glyph-name="ocircumflex" unicode="&#xf4;" horiz-adv-x="2027" 
d="M1116 1229q211 0 362 -150q150 -151 150 -363t-150 -362t-362 -150t-362 150t-150 363t150 363t362 149zM1833 717q0 297 -210 507t-507 210t-507 -210t-210 -507t210 -507t507 -210t507 210t210 507zM1376 1714l-260 80l-260 -80l31 -98l229 72l230 -72zM1372 512
q0 190 -135 326t-326 135q-109 0 -206 -49q-49 -98 -50 -207q-1 -189 135 -325t326 -136q109 0 207 49q49 98 49 207zM1884 717q0 -317 -225 -543l-205 -205q-224 -225 -542 -225t-543 225t-225 545t227 543l204 205q59 57 130 104l-58 -18l-59 196l205 205l323 98l324 -98
l-60 -197l-88 -88q256 -61 424 -269t168 -478z" />
    <glyph glyph-name="otilde" unicode="&#xf5;" horiz-adv-x="2027" 
d="M1430 1706l-64 80q-35 -29 -70 -37q-82 -27 -155 14q-111 59 -236 23q-57 -18 -102 -55l63 -80q35 29 70 37q82 26 174 -24t215 -13q60 18 105 55zM1372 512q0 190 -135 326t-326 135q-109 0 -206 -49q-49 -98 -50 -207q-1 -189 135 -325t326 -136q109 0 207 49
q49 98 49 207zM1628 717q0 -213 -150 -363t-362 -150t-362 150t-150 363t151 363t361 149q210 1 362 -149q150 -150 150 -363zM1116 1434q-297 0 -507 -210t-210 -507t210 -507t507 -210t507 210t210 507t-210 507t-507 210zM1884 717q0 -317 -225 -543l-205 -205
q-224 -225 -542 -225t-543 225t-225 545t227 543l204 205q113 115 265 172q-47 16 -95 0q-23 -4 -51 -27l-39 -33l-129 160l203 205l37 30q47 39 125 66q143 43 272 -27q55 -29 115 -10q29 6 55 27l37 33l131 -160l-205 -205l-28 -23q266 -53 441 -265t175 -488z" />
    <glyph glyph-name="odieresis" unicode="&#xf6;" horiz-adv-x="2027" 
d="M1116 1229q211 0 362 -150q150 -151 150 -363t-150 -362t-362 -150t-362 150t-150 363t150 363t362 149zM1833 717q0 297 -210 507t-507 210t-507 -210t-210 -507t210 -507t507 -210t507 210t210 507zM1526 1741q0 43 -30 73t-73 30t-73 -30t-29 -73q0 -43 30 -73
q31 -30 73 -30t72 30t30 73zM911 1741q0 43 -29 73q-30 30 -73 30t-73 -30t-30 -73t30 -73t73 -30t73 30q29 30 29 73zM1372 512q0 190 -135 326t-326 135q-109 0 -206 -49q-49 -98 -50 -207q-1 -189 135 -325t326 -136q109 0 207 49q49 98 49 207zM912 -256
q-318 0 -543 225t-225 545t227 543l204 205q205 205 498 221q-31 94 37 162l205 204q45 45 108 45t109 -45t45 -108q0 -63 -45 -109l-182 -184q236 -74 386 -276t148 -455q0 -317 -225 -543l-205 -205q-224 -225 -542 -225zM604 1382q-64 0 -108 45q-45 45 -45 109t45 109
l204 204q44 45 108 45t110 -45t45 -108q0 -63 -45 -109l-205 -205q-45 -45 -109 -45z" />
    <glyph glyph-name="divide" unicode="&#xf7;" horiz-adv-x="1740" 
d="M1126 307q0 63 -45 109t-108 45q-63 0 -109 -45q-46 -44 -45 -108q0 -64 45 -109q44 -45 108 -45t109 45t45 108zM1485 614v205h-1024v-205h1024zM1126 1126q0 62 -45 108t-108 46t-109 -45t-45 -109q0 -64 45 -108q44 -45 108 -45t109 45t45 108zM1536 870v-307
l-205 -205h-160q29 -115 -53 -196l-205 -205q-59 -59 -145 -59t-145 59t-60 145q0 86 60 146l112 110h-530v308l205 204h159q-29 115 54 197l204 205q59 59 145 59t146 -59q60 -60 60 -146t-60 -145l-112 -111h530z" />
    <glyph glyph-name="oslash" unicode="&#xf8;" horiz-adv-x="2125" 
d="M1677 717q-1 -213 -151 -363t-361 -149q-154 0 -282 84l710 710q84 -128 84 -282zM653 717q0 213 151 363t361 149q154 0 283 -84l-711 -711q-84 129 -84 283zM1165 0q297 0 507 210t210 507q0 238 -143 430l151 149l-145 146l-150 -152q-193 143 -430 144
q-297 0 -507 -210t-209 -507q0 -238 143 -430l-152 -150l146 -145l149 151q193 -143 430 -143zM1168 256q106 0 204 49q49 99 49 205t-45 201l-409 -410q95 -45 201 -45zM958 973q-106 0 -204 -49q-49 -98 -49 -204t45 -202l409 410q-95 45 -201 45zM1933 717
q0 -317 -225 -543l-57 -57q-49 -49 -90 -91t-58 -57q-225 -225 -542 -225q-231 0 -424 127l-156 -156l-217 217l155 156q-127 193 -126 424q0 317 225 543q14 16 56 57t91 90l58 58q225 225 542 225q229 0 424 -127l156 155l217 -217l-156 -155q127 -195 127 -424z" />
    <glyph glyph-name="ugrave" unicode="&#xf9;" horiz-adv-x="2150" 
d="M1792 614v820h-205v-820q0 -170 -120 -290q-119 -120 -289 -119q-170 0 -290 120t-120 289v820h-205v-820q0 -254 179 -434q180 -180 436 -180t435 180t179 434zM1407 1616l31 98l-490 152l-30 -99zM1843 1485v-871q0 -276 -194 -471l-205 -204q-195 -195 -471 -195
t-471 195t-195 471v870l205 205h279l-142 43l60 196l204 205l588 -180l-59 -197l-205 -204l-418 129v-863q1 -150 105 -254t254 -104q70 0 129 25q25 59 24 129v870l205 205h307z" />
    <glyph glyph-name="uacute" unicode="&#xfa;" horiz-adv-x="2150" 
d="M1792 614v820h-205v-820q0 -170 -120 -290q-119 -120 -289 -119q-170 0 -290 120t-120 289v820h-205v-820q0 -254 179 -434q180 -180 436 -180t435 180t179 434zM948 1616l490 151l-31 99l-489 -152zM1843 1485v-871q0 -276 -194 -471l-205 -204q-195 -195 -471 -195
t-471 195t-195 471v870l205 205h156l-19 59l205 205l588 180l59 -196l-205 -205l-477 -146v-768q1 -150 105 -254t254 -104q70 0 129 25q25 59 24 129v870l205 205h307z" />
    <glyph glyph-name="ucircumflex" unicode="&#xfb;" horiz-adv-x="2150" 
d="M1792 614v820h-205v-820q0 -170 -120 -290q-119 -120 -289 -119q-170 0 -290 120t-120 289v820h-205v-820q0 -254 179 -434q180 -180 436 -180t435 180t179 434zM1438 1714l-260 80l-260 -80l30 -98l230 72l229 -72zM1843 1485v-871q0 -276 -194 -471l-205 -204
q-195 -195 -471 -195t-471 195t-195 471v870l205 205h156l-19 59l205 205l324 98l323 -98l-63 -197l-201 -204l-264 82l-154 -48v-768q1 -150 105 -254t254 -104q70 0 129 25q25 59 24 129v870l205 205h307z" />
    <glyph glyph-name="udieresis" unicode="&#xfc;" horiz-adv-x="2150" 
d="M1792 614v820h-205v-820q0 -170 -120 -290q-119 -120 -289 -119q-170 0 -290 120t-120 289v820h-205v-820q0 -254 179 -434q180 -180 436 -180t435 180t179 434zM1587 1741q0 43 -29 73q-30 30 -73 30t-73 -30t-30 -73t30 -73t73 -30t73 30q29 30 29 73zM973 1741
q0 43 -30 73t-73 30q-42 0 -72 -30t-30 -73t30 -73t72 -30t73 30q30 30 30 73zM1843 1485v-871q0 -276 -194 -471l-205 -204q-195 -195 -471 -195t-471 195t-195 471v870l205 205h8q-31 92 37 160l205 204q45 45 108 45q62 0 108 -45t46 -108t-45 -109l-160 -159v-859
q1 -150 105 -254t254 -104q70 0 129 25q25 59 24 129v870l205 205h307zM1280 1382q-64 0 -109 45t-45 109t45 109l205 204q44 45 108 45t109 -45t45 -108t-45 -109l-204 -205q-45 -45 -109 -45z" />
    <glyph glyph-name="yacute" unicode="&#xfd;" horiz-adv-x="1828" 
d="M913 0h205v514l578 920h-242l-438 -697l-436 697h-242l575 -920v-514zM786 1616l490 151l-31 99l-489 -152zM657 -256v551l-616 985l205 205h260l-19 59l205 205l588 180l59 -196l-204 -205l-465 -144l309 -489l242 385l204 205h363l-619 -985v-551l-204 -205h-308z" />
    <glyph glyph-name="thorn" unicode="&#xfe;" horiz-adv-x="1904" 
d="M1116 410h-307v614h307q127 0 217 -90t90 -217t-90 -217t-217 -90zM1116 1229h-307v205h-205v-1434h205v205h307q211 -1 362 149t150 363q0 213 -150 363t-362 149zM1116 461q14 0 47 4q4 29 4 47q0 106 -74 181q-75 75 -182 75h-51v-307h256zM911 -51h-51l-205 -205
h-307v1536l205 205h307v-205h256q233 0 398 -165t165 -399t-166 -397q-33 -35 -201 -203t-401 -167z" />
    <glyph glyph-name="ydieresis" unicode="&#xff;" horiz-adv-x="1828" 
d="M913 0h205v514l578 920h-242l-438 -697l-436 697h-242l575 -920v-514zM1425 1741q0 43 -29 73q-30 30 -72 30t-73 -30t-31 -73t32 -73q30 -30 72 -30t72 30q29 30 29 73zM811 1741q0 43 -30 73q-29 30 -71 30t-73 -30t-31 -73t31 -73t73 -30t72 30t29 73zM657 -256v551
l-616 985l205 205h114q-35 90 35 160l205 204q48 45 110 45t108 -45t46 -108t-47 -109l-184 -186l346 -551l242 385l204 205h363l-619 -985v-551l-204 -205h-308zM1118 1382q-64 0 -108 45q-45 45 -45 109t45 109l204 204q48 45 110 45t108 -45t47 -108q0 -63 -47 -109
l-205 -205q-45 -45 -109 -45z" />
    <glyph glyph-name="dotlessi" unicode="&#x131;" 
d="M809 0v1434h-205v-1434h205zM860 1485v-1536l-205 -205h-307v1536l205 205h307z" />
    <glyph glyph-name="Lslash" unicode="&#x141;" horiz-adv-x="2048" 
d="M973 205v436l205 59v215l-205 -61v580h-205v-641l-205 -60v-215l205 62v-580h1024v205h-819zM1843 256v-307l-205 -205h-1126v563l-205 -61v319l205 205v510l205 205h307v-563l205 61v-319l-205 -205v-203h819z" />
    <glyph glyph-name="lslash" unicode="&#x142;" horiz-adv-x="2048" 
d="M973 205v436l205 59v215l-205 -61v580h-205v-641l-205 -60v-215l205 62v-580h1024v205h-819zM1843 256v-307l-205 -205h-1126v563l-205 -61v319l205 205v510l205 205h307v-563l205 61v-319l-205 -205v-203h819z" />
    <glyph glyph-name="OE" unicode="&#x152;" horiz-adv-x="2672" 
d="M1116 205q-212 -1 -362 149t-150 363t151 363t361 149h154v-1024h-154zM1475 1229h819v205h-1178q-297 0 -507 -210t-210 -507t210 -507t507 -210h1178v205h-819v256h614v205h-614v563zM655 717q-1 -164 101 -289t258 -160v705h-103q-109 0 -206 -49q-50 -98 -50 -207z
M1526 973v-256h614v-307l-153 -154h358v-307l-205 -205h-1229q-317 0 -542 225t-225 543t225 543l204 205q225 225 543 225h1229v-307l-205 -205h-614z" />
    <glyph glyph-name="oe" unicode="&#x153;" horiz-adv-x="2672" 
d="M1116 205q-212 -1 -362 149t-150 363t151 363t361 149h154v-1024h-154zM1475 1229h819v205h-1178q-297 0 -507 -210t-210 -507t210 -507t507 -210h1178v205h-819v256h614v205h-614v563zM655 717q-1 -164 101 -289t258 -160v705h-103q-109 0 -206 -49q-50 -98 -50 -207z
M1526 973v-256h614v-307l-153 -154h358v-307l-205 -205h-1229q-317 0 -542 225t-225 543t225 543l204 205q225 225 543 225h1229v-307l-205 -205h-614z" />
    <glyph glyph-name="Scaron" unicode="&#x160;" horiz-adv-x="1597" 
d="M707 1024q0 84 60 144t135 61q75 0 128 -39t74 -98l194 69q-43 121 -149 197t-238 76q-169 0 -289 -120t-120 -290t120 -290t289 -120q85 0 145 -60t60 -144t-60 -144t-136 -61q-76 0 -128 38t-73 99l-195 -70q44 -120 150 -196t237 -76q170 0 290 120t120 289t-120 289
t-290 121q-84 1 -144 61t-60 144zM772 958q25 -49 74 -73q-25 48 -74 73zM772 344q25 -49 74 -74q-25 49 -74 74zM720 -256q-177 0 -302 100t-160 256l205 205l168 60q-166 29 -276 157q-109 128 -109 307q0 180 135 316l205 205q8 10 28 26l-231 72l59 194l205 205l264 -80
l265 80l59 -194l-188 -189q117 -35 201 -126t112 -210l-205 -204l-168 -60q166 -28 276 -156q109 -128 109 -308t-135 -316l-205 -205q-135 -135 -312 -135zM1171 1686l-30 98l-230 -70l-229 70l-31 -98l260 -80z" />
    <glyph glyph-name="scaron" unicode="&#x161;" horiz-adv-x="1597" 
d="M707 1024q0 84 60 144t135 61q75 0 128 -39t74 -98l194 69q-43 121 -149 197t-238 76q-169 0 -289 -120t-120 -290t120 -290t289 -120q85 0 145 -60t60 -144t-60 -144t-136 -61q-76 0 -128 38t-73 99l-195 -70q44 -120 150 -196t237 -76q170 0 290 120t120 289t-120 289
t-290 121q-84 1 -144 61t-60 144zM772 958q25 -49 74 -73q-25 48 -74 73zM772 344q25 -49 74 -74q-25 49 -74 74zM720 -256q-177 0 -302 100t-160 256l205 205l168 60q-166 29 -276 157q-109 128 -109 307q0 180 135 316l205 205q8 10 28 26l-231 72l59 194l205 205l264 -80
l265 80l59 -194l-188 -189q117 -35 201 -126t112 -210l-205 -204l-168 -60q166 -28 276 -156q109 -128 109 -308t-135 -316l-205 -205q-135 -135 -312 -135zM1171 1686l-30 98l-230 -70l-229 70l-31 -98l260 -80z" />
    <glyph glyph-name="Ydieresis" unicode="&#x178;" horiz-adv-x="1828" 
d="M913 0h205v514l578 920h-242l-438 -697l-436 697h-242l575 -920v-514zM1425 1741q0 43 -29 73q-30 30 -72 30t-73 -30t-31 -73t32 -73q30 -30 72 -30t72 30q29 30 29 73zM811 1741q0 43 -30 73q-29 30 -71 30t-73 -30t-31 -73t31 -73t73 -30t72 30t29 73zM657 -256v551
l-616 985l205 205h114q-35 90 35 160l205 204q48 45 110 45t108 -45t46 -108t-47 -109l-184 -186l346 -551l242 385l204 205h363l-619 -985v-551l-204 -205h-308zM1118 1382q-64 0 -108 45q-45 45 -45 109t45 109l204 204q48 45 110 45t108 -45t47 -108q0 -63 -47 -109
l-205 -205q-45 -45 -109 -45z" />
    <glyph glyph-name="Zcaron" unicode="&#x17d;" horiz-adv-x="1769" 
d="M506 1434v-205h647l-678 -1229h1024v205h-678l678 1229h-993zM1264 1686l-31 98l-229 -70l-230 70l-31 -98l261 -80zM1550 256v-307l-204 -205h-1162l676 1229h-610v307l205 205h30l50 157l204 205l265 -80l262 80l61 -194l-168 -168h426l-676 -1229h641z" />
    <glyph glyph-name="zcaron" unicode="&#x17e;" horiz-adv-x="1769" 
d="M506 1434v-205h647l-678 -1229h1024v205h-678l678 1229h-993zM1264 1686l-31 98l-229 -70l-230 70l-31 -98l261 -80zM1550 256v-307l-204 -205h-1162l676 1229h-610v307l205 205h30l50 157l204 205l265 -80l262 80l61 -194l-168 -168h426l-676 -1229h641z" />
    <glyph glyph-name="florin" unicode="&#x192;" horiz-adv-x="1585" 
d="M1065 1186q6 42 40 68t75 20q72 -10 86 -80l200 41q-18 94 -89 161t-183 83t-213 -61q-102 -77 -119 -204l-41 -292h-203l-28 -205h203l-68 -473q-4 -41 -39 -67t-76 -21q-72 10 -86 82l-200 -41q18 -94 89 -162t183 -83q112 -14 214 62q101 76 120 201l69 502h265
l28 205h-264zM1319 987l-68 -14h99l-41 -307l-205 -205h-90l-35 -252q-16 -121 -100 -205l-205 -205q-129 -125 -303 -100q-129 17 -216 113t-94 223l205 205l240 49l24 172h-204l43 307l204 205h27l6 45q14 117 101 203q37 35 206 204q125 127 301 103q128 -18 216 -114
t94 -222z" />
    <glyph glyph-name="circumflex" unicode="&#x2c6;" horiz-adv-x="1261" 
d="M993 1714l-260 80l-260 -80l31 -98l229 72l230 -72zM997 1552l-206 -204l-263 82l-264 -82l-59 196l205 205l323 98l324 -98z" />
    <glyph glyph-name="caron" unicode="&#x2c7;" horiz-adv-x="1261" 
d="M993 1686l-30 98l-230 -70l-229 70l-31 -98l260 -80zM1057 1653l-205 -205l-324 -100l-323 100l59 194l205 205l264 -80l262 80z" />
    <glyph glyph-name="dotaccent" unicode="&#x2d9;" horiz-adv-x="921" 
d="M666 1741q0 43 -30 73t-73 30t-73 -30t-30 -73t30 -73t73 -30t73 30t30 73zM358 1382q-64 0 -108 45q-45 45 -45 109t45 109l205 204q45 45 108 45t109 -45t45 -109q0 -64 -45 -108l-205 -205q-45 -45 -109 -45z" />
    <glyph glyph-name="ring" unicode="&#x2da;" horiz-adv-x="1028" 
d="M616 1843q23 0 37 -14q15 -14 15 -37t-14 -37t-38 -14q-49 0 -51 51q0 23 14 37t37 14zM770 1792q0 62 -45 108t-109 46t-108 -45q-45 -45 -45 -109t45 -108q45 -46 108 -46t109 45q45 46 45 109zM821 1792q0 -86 -59 -145q-104 -100 -205 -205q-59 -60 -145 -60t-146 60
t-59 145q0 86 59 146q104 100 205 204q59 59 145 59t146 -59q59 -59 59 -145z" />
    <glyph glyph-name="tilde" unicode="&#x2dc;" horiz-adv-x="1384" 
d="M1004 1651q57 18 104 55l-64 80q-35 -29 -69 -37q-82 -27 -156 14q-111 59 -235 23q-57 -18 -103 -55l64 -80q35 29 69 37q82 26 174 -24t216 -13zM1051 1858l129 -160l-205 -205l-39 -31q-51 -43 -121 -65q-143 -43 -274 26q-53 31 -117 11q-23 -4 -51 -27l-39 -33
l-129 160l205 205l39 30q51 43 120 66q143 43 273 -27q57 -31 119 -10q23 4 51 27z" />
    <glyph glyph-name="endash" unicode="&#x2013;" horiz-adv-x="1740" 
d="M1485 614v205h-1024v-205h1024zM1536 870v-307l-205 -205h-1126v308l205 204h1126z" />
    <glyph glyph-name="emdash" unicode="&#x2014;" horiz-adv-x="2764" 
d="M2509 614v205h-2048v-205h2048zM2560 870v-307l-205 -205h-2150v308l205 204h2150z" />
    <glyph glyph-name="quoteleft" unicode="&#x2018;" horiz-adv-x="921" 
d="M461 1024h205v410h-103l-102 -205v-205zM717 1485v-512l-205 -205h-307v268l121 244l204 205h187z" />
    <glyph glyph-name="quoteright" unicode="&#x2019;" horiz-adv-x="921" 
d="M666 1434h-205v-410h102l103 205v205zM717 1485v-268l-123 -244l-205 -205h-184v512l205 205h307z" />
    <glyph glyph-name="quotesinglbase" unicode="&#x201a;" horiz-adv-x="921" 
d="M666 205h-205v-410h102l103 205v205zM717 256v-268l-123 -244l-205 -205h-184v512l205 205h307z" />
    <glyph glyph-name="quotedblleft" unicode="&#x201c;" horiz-adv-x="1331" 
d="M461 1024h205v410h-103l-102 -205v-205zM870 1024h205v410h-102l-103 -205v-205zM1126 1485v-512l-204 -205h-308v102l-102 -102h-307v268l121 244l204 205h187v-244l18 39l205 205h186z" />
    <glyph glyph-name="quotedblright" unicode="&#x201d;" horiz-adv-x="1331" 
d="M666 1434h-205v-410h102l103 205v205zM1075 1434h-205v-410h103l102 205v205zM1126 1485v-268l-120 -244l-207 -205h-185v244l-18 -39l-207 -205h-184v512l205 205h307v-103l102 103h307z" />
    <glyph glyph-name="quotedblbase" unicode="&#x201e;" horiz-adv-x="1331" 
d="M666 205h-205v-410h102l103 205v205zM1075 205h-205v-410h103l102 205v205zM1126 256v-268l-120 -244l-207 -205h-185v244l-18 -39l-207 -205h-184v512l205 205h307v-102l102 102h307z" />
    <glyph glyph-name="dagger" unicode="&#x2020;" horiz-adv-x="1536" 
d="M1280 1126h-307v308h-205v-308h-307v-204h307v-922h205v922h307v204zM1331 1178v-308l-205 -204h-102v-717l-205 -205h-307v922h-307v307l205 205h102v102l205 205h307v-307h307z" />
    <glyph glyph-name="daggerdbl" unicode="&#x2021;" horiz-adv-x="1536" 
d="M1280 922v204h-307v308h-205v-308h-307v-204h307v-410h-307v-205h307v-307h205v307h307v205h-307v410h307zM1024 666v-103h307v-307l-205 -205h-102v-102l-205 -205h-307v307h-307v307l205 205h102v103h-307v307l205 205h102v102l205 205h307v-307h307v-308l-205 -204
h-102z" />
    <glyph glyph-name="bullet" unicode="&#x2022;" horiz-adv-x="1126" 
d="M870 717q0 84 -60 144q-60 61 -144 61t-144 -60t-61 -145q0 -85 60 -145q61 -60 145 -60t144 60t60 145zM459 256q-104 0 -179 75t-75 181t74 180l206 207q75 74 181 74t181 -75t75 -181t-74 -180l-207 -207q-78 -74 -182 -74z" />
    <glyph glyph-name="ellipsis" unicode="&#x2026;" horiz-adv-x="2048" 
d="M1792 0v205h-205v-205h205zM1843 256v-307l-205 -205h-307v307l205 205h307zM1229 0v205h-205v-205h205zM1280 256v-307l-205 -205h-307v307l205 205h307zM666 0v205h-205v-205h205zM717 256v-307l-205 -205h-307v307l205 205h307z" />
    <glyph glyph-name="perthousand" unicode="&#x2030;" horiz-adv-x="2844" 
d="M1559 410q63 0 108 -45t45 -109t-45 -108q-45 -46 -108 -46t-109 45q-45 45 -45 109t45 109q46 45 109 45zM1815 256q0 106 -75 181t-181 75q-105 0 -181 -75t-76 -181t76 -181q74 -75 180 -75t182 75q75 75 75 181zM2292 410q63 0 108 -45t45 -109t-45 -108
q-45 -46 -108 -46t-109 45q-45 45 -45 109t45 109q46 45 109 45zM2548 256q0 106 -75 181t-181 75t-182 -75t-74 -181q0 -106 74 -181t182 -75q106 0 181 75t75 181zM674 -29l1059 1399l-123 94l-1059 -1401zM1806 1380l-1122 -1480l-207 -205l-203 155l1123 1481l205 205z
M758 1331q63 0 108 -45t45 -108q0 -62 -45 -108t-108 -46t-109 45q-45 45 -45 109t45 108q46 45 109 45zM1014 1178q0 106 -75 181t-181 75t-181 -75t-75 -181t75 -182t181 -74q106 0 181 75t75 181zM553 666q-127 0 -217 90t-90 217t90 217l205 205q90 90 217 90t218 -90
t91 -217t-90 -217q-19 -17 -105 -103l-102 -102q-90 -90 -217 -90zM2292 563q127 0 217 -90t90 -217t-90 -217q-17 -16 -59 -57q-42 -40 -90 -90t-56 -58q-94 -90 -218 -90t-213 87t-93 212l-209 -209q-90 -90 -217 -90t-217 90t-90 217t90 217l204 205q91 90 217 90
t215 -87t93 -212q0 2 1 2t10 10t94 96t104 101q90 90 217 90z" />
    <glyph glyph-name="guilsinglleft" unicode="&#x2039;" horiz-adv-x="1046" 
d="M684 1137l-293 -420l293 -420l168 119l-211 301l211 301zM702 717l222 -316l-205 -204l-252 -177l-344 492l344 492l205 204l252 -176z" />
    <glyph glyph-name="guilsinglright" unicode="&#x203a;" horiz-adv-x="1046" 
d="M567 1137l-168 -119l211 -301l-211 -301l168 -119l293 420zM924 717l-342 -492l-207 -205l-252 177l221 315l-221 315l207 205l252 176z" />
    <glyph glyph-name="fraction" unicode="&#x2044;" horiz-adv-x="1652" 
d="M461 -29l1059 1399l-121 94l-1061 -1401zM1591 1380l-1122 -1480l-203 -205l-205 155l1123 1481l205 205z" />
    <glyph glyph-name="Euro" unicode="&#x20ac;" horiz-adv-x="2127" 
d="M1341 205q-123 0 -231 54t-178 151h219l51 204h-362q-20 107 0 205h348l51 205h-307q72 96 180 150t230 55q122 0 230 -54t179 -151l162 125q-100 131 -250 208q-149 77 -341 77t-366 -113t-262 -297h-172l-51 -205h160q-6 -49 -6 -102t6 -103h-146l-51 -204h260
q88 -184 262 -297t366 -113t341 77q150 77 250 208l-162 125q-71 -96 -179 -150t-231 -55zM1137 -256q-217 0 -400 112q-182 112 -280 298h-293l76 307l102 102h-141l75 307l205 205h133l187 187q227 223 540 223q183 0 345 -82t268 -223l31 -41l-205 -205l-244 -186l-31 40
q-92 121 -231 164l-47 -184l-103 -102h144l-78 -308l-51 -55q95 -47 215 -47t231 70l156 155l244 -186l-31 -41q-33 -46 -101 -113q-69 -67 -118 -116l-54 -54q-223 -227 -544 -227z" />
    <glyph glyph-name="afii61352" unicode="&#x2116;" horiz-adv-x="3063" 
d="M1526 -31l196 31q49 557 124 955t136 528l-178 102q-62 -106 -122 -397t-89 -529l-30 -237l-414 1010l-199 -39q0 -575 -110 -924q-56 -180 -158 -272t-242 -84v-205q293 -4 466 238t229 778zM2396 1227q-154 0 -262 -109q-108 -108 -109 -262q0 -154 109 -262
q108 -108 262 -109q154 0 262 109q108 108 109 262q-1 154 -109 262t-262 109zM2562 856q0 -70 -49 -118t-118 -48t-117 48t-48 118t48 118t117 48t118 -48t49 -118zM2118 133h526v205h-526v-205zM2695 389v-307l-205 -205h-628v307l108 109q-96 59 -151 158
q-37 -319 -47 -496l-205 -205l-277 -41l-243 588q-68 -162 -173 -270q-8 -7 -27 -27t-68 -69l-124 -124q-166 -156 -405 -155l-66 2v309l205 205q113 -6 154 6q152 315 151 1055l205 207l281 53l233 -567q78 389 168 530l205 205l262 -154q-82 -170 -152 -549l201 201
q123 123 299 123t299 -123t123 -300t-123 -296l-170 -170h170z" />
    <glyph glyph-name="trademark" unicode="&#x2122;" horiz-adv-x="1384" 
d="M834 1434v-412h81v274l97 -141l96 141v-274h82v412h-88l-90 -134l-90 134h-88zM399 1352h138v-330h81v330h138v82h-357v-82zM1241 1485v-514l-205 -205h-184v90l-90 -90h-184v113l-113 -113h-184v330h-138v184l205 205h600l51 -76l76 76h166z" />
    <glyph glyph-name="minus" unicode="&#x2212;" horiz-adv-x="1740" 
d="M1485 614v205h-1024v-205h1024zM1536 870v-307l-205 -205h-1126v308l205 204h1126z" />
    </font>
</defs>
</svg>
