<svg xmlns="http://www.w3.org/2000/svg" viewBox="0 0 1002.8 344.62"><defs><style>.cls-1{fill:#382423;}.cls-2{fill:#329ae2;}.cls-3{fill:#eceb8a;}.cls-4{font-size:48.09px;fill:#231f20;font-family:CoreCircusPierrot3, Core Circus Pierrot3;}</style></defs><title>Asset 2</title><g id="Layer_2" data-name="Layer 2"><g id="girl_Image" data-name="girl Image"><path class="cls-1" d="M80.35,116.77q-4.12,5.51-8.21,11Q44.3,134,16.6,141,8.31,108.31,0,75.58,4.1,69.9,8.25,64.22,16.11,62.29,24,60.39q6.3,26.27,12.59,52.54Q57,108,77.48,103.57,78.92,110.17,80.35,116.77ZM21.88,63.21q-5.23,1.26-10.47,2.55L26.5,127q25.35-6.25,50.83-11.83c-.64-2.93-1.29-5.87-1.93-8.8q-20.46,4.48-40.86,9.4Z"/><path class="cls-1" d="M162.92,99.7a42.63,42.63,0,0,1-25.3,14.64c-21,3.94-41.13-7.26-45-25.5-1.91-9.16.71-18.37,6.71-25.83,1.36-1.84,7.22-9.07,8.72-10.92a43.07,43.07,0,0,1,26-14.92c22-4,42.21,8.07,45.13,26.47,1.48,9.16-1.52,18.22-7.51,25.43C170.27,90.85,164.39,97.89,162.92,99.7ZM134.45,39.38c-20.45,3.73-34.19,21-30.7,38s22.32,27.61,42,24,33.54-20.16,30.79-37.32S154.9,35.64,134.45,39.38Zm31.7,26.42c2,12.26-7.82,24.14-22,26.73s-27.61-5-30-17.23,7.39-24.41,21.94-27.06S164.11,53.55,166.15,65.8ZM153.78,86.31a18.21,18.21,0,0,0,.91-9.39c-1.91-11-14.07-18.12-27-15.67a27.57,27.57,0,0,0-10.15,4.13,18,18,0,0,0-.76,9.42c2.16,11,14.28,17.84,27,15.51A27.29,27.29,0,0,0,153.78,86.31Z"/><path class="cls-1" d="M264.67,84.72a42.48,42.48,0,0,1-26,13.31c-21.14,2.84-40.62-9.39-43.54-27.81-1.44-9.25,1.65-18.3,8-25.44,1.45-1.77,7.66-8.68,9.25-10.45A42.9,42.9,0,0,1,239.1,20.77C261.2,17.9,280.77,31,282.74,49.55c1,9.22-2.46,18.11-8.79,25C272.46,76.26,266.23,83,264.67,84.72ZM239.39,23c-20.57,2.67-35.15,19.17-32.54,36.34s20.82,28.74,40.65,26.17S282,67.12,280.11,49.84,260,20.33,239.39,23Zm30.24,28c1.41,12.35-9,23.7-23.29,25.55s-27.25-6.46-29-18.76,8.62-24,23.25-25.89S268.22,38.69,269.63,51ZM256.26,70.87a18.34,18.34,0,0,0,1.38-9.33c-1.34-11.08-13.09-18.82-26.16-17a27.3,27.3,0,0,0-10.32,3.6,18,18,0,0,0-1.25,9.36c1.59,11,13.32,18.56,26.14,16.9A27.46,27.46,0,0,0,256.26,70.87Z"/><path class="cls-1" d="M375.83,84.35q-9.12.59-18.22,1.26-11-13.14-22.19-26.15.79,9.37,1.58,18.75-4.78,4.92-9.53,9.86-7.71.69-15.41,1.44L305.52,22.3q4.88-5,9.8-10,8-.75,16-1.42,1,12.39,2.08,24.77,7.83-8.61,15.8-17.16,5-4.89,10-9.76Q370.12,8,381,7.34q-13.95,14.4-27.5,29,16.31,19.06,32,38.38Q380.69,79.52,375.83,84.35Zm5-11.6q-15-18.33-30.54-36.43Q362.51,23.06,375.08,10q-7.26.45-14.52,1-14.83,15.66-29.22,31.53-1.23-14.54-2.48-29.07l-10.67.94,5.7,62.78c3.44-.32,6.89-.62,10.34-.92q-.89-10.26-1.76-20.54,5.38-6,10.83-11.92,12.82,14.84,25.28,29.83Q374.68,73.13,380.79,72.75Z"/><path class="cls-1" d="M549,80.71q-8.81-.21-17.62-.32-3.48-5.69-7-11.34-17.68-.18-35.36,0c-.45.75-.89,1.51-1.33,2.26q-5.15,4.55-10.24,9.12-8.82.12-17.63.31,21.48-36.15,44.55-71.81Q509.69,4.43,515.08,0q23,35.73,44.46,72Q554.25,76.32,549,80.71Zm-5.55-11.38q5.91.12,11.82.27Q535.81,36.95,515.06,4.68q-21,32-40.79,64.48L486.09,69q3.48-5.65,7-11.3,21.69-.12,43.38.23Q540,63.64,543.43,69.33ZM498.79,48.69Q506.77,36,515,23.41q8.1,12.69,16,25.45Q514.87,48.65,498.79,48.69Zm8-7.84q-1.8,2.79-3.58,5.58h7.13C509.14,44.58,508,42.71,506.77,40.85Z"/><path class="cls-1" d="M647.14,22.18q-5.61,4.11-11.2,8.27-7.94-.52-15.86-1-1.29,22.47-2.57,45-5.43,4.2-10.81,8.43-7.73-.4-15.45-.74l2.37-54q-13.23-.59-26.46-1,.21-6.75.41-13.5Q573,9.32,578.56,5q34.79,1.26,69.53,3.7Q647.61,15.44,647.14,22.18Zm-66-14.82c-.11,3-.23,6-.34,9q13.31.5,26.61,1.17l-2.73,54,10.36.55q1.5-27,3-53.94,13.29.75,26.59,1.66c.2-3,.41-6,.61-9Q613.23,8.57,581.15,7.36Z"/><path class="cls-1" d="M804.35,103.07q-8.75-1.33-17.49-2.6-2.73-6.07-5.49-12.15-17.55-2.46-35.14-4.62l-1.61,2.07q-5.68,3.86-11.34,7.72-8.78-1-17.55-2,26-33.07,53.51-65.46,5.88-3.72,11.81-7.42Q799.34,57.07,816,95.77,810.15,99.4,804.35,103.07Zm-4.05-12q5.85.89,11.71,1.8Q796.89,58,780.42,23.29q-25,29-48.83,58.68l11.76,1.38q4.18-5.16,8.4-10.31,21.57,2.68,43.08,5.84Q797.59,85,800.3,91.07ZM758.59,64.83q9.55-11.53,19.32-23,6.4,13.63,12.62,27.31Q774.57,66.86,758.59,64.83Zm8.93-6.74c-1.43,1.68-2.85,3.38-4.27,5.07l7.08.93Q768.94,61.09,767.52,58.09Z"/><path class="cls-1" d="M906,112.17q-6,3.36-12,6.76-27.94-5.61-56-10.4L849.42,42q6-3.54,12.11-7,7.94,1.41,15.87,2.87-4.9,26.57-9.79,53.13,20.6,3.8,41.12,8Q907.38,105.56,906,112.17ZM874.35,39.51q-5.28-1-10.57-1.9-5.5,31-11,62.06,25.62,4.55,51.15,9.77.9-4.41,1.81-8.82-20.52-4.2-41.09-8Z"/><path class="cls-1" d="M999.45,133.78q-6.18,3.06-12.31,6.16-27.72-7-55.57-13.11,7.27-33,14.56-65.94,6.21-3.24,12.46-6.44,7.88,1.78,15.75,3.63-6.17,26.3-12.34,52.59,20.44,4.8,40.8,10Q1001.14,127.24,999.45,133.78ZM971.2,59.66q-5.24-1.23-10.49-2.42-7,30.72-14,61.45,25.44,5.81,50.75,12.26,1.13-4.36,2.23-8.72-20.34-5.2-40.76-10Q965.08,86,971.2,59.66Z"/><path class="cls-1" d="M113.27,176.51q-4.83,6.53-9.57,13.06-8.82,1.88-17.62,3.85,5.9,26.36,11.78,52.72-4.52,6.56-9,13.12-8.49,2-17,4-7.57-31.51-15.14-63-14.62,3.51-29.22,7.26l-4-15.7q4.55-6.74,9.16-13.46,38.51-9.63,77.3-17.67Q111.63,168.58,113.27,176.51Zm-77,3.68,2.61,10.48Q53.6,187,68.37,183.6q7.3,31.58,14.63,63.15,5.72-1.32,11.42-2.6Q87.3,212.52,80.18,180.9q14.76-3.33,29.58-6.42-1.11-5.28-2.21-10.57Q71.81,171.37,36.29,180.19Z"/><path class="cls-1" d="M243.58,219.61q-5,6.16-10,12.35-8.59,1.28-17.18,2.62-1.89-12-3.77-24-14.51,2.28-29,4.79,1.14,6.66,2.3,13.31-4.82,6.32-9.57,12.66-8.56,1.55-17.11,3.16l-15.09-79.62q5-6.44,10-12.84,9-1.65,18-3.21,3.47,20,6.92,39.93,14.68-2.55,29.38-4.86l-4.62-29.35Q209,148.25,214.2,142q9-1.35,18-2.63Zm-26-75.39q3,20,6,40.08-23.52,3.51-47,7.61-3.48-20-7-39.91-6,1-12,2.13l13.5,74.42q5.75-1.05,11.5-2.05-2.1-12-4.19-23.95,23.3-4.08,46.68-7.57,1.8,12,3.59,24.05,5.78-.87,11.54-1.69Q235,179.9,229.62,142.47,223.61,143.32,217.61,144.22Z"/><path class="cls-1" d="M306.16,157.52q.69,6.72,1.39,13.44,17.73-1.85,35.5-3.35.68,8.07,1.37,16.14-4.07,4.42-8.08,8.84,10.21-.92,20.45-1.72.65,8.08,1.27,16.16-5.37,5.83-10.67,11.71-31.68,2.7-63.28,6.47l-9.63-80.46q5.36-6.08,10.78-12.13,33.18-3.76,66.45-6.38.63,8.08,1.27,16.16-5.58,5.86-11.08,11.75Q324,155.67,306.16,157.52ZM349.77,140l-.87-10.77q-30.19,2.41-60.32,5.78l8.4,75.17q28.95-3.24,58-5.56-.43-5.38-.86-10.77-23.35,1.88-46.66,4.33-.71-6.72-1.42-13.43,17.61-1.86,35.24-3.38l-.93-10.77q-17.73,1.53-35.44,3.4l-3.12-29.55Q325.75,141.88,349.77,140Z"/><path class="cls-1" d="M536.81,136.75q-6.1,5.3-12.14,10.64-17.94-.19-35.87,0,.06,6.75.11,13.5,17.8-.14,35.61,0l-.17,16.21q-5.94,5.34-11.82,10.71-11.7,0-23.41,0,.06,6.75.11,13.51-5.76,5.44-11.46,10.93-8.67.12-17.33.33-.94-40.51-1.91-81,5.91-5.53,11.87-11,33.35-.59,66.68,0Zm-3-2.75c.06-3.6.11-7.2.17-10.8q-30.27-.48-60.53,0,.58,37.8,1.19,75.62,5.81-.09,11.63-.15-.12-12.15-.23-24.31,17.69-.17,35.36,0c0-3.6.07-7.2.1-10.81q-17.77-.17-35.56,0-.15-14.85-.29-29.71Q509.77,133.62,533.84,134Z"/><path class="cls-1" d="M643.65,206.54q-6.2,5-12.34,9.94-31.69-2.17-63.46-3.28l2.79-81q6.23-5.19,12.49-10.35,9.09.38,18.18.83-1.63,32.37-3.25,64.75,23.41,1.17,46.81,2.93Q644.26,198.47,643.65,206.54Zm-45.5-81.29q-6.06-.3-12.1-.55-1.6,37.78-3.2,75.56,29.07,1.23,58.1,3.37c.27-3.59.53-7.18.8-10.77Q618.38,191.14,595,190Z"/><path class="cls-1" d="M757.27,229.51q-9.81-1.37-19.62-2.61-3.12-7.2-6.28-14.39-19.73-2.43-39.49-4.43l-1.78,2.54q-6.32,4.8-12.59,9.63-9.84-.93-19.69-1.75,28.44-40.56,59.13-80.23,6.6-4.65,13.27-9.26,21.21,45.51,40.06,91.42Q763.74,224.95,757.27,229.51Zm-4.62-14.26q6.58.88,13.16,1.81-17.16-41.38-36.24-82.47-28,35.57-54.15,71.9,6.6.62,13.22,1.27,4.61-6.33,9.27-12.63,24.29,2.51,48.5,5.67Q749.56,208,752.65,215.25Zm-47.17-30.19q10.6-14.13,21.48-28.14,7.41,16.14,14.52,32.35Q723.5,187,705.48,185.06Zm10-8.36c-1.59,2.06-3.17,4.14-4.75,6.21l8,.89C717.62,181.43,716.53,179.06,715.45,176.7Z"/><path class="cls-1" d="M882.83,196.12l-5.37,26.47a35.88,35.88,0,0,1-4.75,3.34c-2.74,1.65-12,7.32-13.61,8.44a46.53,46.53,0,0,1-32.6,6c-23.53-4.18-40-25-36.76-47.12A38,38,0,0,1,807.13,167c2.3-1.49,11.3-7.25,13.64-8.72a47,47,0,0,1,33.71-6.17c15.7,2.87,28.07,12.72,33.78,25.13q-6.93,4.11-13.81,8.26-7,3.06-14,6.2Q871.66,193.85,882.83,196.12ZM864,214.84a31.35,31.35,0,0,1-21.68,3.71c-15.9-2.92-26.89-17-24.47-31.71s17.76-24.45,34.21-21.43a30.83,30.83,0,0,1,21.68,15.12q5.29-2.33,10.62-4.61c-5.77-10.42-16.71-18.64-30.35-21.14-23.16-4.25-44.69,9.54-47.91,30.13s12.18,40.21,34.27,44.27a43.27,43.27,0,0,0,34.4-8l4.62-23q-16.08-3.22-32.2-6.19l-1.95,10.63q10.2,1.88,20.39,3.85Q864.78,210.66,864,214.84Zm-6.11-23.61a27.41,27.41,0,0,0-20.07-14.66,29.46,29.46,0,0,0-12.38.48,22.63,22.63,0,0,0-4.65,10.28c-1.4,8.31,2,16.45,8.25,21.92q1.05-6,2.09-11.92,6.78-4.29,13.61-8.54Q851.31,190,857.87,191.23Z"/><path class="cls-1" d="M945,258.05a27.51,27.51,0,0,1-19.68,2.63c-12.09-2.83-20.45-12.85-20.8-24q6.9-4,13.84-8l10.15-.89c-11.88-4.74-19.13-16.49-16.57-28.32a22.85,22.85,0,0,1,11.46-15.06c2.4-1.35,11.78-6.54,14.21-7.86a28.69,28.69,0,0,1,20.49-2.51c12.72,3.06,21.31,13.5,21.32,24.65q-7.2,3.73-14.34,7.53l-10.31.7c12,4.92,19,17,16,28.7A23.4,23.4,0,0,1,959,250.38C956.57,251.67,947.35,256.73,945,258.05Zm19.28-61.13q6-.4,12-.78c-1.23-8.89-8.53-17-18.85-19.45-13.19-3.17-25.92,3.93-28.52,15.53s5.58,23.4,18.42,26.49c6.38,1.54,10.42,7.55,9,13.31s-7.75,9.22-14,7.7a11.66,11.66,0,0,1-9.13-9.6l-11.76,1c1.39,8.85,8.46,16.68,18.36,19.06,12.51,3,25.1-3.71,28.07-15.33s-5.12-23.61-18-26.69c-6.4-1.54-10.55-7.5-9.2-13.29s7.76-9.29,14.25-7.72C960,188.41,963.77,192.45,964.28,196.92Zm-20.63,2.25A9.07,9.07,0,0,0,947,204,8.92,8.92,0,0,0,943.65,199.17Zm-4.2,36.31a8.87,8.87,0,0,0-3.24-4.76A8.91,8.91,0,0,0,939.45,235.48Z"/><path class="cls-2" d="M8.25,64.22Q16.11,62.29,24,60.39q6.3,26.27,12.59,52.54Q57,108,77.48,103.57q1.44,6.6,2.87,13.2-28,6.09-55.84,13Z"/><path class="cls-2" d="M146.18,103.6c-21.11,3.85-41.25-7.45-45-25.71s10.93-36.72,32.89-40.72,42.21,8.07,45.13,26.47S167.29,99.74,146.18,103.6ZM116.73,74.8c2.16,11,14.28,17.84,27,15.51s21.64-13,19.78-24.06-14-18.18-27.06-15.8S114.57,63.84,116.73,74.8Z"/><path class="cls-2" d="M247.79,87.74c-21.24,2.75-40.73-9.58-43.55-28s12.77-36.1,34.86-39S280.77,31,282.74,49.55,269,85,247.79,87.74ZM219.91,57.45c1.59,11,13.32,18.56,26.14,16.9s22.24-11.92,21-23-13-18.88-26.17-17.17S218.32,46.4,219.91,57.45Z"/><path class="cls-2" d="M315.32,12.33q8-.75,16-1.42,1.07,12.75,2.14,25.49,12.69-13.9,25.75-27.64Q370.12,8,381,7.34q-13.95,14.4-27.5,29,16.31,19.06,32,38.38-9.16.54-18.31,1.17-11.83-14.3-24-28.46-4.08,4.44-8.12,8.89.91,10.93,1.84,21.89-7.74.65-15.49,1.36Q318.42,46,315.32,12.33Z"/><path class="cls-2" d="M534.86,60.18q-20.1-.32-40.2-.22-3.53,5.64-7,11.3-8.87.08-17.71.23,21.75-36,45.12-71.49,23,35.73,44.46,72-8.85-.25-17.7-.42Q538.38,65.87,534.86,60.18Zm-8.39-13.62q-5.72-9.26-11.54-18.47Q509,37.24,503.19,46.43,514.83,46.43,526.47,46.56Z"/><path class="cls-2" d="M578.56,5q34.79,1.26,69.53,3.7-.48,6.73-1,13.47-13.26-.93-26.55-1.69-1.55,27-3.08,53.94Q609.76,74,602,73.6q1.34-27,2.66-54-13.29-.64-26.58-1.13Q578.31,11.76,578.56,5Z"/><path class="cls-2" d="M793,80.88Q773,78,753,75.47q-4.21,5.15-8.4,10.3-8.8-1.06-17.62-2.06,26.25-32.88,54-65.06Q799.34,57.07,816,95.77q-8.78-1.39-17.56-2.71Q795.71,87,793,80.88Zm-6.59-14.59q-4.49-9.92-9.09-19.8-7.06,8.31-14,16.67Q774.82,64.66,786.37,66.29Z"/><path class="cls-2" d="M861.53,34.92q7.94,1.41,15.87,2.87-4.9,26.57-9.79,53.13,20.6,3.8,41.12,8-1.35,6.61-2.72,13.23-28.05-5.78-56.2-10.74Q855.66,68.18,861.53,34.92Z"/><path class="cls-2" d="M958.59,54.45q7.88,1.78,15.75,3.63-6.17,26.3-12.34,52.59,20.44,4.8,40.8,10-1.66,6.54-3.35,13.08-27.81-7.14-55.77-13.47Z"/><path class="cls-2" d="M32.68,178.31q38.51-9.63,77.3-17.67,1.65,7.94,3.29,15.87-14.79,3.08-29.55,6.36,7.07,31.63,14.14,63.27-8.55,1.92-17.09,3.91Q73.39,218.48,66,186.92,51.3,190.36,36.61,194Z"/><path class="cls-2" d="M232.24,139.37l11.34,80.24q-8.66,1.21-17.29,2.52l-3.63-24q-20.41,3.09-40.79,6.61,2.07,12,4.15,24-8.61,1.49-17.22,3.07-7.29-39.85-14.59-79.71,9-1.65,18-3.21,3.47,20,6.92,39.93,20.55-3.57,41.15-6.67-3-20-6.05-40.07Q223.22,140.65,232.24,139.37Z"/><path class="cls-2" d="M285.26,132.62q33.18-3.76,66.45-6.38.63,8.08,1.27,16.16-24,1.89-47.94,4.37,1.26,12.09,2.51,24.19,17.73-1.85,35.5-3.35.68,8.07,1.37,16.14-17.61,1.5-35.19,3.33.4,4,.83,8.06,23.35-2.43,46.73-4.27.65,8.08,1.27,16.16-31.87,2.5-63.67,6.11Q289.81,172.88,285.26,132.62Z"/><path class="cls-2" d="M470.4,120.56q33.35-.59,66.68,0l-.27,16.21q-24-.41-48.09-.22.09,12.16.19,24.31,17.8-.14,35.61,0l-.17,16.21q-17.65-.19-35.31,0,.09,12.15.19,24.31-8.72.06-17.42.22Z"/><path class="cls-2" d="M583.13,121.87q9.09.38,18.18.83-1.63,32.37-3.25,64.75,23.41,1.17,46.81,2.93-.61,8.09-1.22,16.16-31.87-2.4-63.81-3.7Q581.49,162.35,583.13,121.87Z"/><path class="cls-2" d="M744.32,203.25q-22.44-2.9-44.94-5.26-4.67,6.3-9.28,12.63-9.89-1-19.8-1.88,28.85-40.32,59.92-79.73,21.21,45.51,40.06,91.42-9.85-1.43-19.73-2.74Q747.48,210.46,744.32,203.25ZM736.78,186q-5.16-11.75-10.48-23.46-7.87,10.17-15.6,20.41Q723.75,184.35,736.78,186Z"/><path class="cls-2" d="M877.46,222.59a46.12,46.12,0,0,1-37.6,9.24c-23.65-4.34-40.14-25.28-36.72-47.39s26.46-36.88,51.34-32.31c15.7,2.87,28.07,12.72,33.78,25.13q-8,3.44-16,6.94c-3.22-7.89-10.85-14.32-20.71-16.13-14.76-2.71-28.6,6.05-30.79,19.26s7.7,25.93,22,28.56a28.56,28.56,0,0,0,18.52-2.78c.29-1.52.58-3,.88-4.56q-10.19-2-20.36-3.82,1.44-8,2.89-15.94,19.1,3.47,38.11,7.33Z"/><path class="cls-2" d="M970.74,235.64c-3.35,13-17.51,20.59-31.58,17.22-12.15-2.93-20.51-13-20.8-24.16q8.89-.81,17.84-1.54c-1,4.31,2,8.81,6.75,9.94s9.47-1.48,10.53-5.78-2-8.84-6.74-10c-14.32-3.45-23.64-16.71-20.73-29.79s17.34-21,32.09-17.49c12.72,3.06,21.31,13.5,21.32,24.65q-9.13.53-18.21,1.12c1-4.3-2.07-8.85-6.9-10s-9.68,1.48-10.69,5.79,2.12,8.82,6.9,10C965,209.06,974.09,222.67,970.74,235.64Z"/><path class="cls-3" d="M18.24,71a2.28,2.28,0,1,1-1.07-4.37A2.29,2.29,0,1,1,18.24,71Zm2.13,8.75a2.29,2.29,0,1,1-1.06-4.38,2.29,2.29,0,1,1,1.06,4.38Zm2.14,8.75a2.29,2.29,0,1,1-1.07-4.38,2.29,2.29,0,1,1,1.07,4.38Zm2.13,8.74a2.28,2.28,0,1,1-1.07-4.37,2.28,2.28,0,1,1,1.07,4.37ZM26.77,106a2.28,2.28,0,1,1-1.06-4.37A2.28,2.28,0,1,1,26.77,106Zm2.14,8.75a2.28,2.28,0,1,1-1.07-4.37,2.28,2.28,0,1,1,1.07,4.37ZM31,123.53A2.28,2.28,0,1,1,30,119.15,2.28,2.28,0,1,1,31,123.53Zm10.16-2.45a2.28,2.28,0,1,1-1-4.38,2.28,2.28,0,1,1,1,4.38Zm10.18-2.4a2.27,2.27,0,1,1,2-2.78A2.43,2.43,0,0,1,51.38,118.68Zm10.18-2.34a2.28,2.28,0,1,1,2-2.77A2.44,2.44,0,0,1,61.56,116.34Zm10.19-2.29a2.27,2.27,0,1,1,2.06-2.76A2.43,2.43,0,0,1,71.75,114.05Z"/><path class="cls-3" d="M110.44,82.27a2.5,2.5,0,0,1-3-1.69,2.68,2.68,0,0,1,5.19-1A2.52,2.52,0,0,1,110.44,82.27ZM108.9,73.4A2.28,2.28,0,1,1,108,69a2.28,2.28,0,1,1,.88,4.42Zm6.3,16.65a2.28,2.28,0,1,1-.87-4.42,2.28,2.28,0,1,1,.87,4.42Zm-4.28-25.59a2.52,2.52,0,0,1-3-1.69,2.7,2.7,0,0,1,5.23-1A2.52,2.52,0,0,1,110.92,64.46Zm11.82,31.37a2.28,2.28,0,1,1-.86-4.42,2.28,2.28,0,1,1,.86,4.42Zm-6.56-39.46a2.53,2.53,0,0,1-3.05-1.7,2.61,2.61,0,0,1,2.2-2.72,2.53,2.53,0,0,1,3,1.71A2.46,2.46,0,0,1,116.18,56.37Zm15.93,42.79a2.28,2.28,0,1,1,2.15-2.69A2.42,2.42,0,0,1,132.11,99.16Zm-7.78-49.11a2.47,2.47,0,0,1-3-1.71,2.53,2.53,0,0,1,2.22-2.71,2.6,2.6,0,0,1,3,1.71A2.54,2.54,0,0,1,124.33,50.05Zm18.16,49.56a2.28,2.28,0,1,1-.82-4.43,2.28,2.28,0,1,1,.82,4.43Zm-8.3-53.32a2.47,2.47,0,0,1-3-1.73,2.52,2.52,0,0,1,2.23-2.69,2.6,2.6,0,0,1,3,1.73A2.53,2.53,0,0,1,134.19,46.29Zm18.23,50.87a2.27,2.27,0,1,1-.79-4.43,2.28,2.28,0,1,1,.79,4.43Zm-7.71-51.67A2.28,2.28,0,1,1,147,42.81,2.46,2.46,0,0,1,144.71,45.49ZM161.27,92a2.49,2.49,0,0,1-3-1.77,2.64,2.64,0,0,1,5.15-.89A2.49,2.49,0,0,1,161.27,92Zm-6.41-44.31a2.52,2.52,0,0,1-3-1.76,2.71,2.71,0,0,1,5.26-.91A2.52,2.52,0,0,1,154.86,47.73Zm13,37a2.42,2.42,0,0,1-3-1.77,2.65,2.65,0,0,1,5.16-.88A2.42,2.42,0,0,1,167.86,84.69Zm-4.58-32a2.53,2.53,0,0,1-3-1.77,2.54,2.54,0,0,1,2.25-2.67,2.28,2.28,0,1,1,.75,4.44Zm8.14,23.47a2.51,2.51,0,0,1-3-1.79,2.56,2.56,0,0,1,2.22-2.65,2.49,2.49,0,0,1,3,1.79A2.43,2.43,0,0,1,171.42,76.15Zm-2.2-16.34a2.46,2.46,0,0,1-3-1.78,2.69,2.69,0,0,1,5.23-.88A2.45,2.45,0,0,1,169.22,59.81Zm2.51,7.34A2.28,2.28,0,1,1,174,64.5,2.45,2.45,0,0,1,171.73,67.15Z"/><path class="cls-3" d="M213.27,64.59a2.51,2.51,0,0,1-2.94-1.85,2.67,2.67,0,0,1,5.22-.75A2.5,2.5,0,0,1,213.27,64.59Zm-1.09-8.94a2.28,2.28,0,1,1-.65-4.46,2.28,2.28,0,1,1,.65,4.46Zm5.43,17a2.28,2.28,0,1,1-.64-4.46,2.28,2.28,0,1,1,.64,4.46Zm-3-25.78a2.52,2.52,0,0,1-3-1.85,2.69,2.69,0,0,1,5.26-.75A2.51,2.51,0,0,1,214.65,46.83Zm10.18,31.93a2.28,2.28,0,1,1-.63-4.46,2.28,2.28,0,1,1,.63,4.46ZM220.31,39a2.53,2.53,0,0,1-2.95-1.86,2.59,2.59,0,0,1,2.33-2.6,2.51,2.51,0,0,1,2.95,1.86A2.47,2.47,0,0,1,220.31,39ZM234,82.58A2.28,2.28,0,1,1,236.27,80,2.41,2.41,0,0,1,234,82.58Zm-5.23-49.44a2.47,2.47,0,0,1-2.95-1.88,2.53,2.53,0,0,1,2.34-2.59,2.61,2.61,0,0,1,2.95,1.88A2.53,2.53,0,0,1,228.76,33.14Zm15.55,50.43a2.28,2.28,0,1,1-.58-4.47,2.28,2.28,0,1,1,.58,4.47Zm-5.53-53.68A2.46,2.46,0,0,1,235.84,28a2.52,2.52,0,0,1,2.36-2.58,2.6,2.6,0,0,1,2.94,1.89A2.53,2.53,0,0,1,238.78,29.89Zm15.56,51.75a2.28,2.28,0,1,1-.56-4.47,2.28,2.28,0,1,1,.56,4.47Zm-5-52a2.47,2.47,0,0,1-2.93-1.9,2.71,2.71,0,0,1,5.3-.67A2.46,2.46,0,0,1,249.3,29.64ZM263.42,77a2.48,2.48,0,0,1-2.86-1.92,2.64,2.64,0,0,1,5.18-.63A2.49,2.49,0,0,1,263.42,77ZM259.31,32.4a2.52,2.52,0,0,1-2.92-1.91,2.71,2.71,0,0,1,5.3-.64A2.53,2.53,0,0,1,259.31,32.4ZM270.37,70a2.42,2.42,0,0,1-2.86-1.93,2.64,2.64,0,0,1,5.19-.61A2.43,2.43,0,0,1,270.37,70Zm-2.92-32.21a2.52,2.52,0,0,1-2.9-1.92,2.51,2.51,0,0,1,2.37-2.55,2.47,2.47,0,0,1,2.91,1.93A2.46,2.46,0,0,1,267.45,37.78Zm6.9,23.86a2.51,2.51,0,0,1-2.86-1.94,2.57,2.57,0,0,1,2.35-2.54,2.52,2.52,0,0,1,2.87,1.94A2.45,2.45,0,0,1,274.35,61.64ZM273,45.21a2.45,2.45,0,0,1-2.89-1.94,2.68,2.68,0,0,1,5.26-.6A2.45,2.45,0,0,1,273,45.21Zm2.13,7.46a2.28,2.28,0,1,1,2.36-2.54A2.46,2.46,0,0,1,275.13,52.67Z"/><path class="cls-3" d="M324.12,20.57a2.46,2.46,0,0,1-2.86-2,2.71,2.71,0,0,1,5.32-.47A2.45,2.45,0,0,1,324.12,20.57Zm.79,9a2.46,2.46,0,0,1-2.85-2,2.7,2.7,0,0,1,5.3-.47A2.45,2.45,0,0,1,324.91,29.54Zm.79,9a2.45,2.45,0,0,1-2.84-2,2.69,2.69,0,0,1,5.28-.46A2.45,2.45,0,0,1,325.7,38.51Zm.79,9A2.28,2.28,0,1,1,328.92,45,2.43,2.43,0,0,1,326.49,47.48Zm.79,9A2.28,2.28,0,1,1,329.7,54,2.43,2.43,0,0,1,327.28,56.45Zm.79,9a2.27,2.27,0,1,1,2.4-2.47A2.42,2.42,0,0,1,328.07,65.42Zm.79,9a2.27,2.27,0,1,1,2.39-2.47A2.42,2.42,0,0,1,328.86,74.39Zm4.79-24.72a2.44,2.44,0,0,1-2.81-2,2.66,2.66,0,0,1,5.24-.45A2.44,2.44,0,0,1,333.65,49.67Zm6.1-6.74a2.46,2.46,0,0,1-2.82-2,2.68,2.68,0,0,1,5.27-.43A2.45,2.45,0,0,1,339.75,42.93Zm6.15-6.64a2.58,2.58,0,0,1-2.82-2,2.51,2.51,0,0,1,2.47-2.45,2.44,2.44,0,0,1,2.81,2A2.51,2.51,0,0,1,345.9,36.29Zm2.64,8.2a2.45,2.45,0,0,1-2.8-2A2.67,2.67,0,0,1,351,42,2.46,2.46,0,0,1,348.54,44.49Zm3.64-14.91a2.45,2.45,0,0,1-2.81-2,2.69,2.69,0,0,1,5.29-.4A2.45,2.45,0,0,1,352.18,29.58Zm2.25,21.6a2.51,2.51,0,0,1-2.79-2,2.66,2.66,0,0,1,5.24-.39A2.5,2.5,0,0,1,354.43,51.18Zm5.84,6.61a2.28,2.28,0,1,1,2.45-2.43A2.43,2.43,0,0,1,360.27,57.79ZM358.41,22.9a2.46,2.46,0,0,1-2.82-2,2.7,2.7,0,0,1,5.32-.38A2.48,2.48,0,0,1,358.41,22.9Zm7.66,41.52A2.28,2.28,0,1,1,368.52,62,2.42,2.42,0,0,1,366.07,64.42Zm-1.48-47.91a2.47,2.47,0,0,1-2.82-2.06A2.46,2.46,0,0,1,364.28,12a2.53,2.53,0,0,1,2.82,2.07A2.53,2.53,0,0,1,364.59,16.51Zm7.25,54.56a2.27,2.27,0,1,1,2.45-2.41A2.42,2.42,0,0,1,371.84,71.07Z"/><path class="cls-3" d="M483.63,61.12a2.48,2.48,0,0,1,2.62,2.23,2.63,2.63,0,0,1-5.2,0A2.49,2.49,0,0,1,483.63,61.12Zm4.93-7.88a2.43,2.43,0,0,1,2.63,2.24,2.64,2.64,0,0,1-5.22,0A2.44,2.44,0,0,1,488.56,53.24Zm5-8a2.28,2.28,0,1,1-2.61,2.27A2.43,2.43,0,0,1,493.54,45.29Zm5-7.94a2.28,2.28,0,1,1-2.62,2.26A2.43,2.43,0,0,1,498.55,37.35ZM499,50.94a2.44,2.44,0,0,1,2.62,2.25,2.65,2.65,0,0,1-5.23,0A2.43,2.43,0,0,1,499,50.94Zm4.6-21.53a2.51,2.51,0,0,1,2.64,2.26,2.67,2.67,0,0,1-5.28,0A2.52,2.52,0,0,1,503.61,29.41Zm5.09-7.82a2.45,2.45,0,0,1,2.65,2.25,2.68,2.68,0,0,1-5.3,0A2.44,2.44,0,0,1,508.7,21.59Zm.77,29.35a2.43,2.43,0,0,1,2.61,2.26,2.65,2.65,0,0,1-5.23,0A2.44,2.44,0,0,1,509.47,50.94ZM515,18.19a2.47,2.47,0,0,1-2.65-2.27,2.7,2.7,0,0,1,5.33,0A2.47,2.47,0,0,1,515,18.19Zm5,32.81a2.42,2.42,0,0,1,2.59,2.27,2.64,2.64,0,0,1-5.22,0A2.42,2.42,0,0,1,519.94,51Zm1.36-24.84a2.53,2.53,0,0,1-2.64-2.28,2.46,2.46,0,0,1,2.68-2.23A2.53,2.53,0,0,1,524,23.93,2.6,2.6,0,0,1,521.3,26.16Zm5,7.88a2.45,2.45,0,0,1-2.62-2.28,2.49,2.49,0,0,1,2.66-2.22A2.57,2.57,0,0,1,529,31.82,2.51,2.51,0,0,1,526.3,34Zm4.1,17.07A2.42,2.42,0,0,1,533,53.39a2.64,2.64,0,0,1-5.22-.06A2.41,2.41,0,0,1,530.4,51.11Zm.85-9.09a2.28,2.28,0,1,1,.06-4.5,2.51,2.51,0,0,1,2.6,2.29A2.5,2.5,0,0,1,531.25,42Zm4.82,8a2.5,2.5,0,0,1-2.59-2.29,2.49,2.49,0,0,1,2.66-2.21,2.28,2.28,0,1,1-.07,4.5ZM541,58a2.57,2.57,0,0,1-2.57-2.3,2.48,2.48,0,0,1,2.65-2.2,2.43,2.43,0,0,1,2.57,2.3A2.5,2.5,0,0,1,541,58ZM545.79,66a2.51,2.51,0,0,1-2.56-2.31,2.56,2.56,0,0,1,2.65-2.19,2.47,2.47,0,0,1,2.55,2.3A2.42,2.42,0,0,1,545.79,66Z"/><path class="cls-3" d="M586.22,14.31A2.45,2.45,0,0,1,583.65,12a2.71,2.71,0,0,1,5.33.21A2.46,2.46,0,0,1,586.22,14.31Zm10.66.46a2.48,2.48,0,0,1-2.57-2.37,2.71,2.71,0,0,1,5.34.24A2.47,2.47,0,0,1,596.88,14.77Zm10.65.51A2.46,2.46,0,0,1,605,12.9a2.71,2.71,0,0,1,5.33.27A2.46,2.46,0,0,1,607.53,15.28Zm4.85,9.27a2.45,2.45,0,0,1-2.53-2.39,2.69,2.69,0,0,1,5.3.28A2.46,2.46,0,0,1,612.38,24.55Zm-.48,9a2.44,2.44,0,0,1-2.52-2.39,2.68,2.68,0,0,1,5.28.28A2.44,2.44,0,0,1,611.9,33.54Zm-.48,9a2.28,2.28,0,1,1,2.75-2.11A2.45,2.45,0,0,1,611.42,42.53Zm-.47,9a2.28,2.28,0,1,1,2.74-2.11A2.43,2.43,0,0,1,611,51.52Zm-.48,9a2.27,2.27,0,1,1,2.73-2.1A2.42,2.42,0,0,1,610.47,60.51Zm-.48,9a2.27,2.27,0,1,1,2.72-2.1A2.41,2.41,0,0,1,610,69.5Zm8.19-53.65a2.47,2.47,0,0,1-2.54-2.4,2.71,2.71,0,0,1,5.33.3A2.47,2.47,0,0,1,618.18,15.85Zm10.65.62a2.47,2.47,0,0,1-2.53-2.41,2.71,2.71,0,0,1,5.33.32A2.47,2.47,0,0,1,628.83,16.47Zm10.65.67A2.47,2.47,0,0,1,637,14.72a2.71,2.71,0,0,1,5.33.36A2.46,2.46,0,0,1,639.48,17.14Z"/><path class="cls-3" d="M741.92,75.2a2.47,2.47,0,0,1,2.31,2.55,2.63,2.63,0,0,1-5.17-.62A2.49,2.49,0,0,1,741.92,75.2ZM747.84,68a2.44,2.44,0,0,1,2.32,2.56,2.64,2.64,0,0,1-5.19-.64A2.43,2.43,0,0,1,747.84,68Zm6-7.24a2.28,2.28,0,1,1-2.89,1.91A2.43,2.43,0,0,1,753.81,60.78Zm6-7.23a2.28,2.28,0,1,1-2.9,1.9A2.44,2.44,0,0,1,759.81,53.55Zm-1.3,13.54a2.41,2.41,0,0,1,2.31,2.56,2.65,2.65,0,0,1-5.19-.66A2.43,2.43,0,0,1,758.51,67.09Zm7.35-20.75a2.5,2.5,0,0,1,2.33,2.57,2.68,2.68,0,0,1-5.25-.68A2.52,2.52,0,0,1,765.86,46.34Zm6.07-7.11a2.47,2.47,0,0,1,2.34,2.58,2.7,2.7,0,0,1-5.27-.69A2.46,2.46,0,0,1,771.93,39.23Zm-3,29.21a2.43,2.43,0,0,1,2.3,2.58,2.65,2.65,0,0,1-5.19-.69A2.43,2.43,0,0,1,768.91,68.44Zm9.7-31.77a2.45,2.45,0,0,1-2.34-2.58,2.7,2.7,0,1,1,2.34,2.58Zm.69,33.18a2.43,2.43,0,0,1,2.29,2.59,2.65,2.65,0,0,1-5.19-.72A2.43,2.43,0,0,1,779.3,69.85Zm4.56-24.46a2.51,2.51,0,0,1-2.33-2.59,2.46,2.46,0,0,1,2.94-1.87,2.53,2.53,0,0,1,2.33,2.6A2.59,2.59,0,0,1,783.86,45.39Zm3.95,8.46a2.45,2.45,0,0,1-2.31-2.59,2.51,2.51,0,0,1,2.94-1.86,2.57,2.57,0,0,1,2.3,2.6A2.5,2.5,0,0,1,787.81,53.85Zm1.88,17.46a2.43,2.43,0,0,1,2.27,2.6,2.65,2.65,0,0,1-5.19-.74A2.44,2.44,0,0,1,789.69,71.31Zm2-8.9a2.28,2.28,0,1,1,.64-4.45,2.28,2.28,0,1,1-.64,4.45ZM795.46,71a2.28,2.28,0,1,1,.65-4.45,2.28,2.28,0,1,1-.65,4.45Zm3.82,8.58A2.57,2.57,0,0,1,797,76.93a2.5,2.5,0,0,1,2.92-1.85,2.44,2.44,0,0,1,2.26,2.62A2.5,2.5,0,0,1,799.28,79.54ZM803.07,88a2.49,2.49,0,0,1-2.24-2.62,2.55,2.55,0,0,1,2.91-1.83A2.49,2.49,0,0,1,806,86.19,2.43,2.43,0,0,1,803.07,88Z"/><path class="cls-3" d="M867.87,45.2a2.29,2.29,0,1,1,.8-4.43,2.28,2.28,0,1,1-.8,4.43Zm-1.6,8.86a2.28,2.28,0,1,1,3-1.74A2.46,2.46,0,0,1,866.27,54.06Zm-1.6,8.86a2.28,2.28,0,1,1,3-1.74A2.45,2.45,0,0,1,864.67,62.92Zm-1.59,8.86a2.28,2.28,0,1,1,3-1.74A2.45,2.45,0,0,1,863.08,71.78Zm-1.6,8.87a2.28,2.28,0,1,1,3-1.75A2.44,2.44,0,0,1,861.48,80.65Zm-1.6,8.86a2.28,2.28,0,1,1,3-1.75A2.44,2.44,0,0,1,859.88,89.51Zm-1.6,8.86a2.28,2.28,0,1,1,3-1.75A2.44,2.44,0,0,1,858.28,98.37Zm10.26,1.87a2.27,2.27,0,1,1,3-1.73A2.42,2.42,0,0,1,868.54,100.24Zm10.24,1.94a2.28,2.28,0,1,1,3-1.72A2.44,2.44,0,0,1,878.78,102.18Zm10.24,2a2.28,2.28,0,1,1,3-1.7A2.43,2.43,0,0,1,889,104.16Zm10.23,2a2.28,2.28,0,1,1,.89-4.42,2.28,2.28,0,1,1-.89,4.42Z"/><path class="cls-3" d="M964.44,65a2.29,2.29,0,1,1,3.13-1.59A2.48,2.48,0,0,1,964.44,65Zm-2,8.77a2.28,2.28,0,1,1,3.11-1.59A2.47,2.47,0,0,1,962.42,73.79Zm-2,8.78a2.28,2.28,0,1,1,3.1-1.6A2.46,2.46,0,0,1,960.4,82.57Zm-2,8.77a2.28,2.28,0,1,1,3.09-1.59A2.45,2.45,0,0,1,958.38,91.34Zm-2,8.78a2.28,2.28,0,1,1,3.07-1.6A2.45,2.45,0,0,1,956.36,100.12Zm-2,8.77a2.28,2.28,0,1,1,3.06-1.6A2.43,2.43,0,0,1,954.34,108.89Zm-2,8.78a2.28,2.28,0,1,1,3.06-1.61A2.43,2.43,0,0,1,952.31,117.67ZM962.49,120a2.28,2.28,0,1,1,3.06-1.59A2.43,2.43,0,0,1,962.49,120Zm10.17,2.43a2.28,2.28,0,1,1,3.07-1.58A2.44,2.44,0,0,1,972.66,122.47ZM982.81,125a2.28,2.28,0,1,1,3.08-1.56A2.43,2.43,0,0,1,982.81,125ZM993,127.48a2.27,2.27,0,1,1,3.09-1.54A2.44,2.44,0,0,1,993,127.48Z"/><path class="cls-3" d="M44.14,186.6a2.72,2.72,0,1,1,2.31-3.35A2.87,2.87,0,0,1,44.14,186.6Zm11.8-2.85a2.72,2.72,0,1,1,2.33-3.33A2.86,2.86,0,0,1,55.94,183.75ZM67.76,181a2.72,2.72,0,1,1,2.35-3.32A2.86,2.86,0,0,1,67.76,181Zm8.31,9.17a2.72,2.72,0,1,1,2.35-3.3A2.84,2.84,0,0,1,76.07,190.14Zm2.41,10.53a2.71,2.71,0,1,1,2.33-3.3A2.83,2.83,0,0,1,78.48,200.67Zm2.41,10.54a2.72,2.72,0,1,1,2.31-3.3A2.83,2.83,0,0,1,80.89,211.21Zm2.4,10.53a2.71,2.71,0,1,1,2.3-3.29A2.81,2.81,0,0,1,83.29,221.74Zm2.41,10.53A2.71,2.71,0,1,1,88,229,2.8,2.8,0,0,1,85.7,232.27Zm2.41,10.54a2.71,2.71,0,1,1,2.26-3.29A2.82,2.82,0,0,1,88.11,242.81Zm-8.53-64.54A2.72,2.72,0,1,1,82,175,2.85,2.85,0,0,1,79.58,178.27Zm11.84-2.63a2.72,2.72,0,1,1,2.39-3.29A2.86,2.86,0,0,1,91.42,175.64Zm11.85-2.55a2.72,2.72,0,1,1,2.41-3.27A2.84,2.84,0,0,1,103.27,173.09Z"/><path class="cls-3" d="M165.09,161a2.72,2.72,0,1,1,2.51-3.19A2.86,2.86,0,0,1,165.09,161ZM167,171.67a2.72,2.72,0,1,1,2.5-3.19A2.85,2.85,0,0,1,167,171.67Zm1.9,10.63a2.71,2.71,0,1,1,2.47-3.18A2.82,2.82,0,0,1,168.88,182.3Zm1.89,10.64a2.71,2.71,0,1,1,2.46-3.18A2.82,2.82,0,0,1,170.77,192.94Zm1.9,10.64a2.71,2.71,0,1,1,2.44-3.18A2.82,2.82,0,0,1,172.67,203.58Zm1.9,10.64A2.71,2.71,0,1,1,177,211,2.81,2.81,0,0,1,174.57,214.22Zm1.89,10.63a2.71,2.71,0,1,1,2.41-3.17A2.8,2.8,0,0,1,176.46,224.85Zm7.41-26a2.72,2.72,0,1,1,2.46-3.16A2.82,2.82,0,0,1,183.87,198.88Zm11.68-2a2.71,2.71,0,1,1,2.48-3.15A2.82,2.82,0,0,1,195.55,196.91ZM207.23,195a2.71,2.71,0,1,1,2.51-3.14A2.82,2.82,0,0,1,207.23,195Zm11.7-1.83a2.71,2.71,0,1,1,2.52-3.11A2.8,2.8,0,0,1,218.93,193.19Zm5.85-41.84a2.72,2.72,0,1,1,2.61-3.1A2.84,2.84,0,0,1,224.78,151.35Zm1.56,10.7a2.72,2.72,0,1,1,2.59-3.11A2.84,2.84,0,0,1,226.34,162.05Zm1.56,10.69a2.72,2.72,0,1,1,2.58-3.11A2.84,2.84,0,0,1,227.9,172.74Zm1.57,10.69a2.72,2.72,0,1,1,2.55-3.1A2.83,2.83,0,0,1,229.47,183.43ZM231,194.12a2.71,2.71,0,1,1,2.54-3.1A2.81,2.81,0,0,1,231,194.12Zm1.56,10.69a2.71,2.71,0,1,1,2.52-3.09A2.8,2.8,0,0,1,232.59,204.81Zm1.56,10.69a2.71,2.71,0,1,1,2.5-3.09A2.78,2.78,0,0,1,234.15,215.5Z"/><path class="cls-3" d="M295.48,142.36a2.72,2.72,0,1,1-.58-5.37,2.72,2.72,0,1,1,.58,5.37Zm1.17,10.74a2.72,2.72,0,1,1,2.69-3A2.84,2.84,0,0,1,296.65,153.1Zm1.16,10.74a2.71,2.71,0,1,1,2.68-3A2.83,2.83,0,0,1,297.81,163.84ZM299,174.58a2.71,2.71,0,1,1,2.66-3A2.83,2.83,0,0,1,299,174.58Zm1.16,10.74a2.71,2.71,0,1,1,2.65-3A2.81,2.81,0,0,1,300.14,185.32Zm1.17,10.75a2.71,2.71,0,1,1,2.63-3A2.81,2.81,0,0,1,301.31,196.07Zm1.17,10.74a2.71,2.71,0,1,1,2.61-3A2.8,2.8,0,0,1,302.48,206.81Zm5-65.72a2.72,2.72,0,1,1,2.73-3A2.85,2.85,0,0,1,307.49,141.09Zm4.12,40.31a2.72,2.72,0,1,1,2.67-3A2.81,2.81,0,0,1,311.61,181.4Zm2.47,24.18a2.71,2.71,0,1,1,2.63-3A2.79,2.79,0,0,1,314.08,205.58Zm5.42-65.68a2.72,2.72,0,1,1,2.75-3A2.85,2.85,0,0,1,319.5,139.9Zm3.87,40.33a2.71,2.71,0,1,1,2.68-3A2.81,2.81,0,0,1,323.37,180.23Zm2.32,24.2a2.71,2.71,0,1,1,2.65-3A2.79,2.79,0,0,1,325.69,204.43Zm5.82-65.64a2.72,2.72,0,1,1,2.77-3A2.86,2.86,0,0,1,331.51,138.79Zm3.62,40.35a2.71,2.71,0,1,1,2.71-2.95A2.8,2.8,0,0,1,335.13,179.14Zm2.17,24.22a2.71,2.71,0,1,1,2.67-3A2.81,2.81,0,0,1,337.3,203.36Zm6.24-65.61a2.72,2.72,0,1,1,2.78-2.94A2.86,2.86,0,0,1,343.54,137.75Zm5.38,64.6a2.71,2.71,0,1,1,2.69-2.93A2.79,2.79,0,0,1,348.92,202.35Z"/><path class="cls-3" d="M479.63,131.22a2.72,2.72,0,1,1,3-2.73A2.84,2.84,0,0,1,479.63,131.22Zm.14,10.81a2.72,2.72,0,1,1,3-2.74A2.84,2.84,0,0,1,479.77,142Zm.13,10.8a2.71,2.71,0,1,1,3-2.74A2.83,2.83,0,0,1,479.9,152.83Zm.14,10.8A2.71,2.71,0,1,1,483,160.9,2.8,2.8,0,0,1,480,163.63Zm.14,10.81a2.71,2.71,0,1,1,2.91-2.74A2.81,2.81,0,0,1,480.18,174.44Zm.13,10.8a2.71,2.71,0,1,1,2.9-2.73A2.79,2.79,0,0,1,480.31,185.24Zm.14,10.81a2.71,2.71,0,1,1,2.88-2.74A2.79,2.79,0,0,1,480.45,196.05Zm11.24-64.94a2.72,2.72,0,1,1,3-2.72A2.85,2.85,0,0,1,491.69,131.11Zm.26,40.52a2.72,2.72,0,1,1,2.93-2.72A2.82,2.82,0,0,1,492,171.63Zm11.79-40.56a2.72,2.72,0,1,1,3-2.7A2.86,2.86,0,0,1,503.74,131.07Zm0,40.52a2.72,2.72,0,1,1,2.95-2.7A2.82,2.82,0,0,1,503.75,171.59Zm12-40.49a2.72,2.72,0,1,1,3-2.68A2.84,2.84,0,0,1,515.8,131.1Zm-.25,40.52a2.71,2.71,0,1,1,3-2.68A2.81,2.81,0,0,1,515.55,171.62Zm12.31-40.4a2.72,2.72,0,1,1,3-2.67A2.86,2.86,0,0,1,527.86,131.22Z"/><path class="cls-3" d="M591.73,133.06a2.72,2.72,0,1,1,3.14-2.56A2.84,2.84,0,0,1,591.73,133.06Zm-.49,10.79a2.71,2.71,0,1,1,3.12-2.56A2.84,2.84,0,0,1,591.24,143.85Zm-.49,10.8a2.72,2.72,0,1,1,3.1-2.56A2.83,2.83,0,0,1,590.75,154.65Zm-.49,10.79a2.71,2.71,0,1,1,3.09-2.56A2.81,2.81,0,0,1,590.26,165.44Zm-.49,10.79a2.71,2.71,0,1,1,3.07-2.56A2.81,2.81,0,0,1,589.77,176.23Zm-.49,10.8a2.71,2.71,0,1,1,3.05-2.57A2.8,2.8,0,0,1,589.28,187Zm-.49,10.79a2.71,2.71,0,1,1,3-2.56A2.78,2.78,0,0,1,588.79,197.82Zm11.64.57a2.71,2.71,0,1,1,3.05-2.55A2.8,2.8,0,0,1,600.43,198.39Zm11.64.63a2.71,2.71,0,1,1,3.07-2.52A2.79,2.79,0,0,1,612.07,199Zm11.63.72a2.71,2.71,0,1,1,3.09-2.51A2.8,2.8,0,0,1,623.7,199.74Zm11.64.78a2.71,2.71,0,1,1,3.1-2.49A2.8,2.8,0,0,1,635.34,200.52Z"/><path class="cls-3" d="M686.9,198a2.86,2.86,0,0,1,2.64,3,2.93,2.93,0,0,1-5.82-.57A2.87,2.87,0,0,1,686.9,198Zm6.53-8.79a2.8,2.8,0,0,1,2.66,3,3,3,0,0,1-5.85-.59A2.79,2.79,0,0,1,693.43,189.24Zm6.61-8.88a2.71,2.71,0,1,1-3.22,2.38A2.8,2.8,0,0,1,700,180.36Zm6.66-8.86a2.71,2.71,0,1,1-3.24,2.37A2.81,2.81,0,0,1,706.7,171.5Zm-1.27,16.27a2.79,2.79,0,0,1,2.63,3,3,3,0,0,1-5.85-.63A2.81,2.81,0,0,1,705.43,187.77Zm8-25.11a2.9,2.9,0,0,1,2.67,3,3,3,0,0,1-5.93-.66A2.9,2.9,0,0,1,713.41,162.66Zm6.76-8.7a2.82,2.82,0,0,1,2.67,3,3,3,0,0,1-6-.67A2.82,2.82,0,0,1,720.17,154Zm-3,35.11a2.79,2.79,0,0,1,2.62,3,3,3,0,0,1-5.85-.66A2.8,2.8,0,0,1,717.14,189.07Zm10.54-38.38a2.72,2.72,0,1,1,3.31-2.33A2.84,2.84,0,0,1,727.68,150.69Zm1.17,39.74a2.8,2.8,0,0,1,2.6,3,3,3,0,0,1-5.84-.7A2.81,2.81,0,0,1,728.85,190.43ZM733.72,161a2.91,2.91,0,0,1-2.66-3,2.83,2.83,0,0,1,3.3-2.32,2.92,2.92,0,0,1,2.66,3A3,3,0,0,1,733.72,161Zm4.55,10a2.82,2.82,0,0,1-2.63-3,2.89,2.89,0,0,1,3.29-2.31,3,3,0,0,1,2.63,3A2.9,2.9,0,0,1,738.27,171Zm2.29,20.87a2.8,2.8,0,0,1,2.58,3.05,3,3,0,0,1-5.84-.74A2.79,2.79,0,0,1,740.56,191.88Zm2.19-10.73a2.71,2.71,0,1,1,.68-5.36,2.71,2.71,0,1,1-.68,5.36Zm4.3,10.14a2.71,2.71,0,1,1,.7-5.36,2.71,2.71,0,1,1-.7,5.36Zm4.37,10.17a3,3,0,0,1-2.56-3.07,2.87,2.87,0,0,1,3.27-2.29,2.8,2.8,0,0,1,2.56,3.07A2.88,2.88,0,0,1,751.42,201.46Zm4.32,10.06a2.86,2.86,0,0,1-2.53-3.07,2.93,2.93,0,0,1,3.26-2.28,2.85,2.85,0,0,1,2.53,3.07A2.79,2.79,0,0,1,755.74,211.52Z"/><path class="cls-3" d="M812,186.1a2.91,2.91,0,0,1-2.51-3.15,3,3,0,0,1,5.89,1A2.91,2.91,0,0,1,812,186.1Zm-.75,10.39a2.81,2.81,0,0,1-2.48-3.15,3,3,0,0,1,5.85,1A2.82,2.82,0,0,1,811.29,196.49Zm5-19.77a2.84,2.84,0,0,1-2.52-3.16,2.9,2.9,0,0,1,3.4-2.17,3,3,0,0,1,2.52,3.15A2.92,2.92,0,0,1,816.25,176.72Zm-2.08,29.88a2.71,2.71,0,1,1,.89-5.33,2.71,2.71,0,1,1-.89,5.33Zm9.71-37.7a2.72,2.72,0,1,1,.9-5.33,2.72,2.72,0,1,1-.9,5.33Zm-3.59,46.63a2.89,2.89,0,0,1-2.44-3.16,3,3,0,0,1,3.36-2.17,2.88,2.88,0,0,1,2.44,3.16A2.82,2.82,0,0,1,820.29,215.53Zm13.49-51.62a2.72,2.72,0,1,1,3.44-2.14A2.85,2.85,0,0,1,833.78,163.91Zm-4.67,58.41a2.71,2.71,0,1,1,3.35-2.14A2.79,2.79,0,0,1,829.11,222.32Zm15.79-60.18a2.72,2.72,0,1,1,1-5.32,2.72,2.72,0,1,1-1,5.32Zm-5.33,64.15a2.71,2.71,0,1,1,3.37-2.13A2.79,2.79,0,0,1,839.57,226.29Zm16.73-62.62a2.72,2.72,0,1,1,1-5.31,2.72,2.72,0,1,1-1,5.31ZM851.55,201a2.71,2.71,0,1,1,3.41-2.11A2.82,2.82,0,0,1,851.55,201Zm-.81,26a2.71,2.71,0,1,1,3.38-2.11A2.8,2.8,0,0,1,850.74,227.05Zm16.12-58.64a2.94,2.94,0,0,1-2.47-3.22,3,3,0,0,1,3.48-2.09,2.93,2.93,0,0,1,2.47,3.23A2.86,2.86,0,0,1,866.86,168.41ZM861.69,203a2.71,2.71,0,1,1,1-5.3,2.71,2.71,0,1,1-1,5.3Zm-.21,21.64a2.71,2.71,0,1,1,3.4-2.09A2.8,2.8,0,0,1,861.48,224.59ZM875.23,176a2.72,2.72,0,1,1,3.48-2.07A2.85,2.85,0,0,1,875.23,176ZM872,205a2.71,2.71,0,1,1,3.44-2.07A2.83,2.83,0,0,1,872,205Zm-2.2,11.12a2.71,2.71,0,1,1,3.42-2.07A2.81,2.81,0,0,1,869.75,216.08Z"/><path class="cls-3" d="M934.21,196.19a2.72,2.72,0,1,1,3.55-1.95A2.85,2.85,0,0,1,934.21,196.19Zm5.27-8.32a2.72,2.72,0,1,1,1.22-5.26,2.72,2.72,0,1,1-1.22,5.26Zm-4,18.47a2.9,2.9,0,0,1-2.31-3.3,3,3,0,0,1,3.53-2,2.91,2.91,0,0,1,2.31,3.31A2.83,2.83,0,0,1,935.44,206.34Zm-7.23,32.16a2.89,2.89,0,0,1-2.26-3.3,2.8,2.8,0,0,1,3.48-2,2.86,2.86,0,0,1,2.26,3.3A3,3,0,0,1,928.21,238.5Zm21.24-54.39a2.94,2.94,0,0,1-2.34-3.33,3.06,3.06,0,0,1,5.91,1.4A2.92,2.92,0,0,1,949.45,184.11Zm-6.62,30a2.71,2.71,0,1,1,3.53-1.93A2.82,2.82,0,0,1,942.83,214.07ZM936,246a2.71,2.71,0,1,1,3.49-2A2.81,2.81,0,0,1,936,246Zm24.4-59.59a2.72,2.72,0,1,1,3.59-1.91A2.87,2.87,0,0,1,960.38,186.4ZM953,218.08a2.72,2.72,0,1,1,1.28-5.25,2.72,2.72,0,1,1-1.28,5.25Zm-6.94,30a2.71,2.71,0,1,1,3.5-1.93A2.8,2.8,0,0,1,946.1,248.09ZM968,194a2.72,2.72,0,1,1,3.59-1.89A2.86,2.86,0,0,1,968,194Zm-7.48,32.1a2.84,2.84,0,0,1-2.24-3.34,3,3,0,0,1,5.79,1.43A2.84,2.84,0,0,1,960.53,226.05ZM956,244.4a2.72,2.72,0,1,1,3.52-1.91A2.81,2.81,0,0,1,956,244.4Zm5.49-8.32a2.72,2.72,0,1,1,3.53-1.9A2.81,2.81,0,0,1,961.46,236.08Z"/><text class="cls-4" transform="translate(137.05 329.23)">i Do NOT KNOW ABOUT</text></g></g></svg>